  0
SECTION
  2
HEADER
  9
$ACADVER
  1
AC1018
  9
$ACADMAINTVER
 70
     0
  9
$DWGCODEPAGE
  3
ANSI_1252
  9
$INSBASE
 10
0.0
 20
0.0
 30
0.0
  9
$EXTMIN
 10
1.000000000000000E+20
 20
1.000000000000000E+20
 30
1.000000000000000E+20
  9
$EXTMAX
 10
-1.000000000000000E+20
 20
-1.000000000000000E+20
 30
-1.000000000000000E+20
  9
$LIMMIN
 10
0.0
 20
0.0
  9
$LIMMAX
 10
12.0
 20
9.0
  9
$ORTHOMODE
 70
     0
  9
$REGENMODE
 70
     1
  9
$FILLMODE
 70
     1
  9
$QTEXTMODE
 70
     0
  9
$MIRRTEXT
 70
     1
  9
$LTSCALE
 40
1.0
  9
$ATTMODE
 70
     1
  9
$TEXTSIZE
 40
0.2
  9
$TRACEWID
 40
0.05
  9
$TEXTSTYLE
  7
Standard
  9
$CLAYER
  8
0
  9
$CELTYPE
  6
ByLayer
  9
$CECOLOR
 62
   256
  9
$CELTSCALE
 40
1.0
  9
$DISPSILH
 70
     0
  9
$DIMSCALE
 40
1.0
  9
$DIMASZ
 40
0.18
  9
$DIMEXO
 40
0.0625
  9
$DIMDLI
 40
0.38
  9
$DIMRND
 40
0.0
  9
$DIMDLE
 40
0.0
  9
$DIMEXE
 40
0.18
  9
$DIMTP
 40
0.0
  9
$DIMTM
 40
0.0
  9
$DIMTXT
 40
0.18
  9
$DIMCEN
 40
0.09
  9
$DIMTSZ
 40
0.0
  9
$DIMTOL
 70
     0
  9
$DIMLIM
 70
     0
  9
$DIMTIH
 70
     1
  9
$DIMTOH
 70
     1
  9
$DIMSE1
 70
     0
  9
$DIMSE2
 70
     0
  9
$DIMTAD
 70
     0
  9
$DIMZIN
 70
     0
  9
$DIMBLK
  1

  9
$DIMASO
 70
     1
  9
$DIMSHO
 70
     1
  9
$DIMPOST
  1

  9
$DIMAPOST
  1

  9
$DIMALT
 70
     0
  9
$DIMALTD
 70
     2
  9
$DIMALTF
 40
25.4
  9
$DIMLFAC
 40
1.0
  9
$DIMTOFL
 70
     0
  9
$DIMTVP
 40
0.0
  9
$DIMTIX
 70
     0
  9
$DIMSOXD
 70
     0
  9
$DIMSAH
 70
     0
  9
$DIMBLK1
  1

  9
$DIMBLK2
  1

  9
$DIMSTYLE
  2
Standard
  9
$DIMCLRD
 70
     0
  9
$DIMCLRE
 70
     0
  9
$DIMCLRT
 70
     0
  9
$DIMTFAC
 40
1.0
  9
$DIMGAP
 40
0.09
  9
$DIMJUST
 70
     0
  9
$DIMSD1
 70
     0
  9
$DIMSD2
 70
     0
  9
$DIMTOLJ
 70
     1
  9
$DIMTZIN
 70
     0
  9
$DIMALTZ
 70
     0
  9
$DIMALTTZ
 70
     0
  9
$DIMUPT
 70
     0
  9
$DIMDEC
 70
     4
  9
$DIMTDEC
 70
     4
  9
$DIMALTU
 70
     2
  9
$DIMALTTD
 70
     2
  9
$DIMTXSTY
  7
Standard
  9
$DIMAUNIT
 70
     0
  9
$DIMADEC
 70
     0
  9
$DIMALTRND
 40
0.0
  9
$DIMAZIN
 70
     0
  9
$DIMDSEP
 70
    46
  9
$DIMATFIT
 70
     3
  9
$DIMFRAC
 70
     0
  9
$DIMLDRBLK
  1

  9
$DIMLUNIT
 70
     2
  9
$DIMLWD
 70
    -2
  9
$DIMLWE
 70
    -2
  9
$DIMTMOVE
 70
     0
  9
$LUNITS
 70
     2
  9
$LUPREC
 70
     4
  9
$SKETCHINC
 40
0.1
  9
$FILLETRAD
 40
0.5
  9
$AUNITS
 70
     0
  9
$AUPREC
 70
     0
  9
$MENU
  1
.
  9
$ELEVATION
 40
0.0
  9
$PELEVATION
 40
0.0
  9
$THICKNESS
 40
0.0
  9
$LIMCHECK
 70
     0
  9
$CHAMFERA
 40
0.5
  9
$CHAMFERB
 40
0.5
  9
$CHAMFERC
 40
1.0
  9
$CHAMFERD
 40
0.0
  9
$SKPOLY
 70
     0
  9
$TDCREATE
 40
2460187.702542048
  9
$TDUCREATE
 40
2460187.494208715
  9
$TDUPDATE
 40
2460187.70254206
  9
$TDUUPDATE
 40
2460187.494208727
  9
$TDINDWG
 40
0.0000000116
  9
$TDUSRTIMER
 40
0.0000000116
  9
$USRTIMER
 70
     1
  9
$ANGBASE
 50
0.0
  9
$ANGDIR
 70
     0
  9
$PDMODE
 70
     0
  9
$PDSIZE
 40
0.0
  9
$PLINEWID
 40
0.0
  9
$SPLFRAME
 70
     0
  9
$SPLINETYPE
 70
     6
  9
$SPLINESEGS
 70
     8
  9
$HANDSEED
  5
27D
  9
$SURFTAB1
 70
     6
  9
$SURFTAB2
 70
     6
  9
$SURFTYPE
 70
     6
  9
$SURFU
 70
     6
  9
$SURFV
 70
     6
  9
$UCSBASE
  2

  9
$UCSNAME
  2

  9
$UCSORG
 10
0.0
 20
0.0
 30
0.0
  9
$UCSXDIR
 10
1.0
 20
0.0
 30
0.0
  9
$UCSYDIR
 10
0.0
 20
1.0
 30
0.0
  9
$UCSORTHOREF
  2

  9
$UCSORTHOVIEW
 70
     0
  9
$UCSORGTOP
 10
0.0
 20
0.0
 30
0.0
  9
$UCSORGBOTTOM
 10
0.0
 20
0.0
 30
0.0
  9
$UCSORGLEFT
 10
0.0
 20
0.0
 30
0.0
  9
$UCSORGRIGHT
 10
0.0
 20
0.0
 30
0.0
  9
$UCSORGFRONT
 10
0.0
 20
0.0
 30
0.0
  9
$UCSORGBACK
 10
0.0
 20
0.0
 30
0.0
  9
$PUCSBASE
  2

  9
$PUCSNAME
  2

  9
$PUCSORG
 10
0.0
 20
0.0
 30
0.0
  9
$PUCSXDIR
 10
1.0
 20
0.0
 30
0.0
  9
$PUCSYDIR
 10
0.0
 20
1.0
 30
0.0
  9
$PUCSORTHOREF
  2

  9
$PUCSORTHOVIEW
 70
     0
  9
$PUCSORGTOP
 10
0.0
 20
0.0
 30
0.0
  9
$PUCSORGBOTTOM
 10
0.0
 20
0.0
 30
0.0
  9
$PUCSORGLEFT
 10
0.0
 20
0.0
 30
0.0
  9
$PUCSORGRIGHT
 10
0.0
 20
0.0
 30
0.0
  9
$PUCSORGFRONT
 10
0.0
 20
0.0
 30
0.0
  9
$PUCSORGBACK
 10
0.0
 20
0.0
 30
0.0
  9
$USERI1
 70
     0
  9
$USERI2
 70
     0
  9
$USERI3
 70
     0
  9
$USERI4
 70
     0
  9
$USERI5
 70
     0
  9
$USERR1
 40
0.0
  9
$USERR2
 40
0.0
  9
$USERR3
 40
0.0
  9
$USERR4
 40
0.0
  9
$USERR5
 40
0.0
  9
$WORLDVIEW
 70
     1
  9
$SHADEDGE
 70
     3
  9
$SHADEDIF
 70
    70
  9
$TILEMODE
 70
     1
  9
$MAXACTVP
 70
    64
  9
$PINSBASE
 10
0.0
 20
0.0
 30
0.0
  9
$PLIMCHECK
 70
     0
  9
$PEXTMIN
 10
1.000000000000000E+20
 20
1.000000000000000E+20
 30
1.000000000000000E+20
  9
$PEXTMAX
 10
-1.000000000000000E+20
 20
-1.000000000000000E+20
 30
-1.000000000000000E+20
  9
$PLIMMIN
 10
0.0
 20
0.0
  9
$PLIMMAX
 10
12.0
 20
9.0
  9
$UNITMODE
 70
     0
  9
$VISRETAIN
 70
     1
  9
$PLINEGEN
 70
     0
  9
$PSLTSCALE
 70
     1
  9
$TREEDEPTH
 70
  3020
  9
$CMLSTYLE
  2
Standard
  9
$CMLJUST
 70
     0
  9
$CMLSCALE
 40
1.0
  9
$PROXYGRAPHICS
 70
     1
  9
$MEASUREMENT
 70
     0
  9
$CELWEIGHT
370
    -1
  9
$ENDCAPS
280
     0
  9
$JOINSTYLE
280
     0
  9
$LWDISPLAY
290
     1
  9
$INSUNITS
 70
     1
  9
$HYPERLINKBASE
  1

  9
$STYLESHEET
  1

  9
$XEDIT
290
     1
  9
$CEPSNTYPE
380
     0
  9
$PSTYLEMODE
290
     1
  9
$FINGERPRINTGUID
  2
{588612E5-BF7A-47BE-82EC-6B770C9D0523}
  9
$VERSIONGUID
  2
{FAEB1C32-E019-11D5-929B-00C0DF256EC4}
  9
$EXTNAMES
290
     1
  9
$PSVPSCALE
 40
0.0
  9
$OLESTARTUP
290
     0
  9
$SORTENTS
280
   127
  9
$INDEXCTL
280
     0
  9
$HIDETEXT
280
     1
  9
$XCLIPFRAME
290
     0
  9
$HALOGAP
280
     0
  9
$OBSCOLOR
 70
   257
  9
$OBSLTYPE
280
     0
  9
$INTERSECTIONDISPLAY
280
     0
  9
$INTERSECTIONCOLOR
 70
   257
  9
$DIMASSOC
280
     2
  9
$PROJECTNAME
  1

  0
ENDSEC
  0
SECTION
  2
CLASSES
  0
CLASS
  1
ACDBDICTIONARYWDFLT
  2
AcDbDictionaryWithDefault
  3
ObjectDBX Classes
 90
        0
 91
        3
280
     0
281
     0
  0
CLASS
  1
VISUALSTYLE
  2
AcDbVisualStyle
  3
ObjectDBX Classes
 90
     4095
 91
        3
280
     0
281
     0
  0
ENDSEC
  0
SECTION
  2
TABLES
  0
TABLE
  2
VPORT
  5
8
330
0
100
AcDbSymbolTable
 70
     1
  0
VPORT
  5
29
330
8
100
AcDbSymbolTableRecord
100
AcDbViewportTableRecord
  2
*Active
 70
     0
 10
0.0
 20
0.0
 11
1.0
 21
1.0
 12
0.0
 22
0.0
 13
0.0
 23
0.0
 14
0.5
 24
0.5
 15
0.5
 25
0.5
 16
0.0
 26
0.0
 36
1.0
 17
107.9499999730125
 27
139.699999965075
 37
0.0
 40
279.39999993015
 41
0.7727272727272728
 42
50.0
 43
0.0
 44
0.0
 50
0.0
 51
0.0
 71
     0
 72
   100
 73
     1
 74
     3
 75
     0
 76
     0
 77
     0
 78
     0
281
     0
 65
     1
110
0.0
120
0.0
130
0.0
111
1.0
121
0.0
131
0.0
112
0.0
122
1.0
132
0.0
 79
     0
146
0.0
  0
ENDTAB
  0
TABLE
  2
LTYPE
  5
5
330
0
100
AcDbSymbolTable
 70
     1
  0
LTYPE
  5
14
330
5
100
AcDbSymbolTableRecord
100
AcDbLinetypeTableRecord
  2
ByBlock
 70
     0
  3

 72
    65
 73
     0
 40
0.0
  0
LTYPE
  5
15
330
5
100
AcDbSymbolTableRecord
100
AcDbLinetypeTableRecord
  2
ByLayer
 70
     0
  3

 72
    65
 73
     0
 40
0.0
  0
LTYPE
  5
16
330
5
100
AcDbSymbolTableRecord
100
AcDbLinetypeTableRecord
  2
Continuous
 70
     0
  3
Solid line
 72
    65
 73
     0
 40
0.0
  0
ENDTAB
  0
TABLE
  2
LAYER
  5
2
330
0
100
AcDbSymbolTable
 70
     2
  0
LAYER
  5
10
330
2
100
AcDbSymbolTableRecord
100
AcDbLayerTableRecord
  2
0
 70
     0
 62
     7
  6
Continuous
370
    -3
390
F
  0
LAYER
  5
3B
330
2
100
AcDbSymbolTableRecord
100
AcDbLayerTableRecord
  2
Layer 1
 70
     0
 62
     7
  6
Continuous
370
    -3
390
F
  0
ENDTAB
  0
TABLE
  2
STYLE
  5
3
330
0
100
AcDbSymbolTable
 70
     1
  0
STYLE
  5
11
330
3
100
AcDbSymbolTableRecord
100
AcDbTextStyleTableRecord
  2
Standard
 70
     0
 40
0.0
 41
1.0
 50
0.0
 71
     0
 42
0.2
  3
txt
  4

  0
ENDTAB
  0
TABLE
  2
VIEW
  5
6
330
0
100
AcDbSymbolTable
 70
     0
  0
ENDTAB
  0
TABLE
  2
UCS
  5
7
330
0
100
AcDbSymbolTable
 70
     0
  0
ENDTAB
  0
TABLE
  2
APPID
  5
9
330
0
100
AcDbSymbolTable
 70
     1
  0
APPID
  5
12
330
9
100
AcDbSymbolTableRecord
100
AcDbRegAppTableRecord
  2
ACAD
 70
     0
  0
ENDTAB
  0
TABLE
  2
DIMSTYLE
  5
A
330
0
100
AcDbSymbolTable
 70
     1
100
AcDbDimStyleTable
  0
DIMSTYLE
105
27
330
A
100
AcDbSymbolTableRecord
100
AcDbDimStyleTableRecord
  2
Standard
 70
     0
340
11
  0
ENDTAB
  0
TABLE
  2
BLOCK_RECORD
  5
1
330
0
100
AcDbSymbolTable
 70
     1
  0
BLOCK_RECORD
  5
1F
330
1
100
AcDbSymbolTableRecord
100
AcDbBlockTableRecord
  2
*Model_Space
340
22
  0
BLOCK_RECORD
  5
1B
330
1
100
AcDbSymbolTableRecord
100
AcDbBlockTableRecord
  2
*Paper_Space
340
1E
  0
BLOCK_RECORD
  5
23
330
1
100
AcDbSymbolTableRecord
100
AcDbBlockTableRecord
  2
*Paper_Space0
340
26
  0
ENDTAB
  0
ENDSEC
  0
SECTION
  2
BLOCKS
  0
BLOCK
  5
20
330
1F
100
AcDbEntity
  8
0
100
AcDbBlockBegin
  2
*Model_Space
 70
     0
 71
     0
 10
0.0
 20
0.0
 30
0.0
  3
*Model_Space
  1

  0
ENDBLK
  5
21
330
1F
100
AcDbEntity
  8
0
100
AcDbBlockEnd
  0
BLOCK
  5
1C
330
1B
100
AcDbEntity
 67
     1
  8
0
100
AcDbBlockBegin
  2
*Paper_Space
 70
     0
 71
     0
 10
0.0
 20
0.0
 30
0.0
  3
*Paper_Space
  1

  0
ENDBLK
  5
1D
330
1B
100
AcDbEntity
 67
     1
  8
0
100
AcDbBlockEnd
  0
BLOCK
  5
24
330
23
100
AcDbEntity
  8
0
100
AcDbBlockBegin
  2
*Paper_Space0
 70
     0
 71
     0
 10
0.0
 20
0.0
 30
0.0
  3
*Paper_Space0
  1

  0
ENDBLK
  5
25
330
23
100
AcDbEntity
  8
0
100
AcDbBlockEnd
  0
ENDSEC
  0
SECTION
  2
ENTITIES
  0
SPLINE
  5
3C
330
1F
100
AcDbEntity
  8
Layer 1
 62
   152
420
    29373
370
    25
100
AcDbSpline
210
0.0
220
0.0
230
1.0
 70
    11
 71
     3
 72
   533
 73
   529
 74
     0
 42
0.0000000001
 43
0.0000000001
 40
0.0
 40
0.0
 40
0.0
 40
0.0
 40
1.0
 40
1.0
 40
1.0
 40
2.0
 40
2.0
 40
2.0
 40
3.0
 40
3.0
 40
3.0
 40
4.0
 40
4.0
 40
4.0
 40
5.0
 40
5.0
 40
5.0
 40
6.0
 40
6.0
 40
6.0
 40
7.0
 40
7.0
 40
7.0
 40
8.0
 40
8.0
 40
8.0
 40
9.0
 40
9.0
 40
9.0
 40
10.0
 40
10.0
 40
10.0
 40
11.0
 40
11.0
 40
11.0
 40
12.0
 40
12.0
 40
12.0
 40
13.0
 40
13.0
 40
13.0
 40
14.0
 40
14.0
 40
14.0
 40
15.0
 40
15.0
 40
15.0
 40
16.0
 40
16.0
 40
16.0
 40
17.0
 40
17.0
 40
17.0
 40
18.0
 40
18.0
 40
18.0
 40
19.0
 40
19.0
 40
19.0
 40
20.0
 40
20.0
 40
20.0
 40
21.0
 40
21.0
 40
21.0
 40
22.0
 40
22.0
 40
22.0
 40
23.0
 40
23.0
 40
23.0
 40
24.0
 40
24.0
 40
24.0
 40
25.0
 40
25.0
 40
25.0
 40
26.0
 40
26.0
 40
26.0
 40
27.0
 40
27.0
 40
27.0
 40
28.0
 40
28.0
 40
28.0
 40
29.0
 40
29.0
 40
29.0
 40
30.0
 40
30.0
 40
30.0
 40
31.0
 40
31.0
 40
31.0
 40
32.0
 40
32.0
 40
32.0
 40
33.0
 40
33.0
 40
33.0
 40
34.0
 40
34.0
 40
34.0
 40
35.0
 40
35.0
 40
35.0
 40
36.0
 40
36.0
 40
36.0
 40
37.0
 40
37.0
 40
37.0
 40
38.0
 40
38.0
 40
38.0
 40
39.0
 40
39.0
 40
39.0
 40
40.0
 40
40.0
 40
40.0
 40
41.0
 40
41.0
 40
41.0
 40
42.0
 40
42.0
 40
42.0
 40
43.0
 40
43.0
 40
43.0
 40
44.0
 40
44.0
 40
44.0
 40
45.0
 40
45.0
 40
45.0
 40
46.0
 40
46.0
 40
46.0
 40
47.0
 40
47.0
 40
47.0
 40
48.0
 40
48.0
 40
48.0
 40
49.0
 40
49.0
 40
49.0
 40
50.0
 40
50.0
 40
50.0
 40
51.0
 40
51.0
 40
51.0
 40
52.0
 40
52.0
 40
52.0
 40
53.0
 40
53.0
 40
53.0
 40
54.0
 40
54.0
 40
54.0
 40
55.0
 40
55.0
 40
55.0
 40
56.0
 40
56.0
 40
56.0
 40
57.0
 40
57.0
 40
57.0
 40
58.0
 40
58.0
 40
58.0
 40
59.0
 40
59.0
 40
59.0
 40
60.0
 40
60.0
 40
60.0
 40
61.0
 40
61.0
 40
61.0
 40
62.0
 40
62.0
 40
62.0
 40
63.0
 40
63.0
 40
63.0
 40
64.0
 40
64.0
 40
64.0
 40
65.0
 40
65.0
 40
65.0
 40
66.0
 40
66.0
 40
66.0
 40
67.0
 40
67.0
 40
67.0
 40
68.0
 40
68.0
 40
68.0
 40
69.0
 40
69.0
 40
69.0
 40
70.0
 40
70.0
 40
70.0
 40
71.0
 40
71.0
 40
71.0
 40
72.0
 40
72.0
 40
72.0
 40
73.0
 40
73.0
 40
73.0
 40
74.0
 40
74.0
 40
74.0
 40
75.0
 40
75.0
 40
75.0
 40
76.0
 40
76.0
 40
76.0
 40
77.0
 40
77.0
 40
77.0
 40
78.0
 40
78.0
 40
78.0
 40
79.0
 40
79.0
 40
79.0
 40
80.0
 40
80.0
 40
80.0
 40
81.0
 40
81.0
 40
81.0
 40
82.0
 40
82.0
 40
82.0
 40
83.0
 40
83.0
 40
83.0
 40
84.0
 40
84.0
 40
84.0
 40
85.0
 40
85.0
 40
85.0
 40
86.0
 40
86.0
 40
86.0
 40
87.0
 40
87.0
 40
87.0
 40
88.0
 40
88.0
 40
88.0
 40
89.0
 40
89.0
 40
89.0
 40
90.0
 40
90.0
 40
90.0
 40
91.0
 40
91.0
 40
91.0
 40
92.0
 40
92.0
 40
92.0
 40
93.0
 40
93.0
 40
93.0
 40
94.0
 40
94.0
 40
94.0
 40
95.0
 40
95.0
 40
95.0
 40
96.0
 40
96.0
 40
96.0
 40
97.0
 40
97.0
 40
97.0
 40
98.0
 40
98.0
 40
98.0
 40
99.0
 40
99.0
 40
99.0
 40
100.0
 40
100.0
 40
100.0
 40
101.0
 40
101.0
 40
101.0
 40
102.0
 40
102.0
 40
102.0
 40
103.0
 40
103.0
 40
103.0
 40
104.0
 40
104.0
 40
104.0
 40
105.0
 40
105.0
 40
105.0
 40
106.0
 40
106.0
 40
106.0
 40
107.0
 40
107.0
 40
107.0
 40
108.0
 40
108.0
 40
108.0
 40
109.0
 40
109.0
 40
109.0
 40
110.0
 40
110.0
 40
110.0
 40
111.0
 40
111.0
 40
111.0
 40
112.0
 40
112.0
 40
112.0
 40
113.0
 40
113.0
 40
113.0
 40
114.0
 40
114.0
 40
114.0
 40
115.0
 40
115.0
 40
115.0
 40
116.0
 40
116.0
 40
116.0
 40
117.0
 40
117.0
 40
117.0
 40
118.0
 40
118.0
 40
118.0
 40
119.0
 40
119.0
 40
119.0
 40
120.0
 40
120.0
 40
120.0
 40
121.0
 40
121.0
 40
121.0
 40
122.0
 40
122.0
 40
122.0
 40
123.0
 40
123.0
 40
123.0
 40
124.0
 40
124.0
 40
124.0
 40
125.0
 40
125.0
 40
125.0
 40
126.0
 40
126.0
 40
126.0
 40
127.0
 40
127.0
 40
127.0
 40
128.0
 40
128.0
 40
128.0
 40
129.0
 40
129.0
 40
129.0
 40
130.0
 40
130.0
 40
130.0
 40
131.0
 40
131.0
 40
131.0
 40
132.0
 40
132.0
 40
132.0
 40
133.0
 40
133.0
 40
133.0
 40
134.0
 40
134.0
 40
134.0
 40
135.0
 40
135.0
 40
135.0
 40
136.0
 40
136.0
 40
136.0
 40
137.0
 40
137.0
 40
137.0
 40
138.0
 40
138.0
 40
138.0
 40
139.0
 40
139.0
 40
139.0
 40
140.0
 40
140.0
 40
140.0
 40
141.0
 40
141.0
 40
141.0
 40
142.0
 40
142.0
 40
142.0
 40
143.0
 40
143.0
 40
143.0
 40
144.0
 40
144.0
 40
144.0
 40
145.0
 40
145.0
 40
145.0
 40
146.0
 40
146.0
 40
146.0
 40
147.0
 40
147.0
 40
147.0
 40
148.0
 40
148.0
 40
148.0
 40
149.0
 40
149.0
 40
149.0
 40
150.0
 40
150.0
 40
150.0
 40
151.0
 40
151.0
 40
151.0
 40
152.0
 40
152.0
 40
152.0
 40
153.0
 40
153.0
 40
153.0
 40
154.0
 40
154.0
 40
154.0
 40
155.0
 40
155.0
 40
155.0
 40
156.0
 40
156.0
 40
156.0
 40
157.0
 40
157.0
 40
157.0
 40
158.0
 40
158.0
 40
158.0
 40
159.0
 40
159.0
 40
159.0
 40
160.0
 40
160.0
 40
160.0
 40
161.0
 40
161.0
 40
161.0
 40
162.0
 40
162.0
 40
162.0
 40
163.0
 40
163.0
 40
163.0
 40
164.0
 40
164.0
 40
164.0
 40
165.0
 40
165.0
 40
165.0
 40
166.0
 40
166.0
 40
166.0
 40
167.0
 40
167.0
 40
167.0
 40
168.0
 40
168.0
 40
168.0
 40
169.0
 40
169.0
 40
169.0
 40
170.0
 40
170.0
 40
170.0
 40
171.0
 40
171.0
 40
171.0
 40
172.0
 40
172.0
 40
172.0
 40
173.0
 40
173.0
 40
173.0
 40
174.0
 40
174.0
 40
174.0
 40
175.0
 40
175.0
 40
175.0
 40
176.0
 40
176.0
 40
176.0
 40
176.0
 10
69.86912026248064
 20
159.780600274725
 30
0.0
 10
69.70237764099454
 20
160.0506957607686
 30
0.0
 10
69.51651473956532
 20
160.308905667388
 30
0.0
 10
69.31359861548411
 20
160.552990682518
 30
0.0
 10
69.31359861548411
 20
160.552990682518
 30
0.0
 10
68.67315536477616
 20
160.4635904546758
 30
0.0
 10
68.67315536477616
 20
160.4635904546758
 30
0.0
 10
68.4097778149288
 20
159.7880072300183
 30
0.0
 10
68.28954398249358
 20
159.0631591399217
 30
0.0
 10
68.32244464437773
 20
158.3417561453104
 30
0.0
 10
68.02186006328968
 20
158.2697536496687
 30
0.0
 10
67.72334253949278
 20
158.1896551796366
 30
0.0
 10
67.42706432776129
 20
158.1016329899885
 30
0.0
 10
67.42706432776129
 20
158.1016329899885
 30
0.0
 10
67.42706432776129
 20
158.1016329899885
 30
0.0
 10
67.42706432776129
 20
158.1016329899885
 30
0.0
 10
67.09943574711403
 20
158.7353583045002
 30
0.0
 10
66.64003226415596
 20
159.2970811233702
 30
0.0
 10
66.08261581464254
 20
159.7468383389696
 30
0.0
 10
66.08261581464254
 20
159.7468383389696
 30
0.0
 10
65.46749401575119
 20
159.5473673103736
 30
0.0
 10
65.46749401575119
 20
159.5473673103736
 30
0.0
 10
65.32521157221036
 20
158.8364718569923
 30
0.0
 10
65.33279078227791
 20
158.1016329899885
 30
0.0
 10
65.49057615550235
 20
157.3969387084806
 30
0.0
 10
65.2070447970663
 20
157.2739487996572
 30
0.0
 10
64.92678627934123
 20
157.143207425992
 30
0.0
 10
64.65031736664993
 20
157.0050590970335
 30
0.0
 10
64.65031736664993
 20
157.0050590970335
 30
0.0
 10
64.65031736664993
 20
157.0050590970335
 30
0.0
 10
64.65031736664993
 20
157.0050590970335
 30
0.0
 10
64.21761337370255
 20
157.5722940686798
 30
0.0
 10
63.66760387948241
 20
158.0456501883532
 30
0.0
 10
63.04059650116694
 20
158.3917100298465
 30
0.0
 10
63.04059650116694
 20
158.3917100298465
 30
0.0
 10
62.46939966971252
 20
158.0885416271445
 30
0.0
 10
62.46939966971252
 20
158.0885416271445
 30
0.0
 10
62.45286321138332
 20
157.363693537048
 30
0.0
 10
62.58791095440511
 20
156.6414292685653
 30
0.0
 10
62.86558565051624
 20
155.9748032921695
 30
0.0
 10
62.60772025344529
 20
155.8044433204239
 30
0.0
 10
62.35450573527943
 20
155.6270209029335
 30
0.0
 10
62.10611435079292
 20
155.4428805492469
 30
0.0
 10
62.10611435079292
 20
155.4428805492469
 30
0.0
 10
62.10611435079292
 20
155.4428805492469
 30
0.0
 10
62.10611435079292
 20
155.4428805492469
 30
0.0
 10
61.58159856316363
 20
155.9263997006017
 30
0.0
 10
60.95769177078488
 20
156.2970919748146
 30
0.0
 10
60.2802137436105
 20
156.5289469009719
 30
0.0
 10
60.2802137436105
 20
156.5289469009719
 30
0.0
 10
59.77033961179353
 20
156.1312106271998
 30
0.0
 10
59.77033961179353
 20
156.1312106271998
 30
0.0
 10
59.87989364822447
 20
155.4144585114936
 30
0.0
 10
60.13827580961821
 20
154.7266451978635
 30
0.0
 10
60.52757159945144
 20
154.1184135899426
 30
0.0
 10
60.30329588336168
 20
153.9056789437284
 30
0.0
 10
60.08470457482257
 20
153.6870876351894
 30
0.0
 10
59.8719699286084
 20
153.4628119190996
 30
0.0
 10
59.8719699286084
 20
153.4628119190996
 30
0.0
 10
59.8719699286084
 20
153.4628119190996
 30
0.0
 10
59.8719699286084
 20
153.4628119190996
 30
0.0
 10
59.27148978552935
 20
153.8478013395763
 30
0.0
 10
58.59263372016087
 20
154.1044609532274
 30
0.0
 10
57.88518336226482
 20
154.2152207730782
 30
0.0
 10
57.88518336226482
 20
154.2152207730782
 30
0.0
 10
57.45213485976891
 20
153.7349744624343
 30
0.0
 10
57.45213485976891
 20
153.7349744624343
 30
0.0
 10
57.68450655024901
 20
153.0481946774498
 30
0.0
 10
58.05829941039863
 20
152.4155028915836
 30
0.0
 10
58.54733071452983
 20
151.8840969129838
 30
0.0
 10
58.36319036084323
 20
151.6358777832716
 30
0.0
 10
58.18594019812713
 20
151.3824910103315
 30
0.0
 10
58.01558022638152
 20
151.1246256132605
 30
0.0
 10
58.01558022638152
 20
151.1246256132605
 30
0.0
 10
58.01558022638152
 20
151.1246256132605
 30
0.0
 10
58.01558022638152
 20
151.1246256132605
 30
0.0
 10
57.35739473392454
 20
151.3995442329835
 30
0.0
 10
56.64425996847783
 20
151.5345919760053
 30
0.0
 10
55.92819687186865
 20
151.52063933929
 30
0.0
 10
55.92819687186865
 20
151.52063933929
 30
0.0
 10
55.58523761631203
 20
150.9725246475867
 30
0.0
 10
55.58523761631203
 20
150.9725246475867
 30
0.0
 10
55.93336451509652
 20
150.3365600210096
 30
0.0
 10
56.41137151367494
 20
149.7784545523992
 30
0.0
 10
56.9851521667433
 20
149.3400661519011
 30
0.0
 10
56.84700383778478
 20
149.0635972392098
 30
0.0
 10
56.71643471889381
 20
148.7833387214847
 30
0.0
 10
56.59344481007039
 20
148.4998073630487
 30
0.0
 10
56.59344481007039
 20
148.4998073630487
 30
0.0
 10
56.59344481007039
 20
148.4998073630487
 30
0.0
 10
56.59344481007039
 20
148.4998073630487
 30
0.0
 10
55.89736326727567
 20
148.656214698079
 30
0.0
 10
55.17182615808205
 20
148.6651719463406
 30
0.0
 10
54.46902667909108
 20
148.5273681269307
 30
0.0
 10
54.46902667909108
 20
148.5273681269307
 30
0.0
 10
54.22631970215523
 20
147.9279215124972
 30
0.0
 10
54.22631970215523
 20
147.9279215124972
 30
0.0
 10
54.67952201323985
 20
147.3618923242707
 30
0.0
 10
55.24727374920901
 20
146.8954263955678
 30
0.0
 10
55.88857827378828
 20
146.5633191907897
 30
0.0
 10
55.80055608414014
 20
146.2670409790582
 30
0.0
 10
55.72045761410808
 20
145.9683512004871
 30
0.0
 10
55.64862737324062
 20
145.667766619399
 30
0.0
 10
55.64862737324062
 20
145.667766619399
 30
0.0
 10
55.64862737324062
 20
145.667766619399
 30
0.0
 10
55.64862737324062
 20
145.667766619399
 30
0.0
 10
54.93600937211669
 20
145.7008395360574
 30
0.0
 10
54.21994627550752
 20
145.5838785443332
 30
0.0
 10
53.55177000614331
 20
145.3260131472622
 30
0.0
 10
53.55177000614331
 20
145.3260131472622
 30
0.0
 10
53.41689451789578
 20
144.6936658709446
 30
0.0
 10
53.41689451789578
 20
144.6936658709446
 30
0.0
 10
53.96139185933951
 20
144.2149698532692
 30
0.0
 10
54.60149060049893
 20
143.8540961011893
 30
0.0
 10
55.29068195232316
 20
143.6382608690384
 30
0.0
 10
55.25554197837361
 20
143.3313028613026
 30
0.0
 10
55.22867023358867
 20
143.0233113249213
 30
0.0
 10
55.20989446319405
 20
142.7148030242171
 30
0.0
 10
54.502444105298
 20
142.6236802486323
 30
0.0
 10
53.81755912283033
 20
142.3839016028589
 30
0.0
 10
53.20433212645587
 20
142.0140706025173
 30
0.0
 10
53.20433212645587
 20
142.0140706025173
 30
0.0
 10
53.18124998670469
 20
141.3677706894844
 30
0.0
 10
53.18124998670469
 20
141.3677706894844
 30
0.0
 10
53.80067815495261
 20
140.9910494981724
 30
0.0
 10
54.49365911181062
 20
140.7467922282682
 30
0.0
 10
55.20989446319405
 20
140.6539469049407
 30
0.0
 10
55.2284979788144
 20
140.3454386042366
 30
0.0
 10
55.25554197837361
 20
140.0374470678552
 30
0.0
 10
55.29085420709742
 20
139.7303168053452
 30
0.0
 10
55.29085420709742
 20
139.7303168053452
 30
0.0
 10
55.29068195232316
 20
139.7303168053452
 30
0.0
 10
55.29068195232316
 20
139.7303168053452
 30
0.0
 10
54.60975882966353
 20
139.5179266686796
 30
0.0
 10
53.97672253424888
 20
139.1629095789246
 30
0.0
 10
53.43722058125875
 20
138.6919650260909
 30
0.0
 10
53.43722058125875
 20
138.6919650260909
 30
0.0
 10
53.52679306387525
 20
138.051521775383
 30
0.0
 10
53.52679306387525
 20
138.051521775383
 30
0.0
 10
54.20237628853274
 20
137.7883164803099
 30
0.0
 10
54.9272243786293
 20
137.6680826478747
 30
0.0
 10
55.64862737324062
 20
137.7008110549845
 30
0.0
 10
55.72045761410808
 20
137.4003987286708
 30
0.0
 10
55.80055608414014
 20
137.1017089500996
 30
0.0
 10
55.88857827378828
 20
136.8054307383681
 30
0.0
 10
55.88857827378828
 20
136.8054307383681
 30
0.0
 10
55.88857827378828
 20
136.8054307383681
 30
0.0
 10
55.88857827378828
 20
136.8054307383681
 30
0.0
 10
55.25485295927657
 20
136.4778021577208
 30
0.0
 10
54.69330239518084
 20
136.018570929537
 30
0.0
 10
54.24354517958147
 20
135.4611544800236
 30
0.0
 10
54.24354517958147
 20
135.4611544800236
 30
0.0
 10
54.44284395340318
 20
134.845860426358
 30
0.0
 10
54.44284395340318
 20
134.845860426358
 30
0.0
 10
55.15391166155874
 20
134.7035779828172
 30
0.0
 10
55.88857827378828
 20
134.7111571928847
 30
0.0
 10
56.59344481007039
 20
134.8689425661092
 30
0.0
 10
56.71643471889381
 20
134.5854112076731
 30
0.0
 10
56.84700383778478
 20
134.3053249447223
 30
0.0
 10
56.9851521667433
 20
134.0286837772567
 30
0.0
 10
56.9851521667433
 20
134.0286837772567
 30
0.0
 10
56.9851521667433
 20
134.0286837772567
 30
0.0
 10
56.9851521667433
 20
134.0286837772567
 30
0.0
 10
56.41808944987118
 20
133.5959797843093
 30
0.0
 10
55.94473333019785
 20
133.0461425448635
 30
0.0
 10
55.59850123393024
 20
132.419135166548
 30
0.0
 10
55.59850123393024
 20
132.419135166548
 30
0.0
 10
55.90166963663222
 20
131.8479383350936
 30
0.0
 10
55.90166963663222
 20
131.8479383350936
 30
0.0
 10
56.62651772672879
 20
131.8314018767644
 30
0.0
 10
57.34895424998568
 20
131.9664496197862
 30
0.0
 10
58.01558022638152
 20
132.2441243158973
 30
0.0
 10
58.18594019812713
 20
131.9860866640521
 30
0.0
 10
58.3633626156175
 20
131.7328721458862
 30
0.0
 10
58.54733071452983
 20
131.4844807613997
 30
0.0
 10
58.54733071452983
 20
131.4844807613997
 30
0.0
 10
58.54733071452983
 20
131.4844807613997
 30
0.0
 10
58.54733071452983
 20
131.4844807613997
 30
0.0
 10
58.06381156317502
 20
130.9601372285447
 30
0.0
 10
57.69311928896214
 20
130.3362304361659
 30
0.0
 10
57.46126436280483
 20
129.6585801542173
 30
0.0
 10
57.46126436280483
 20
129.6585801542173
 30
0.0
 10
57.85900063657692
 20
129.1487060224003
 30
0.0
 10
57.85900063657692
 20
129.1487060224003
 30
0.0
 10
58.57575275228315
 20
129.2582600588313
 30
0.0
 10
59.26356606591328
 20
129.516642220225
 30
0.0
 10
59.8719699286084
 20
129.9059380100582
 30
0.0
 10
60.08470457482257
 20
129.6816622939685
 30
0.0
 10
60.30329588336168
 20
129.4628987306551
 30
0.0
 10
60.52757159945144
 20
129.2503363392152
 30
0.0
 10
60.14258217897478
 20
128.6498561961361
 30
0.0
 10
59.8857503105494
 20
127.9711723855419
 30
0.0
 10
59.77499049069861
 20
127.2635497728716
 30
0.0
 10
59.77499049069861
 20
127.2635497728716
 30
0.0
 10
60.25523680134244
 20
126.8305012703757
 30
0.0
 10
60.25523680134244
 20
126.8305012703757
 30
0.0
 10
60.942016586327
 20
127.0627007060816
 30
0.0
 10
61.57453611741887
 20
127.4368380757797
 30
0.0
 10
62.10611435079292
 20
127.9256971251366
 30
0.0
 10
62.35450573527943
 20
127.7417290262243
 30
0.0
 10
62.60772025344529
 20
127.5643066087339
 30
0.0
 10
62.86558565051624
 20
127.3941188917626
 30
0.0
 10
62.86558565051624
 20
127.3941188917626
 30
0.0
 10
62.86558565051624
 20
127.3941188917626
 30
0.0
 10
62.86558565051624
 20
127.3941188917626
 30
0.0
 10
62.59083928556757
 20
126.7357611445313
 30
0.0
 10
62.45579154254578
 20
126.0226263790846
 30
0.0
 10
62.46957192448678
 20
125.3067355372497
 30
0.0
 10
62.46957192448678
 20
125.3067355372497
 30
0.0
 10
63.01768661619003
 20
124.9636040269188
 30
0.0
 10
63.01768661619003
 20
124.9636040269188
 30
0.0
 10
63.65382349754141
 20
125.3119031804776
 30
0.0
 10
64.21175671137762
 20
125.7897379242817
 30
0.0
 10
64.65031736664993
 20
126.3636908321244
 30
0.0
 10
64.92678627934123
 20
126.2255425031658
 30
0.0
 10
65.2070447970663
 20
126.0946288747264
 30
0.0
 10
65.49057615550235
 20
125.9719834754515
 30
0.0
 10
65.33416882047202
 20
125.276074187431
 30
0.0
 10
65.32503931743611
 20
124.5501925686888
 30
0.0
 10
65.46301539162036
 20
123.8473930896979
 30
0.0
 10
65.46301539162036
 20
123.8473930896979
 30
0.0
 10
66.06246200605383
 20
123.6048583675363
 30
0.0
 10
66.06246200605383
 20
123.6048583675363
 30
0.0
 10
66.62831893950612
 20
124.0582329333952
 30
0.0
 10
67.0949571229832
 20
124.6259846693643
 30
0.0
 10
67.42706432776129
 20
125.2671169391693
 30
0.0
 10
67.42706432776129
 20
125.2671169391693
 30
0.0
 10
67.43085393279507
 20
125.2657389009752
 30
0.0
 10
67.43085393279507
 20
125.2657389009752
 30
0.0
 10
67.72592636110672
 20
125.1782334756499
 30
0.0
 10
68.02323810148377
 20
125.0986517699406
 30
0.0
 10
68.32244464437773
 20
125.0269937838474
 30
0.0
 10
68.28937172771933
 20
124.3145480374978
 30
0.0
 10
68.40650497421782
 20
123.5983126861143
 30
0.0
 10
68.66419811651451
 20
122.9303086715244
 30
0.0
 10
68.66419811651451
 20
122.9303086715244
 30
0.0
 10
69.29671764760639
 20
122.7952609285026
 30
0.0
 10
69.29671764760639
 20
122.7952609285026
 30
0.0
 10
69.77524141050758
 20
123.3399305247206
 30
0.0
 10
70.1361151625875
 20
123.98002926588
 30
0.0
 10
70.35195039473841
 20
124.66904836293
 30
0.0
 10
70.65908065724842
 20
124.6339083889804
 30
0.0
 10
70.96707219362976
 20
124.6070366441955
 30
0.0
 10
71.27558049433388
 20
124.5884331285751
 30
0.0
 10
71.36670326991874
 20
123.8808105159048
 30
0.0
 10
71.60630966091787
 20
123.1959255334371
 30
0.0
 10
71.9763129160337
 20
122.5826985370627
 30
0.0
 10
71.9763129160337
 20
122.5826985370627
 30
0.0
 10
72.62244057429231
 20
122.5596163973115
 30
0.0
 10
72.62244057429231
 20
122.5596163973115
 30
0.0
 10
72.99933402037864
 20
123.1790445655594
 30
0.0
 10
73.2434190355086
 20
123.8721977771917
 30
0.0
 10
73.33626435883608
 20
124.5884331285751
 30
0.0
 10
73.6447726595402
 20
124.6070366441955
 30
0.0
 10
73.95276419592153
 20
124.6339083889804
 30
0.0
 10
74.25989445843156
 20
124.66904836293
 30
0.0
 10
74.25989445843156
 20
124.66904836293
 30
0.0
 10
74.25989445843156
 20
124.66904836293
 30
0.0
 10
74.25989445843156
 20
124.66904836293
 30
0.0
 10
74.47262910464573
 20
123.9882974950446
 30
0.0
 10
74.82747393962647
 20
123.3550889448557
 30
0.0
 10
75.29824623768586
 20
122.8155869918656
 30
0.0
 10
75.29824623768586
 20
122.8155869918656
 30
0.0
 10
75.9386894883938
 20
122.905159474482
 30
0.0
 10
75.9386894883938
 20
122.905159474482
 30
0.0
 10
76.20223929301541
 20
123.5807426991395
 30
0.0
 10
76.32230087067637
 20
124.3055907892361
 30
0.0
 10
76.28922795401797
 20
125.0269937838474
 30
0.0
 10
76.58981253510602
 20
125.0989962794891
 30
0.0
 10
76.88850231367718
 20
125.1789224947469
 30
0.0
 10
77.18478052540867
 20
125.2671169391693
 30
0.0
 10
77.18478052540867
 20
125.2671169391693
 30
0.0
 10
77.18478052540867
 20
125.2671169391693
 30
0.0
 10
77.18478052540867
 20
125.2671169391693
 30
0.0
 10
77.51223685128167
 20
124.6335638794319
 30
0.0
 10
77.971812589014
 20
124.0716688057876
 30
0.0
 10
78.52922903852742
 20
123.6220838449625
 30
0.0
 10
78.52922903852742
 20
123.6220838449625
 30
0.0
 10
79.14435083741877
 20
123.82121036401
 30
0.0
 10
79.14435083741877
 20
123.82121036401
 30
0.0
 10
79.28663328095959
 20
124.5322780721656
 30
0.0
 10
79.27905407089204
 20
125.2671169391693
 30
0.0
 10
79.1212686976676
 20
125.9719834754515
 30
0.0
 10
79.40480005610367
 20
126.0949733842749
 30
0.0
 10
79.68505857382874
 20
126.2255425031658
 30
0.0
 10
79.96152748652004
 20
126.3636908321244
 30
0.0
 10
79.96152748652004
 20
126.3636908321244
 30
0.0
 10
79.96152748652004
 20
126.3636908321244
 30
0.0
 10
79.96152748652004
 20
126.3636908321244
 30
0.0
 10
80.39423147946742
 20
125.7966281152522
 30
0.0
 10
80.94424097368756
 20
125.3232719955789
 30
0.0
 10
81.57124835200302
 20
124.9770398993113
 30
0.0
 10
81.57124835200302
 20
124.9770398993113
 30
0.0
 10
82.14244518345745
 20
125.2802083020133
 30
0.0
 10
82.14244518345745
 20
125.2802083020133
 30
0.0
 10
82.15898164178665
 20
126.0050563921099
 30
0.0
 10
82.02393389876485
 20
126.7274929153667
 30
0.0
 10
81.74625920265372
 20
127.3941188917626
 30
0.0
 10
82.00412459972466
 20
127.5643066087339
 30
0.0
 10
82.25733911789052
 20
127.7417290262243
 30
0.0
 10
82.50573050237705
 20
127.9256971251366
 30
0.0
 10
82.50573050237705
 20
127.9256971251366
 30
0.0
 10
82.50573050237705
 20
127.9256971251366
 30
0.0
 10
82.50573050237705
 20
127.9256971251366
 30
0.0
 10
83.03024629000633
 20
127.4423502285561
 30
0.0
 10
83.65415308238508
 20
127.0716579543432
 30
0.0
 10
84.33163110955945
 20
126.8398030281859
 30
0.0
 10
84.33163110955945
 20
126.8398030281859
 30
0.0
 10
84.84150524137644
 20
127.2373670471837
 30
0.0
 10
84.84150524137644
 20
127.2373670471837
 30
0.0
 10
84.73195120494549
 20
127.9542914176642
 30
0.0
 10
84.47356904355175
 20
128.6419324765201
 30
0.0
 10
84.08427325371852
 20
129.2503363392152
 30
0.0
 10
84.30854896980829
 20
129.4628987306551
 30
0.0
 10
84.52731253312164
 20
129.6816622939685
 30
0.0
 10
84.73987492456156
 20
129.9059380100582
 30
0.0
 10
84.73987492456156
 20
129.9059380100582
 30
0.0
 10
84.73987492456156
 20
129.9059380100582
 30
0.0
 10
84.73987492456156
 20
129.9059380100582
 30
0.0
 10
85.34035506764062
 20
129.5211208443558
 30
0.0
 10
86.0192111330091
 20
129.2644612307047
 30
0.0
 10
86.72666149090514
 20
129.1535291560797
 30
0.0
 10
86.72666149090514
 20
129.1535291560797
 30
0.0
 10
87.15970999340105
 20
129.6337754667235
 30
0.0
 10
87.15970999340105
 20
129.6337754667235
 30
0.0
 10
86.92751055769521
 20
130.3207275064823
 30
0.0
 10
86.55354544277134
 20
130.9532470375742
 30
0.0
 10
86.06451413864012
 20
131.4844807613997
 30
0.0
 10
86.24848223755247
 20
131.7328721458862
 30
0.0
 10
86.42590465504283
 20
131.9860866640521
 30
0.0
 10
86.59626462678844
 20
132.2441243158973
 30
0.0
 10
86.59626462678844
 20
132.2441243158973
 30
0.0
 10
86.59626462678844
 20
132.2441243158973
 30
0.0
 10
86.59626462678844
 20
132.2441243158973
 30
0.0
 10
87.25445011924542
 20
131.9692056961744
 30
0.0
 10
87.96758488469213
 20
131.8341579531526
 30
0.0
 10
88.68364798130132
 20
131.8479383350936
 30
0.0
 10
88.68364798130132
 20
131.8479383350936
 30
0.0
 10
89.02660723685794
 20
132.3960530267968
 30
0.0
 10
89.02660723685794
 20
132.3960530267968
 30
0.0
 10
88.6786525928477
 20
133.0320176533739
 30
0.0
 10
88.20047333949502
 20
133.5901231219844
 30
0.0
 10
87.62669268642667
 20
134.0286837772567
 30
0.0
 10
87.76484101538519
 20
134.3053249447223
 30
0.0
 10
87.89541013427615
 20
134.5854112076731
 30
0.0
 10
88.01840004309958
 20
134.8689425661092
 30
0.0
 10
88.01840004309958
 20
134.8689425661092
 30
0.0
 10
88.01840004309958
 20
134.8689425661092
 30
0.0
 10
88.01840004309958
 20
134.8689425661092
 30
0.0
 10
88.7144815858943
 20
134.7125352310788
 30
0.0
 10
89.44001869508791
 20
134.7035779828172
 30
0.0
 10
90.14281817407888
 20
134.8413818022271
 30
0.0
 10
90.14281817407888
 20
134.8413818022271
 30
0.0
 10
90.38552515101473
 20
135.4408284166606
 30
0.0
 10
90.38552515101473
 20
135.4408284166606
 30
0.0
 10
89.93215058515585
 20
136.0068576048872
 30
0.0
 10
89.36457110396094
 20
136.47332353359
 30
0.0
 10
88.72326657938169
 20
136.8054307383681
 30
0.0
 10
88.81128876902982
 20
137.1017089500996
 30
0.0
 10
88.89121498428761
 20
137.4003987286708
 30
0.0
 10
88.96321747992934
 20
137.7008110549845
 30
0.0
 10
88.96321747992934
 20
137.7008110549845
 30
0.0
 10
88.96321747992934
 20
137.7008110549845
 30
0.0
 10
88.96321747992934
 20
137.7008110549845
 30
0.0
 10
89.67583548105327
 20
137.6677381383261
 30
0.0
 10
90.39189857766245
 20
137.7848713848246
 30
0.0
 10
91.06007484702666
 20
138.0425645271213
 30
0.0
 10
91.06007484702666
 20
138.0425645271213
 30
0.0
 10
91.19495033527419
 20
138.6750840582132
 30
0.0
 10
91.19495033527419
 20
138.6750840582132
 30
0.0
 10
90.65045299383044
 20
139.1539523306629
 30
0.0
 10
90.01018199789677
 20
139.5146538279686
 30
0.0
 10
89.32099064607253
 20
139.7303168053452
 30
0.0
 10
89.35630287479634
 20
140.0374470678552
 30
0.0
 10
89.38334687435555
 20
140.3454386042366
 30
0.0
 10
89.40195038997591
 20
140.6539469049407
 30
0.0
 10
89.40195038997591
 20
140.6539469049407
 30
0.0
 10
89.40195038997591
 20
140.6539469049407
 30
0.0
 10
89.40195038997591
 20
140.6539469049407
 30
0.0
 10
90.10940074787196
 20
140.7450696805255
 30
0.0
 10
90.79428573033962
 20
140.9848483262989
 30
0.0
 10
91.4075127267141
 20
141.3546793266405
 30
0.0
 10
91.4075127267141
 20
141.3546793266405
 30
0.0
 10
91.43059486646527
 20
142.0009792396734
 30
0.0
 10
91.43059486646527
 20
142.0009792396734
 30
0.0
 10
90.81116669821735
 20
142.3777004309854
 30
0.0
 10
90.11818574135934
 20
142.6219577008897
 30
0.0
 10
89.40195038997591
 20
142.7148030242171
 30
0.0
 10
89.38334687435555
 20
143.0233113249213
 30
0.0
 10
89.35630287479634
 20
143.3313028613026
 30
0.0
 10
89.32099064607253
 20
143.6382608690384
 30
0.0
 10
89.32099064607253
 20
143.6382608690384
 30
0.0
 10
89.32099064607253
 20
143.6382608690384
 30
0.0
 10
89.32099064607253
 20
143.6382608690384
 30
0.0
 10
90.00191376873217
 20
143.8508232604783
 30
0.0
 10
90.63495006414682
 20
144.2058403502333
 30
0.0
 10
91.17462427191121
 20
144.6766126482927
 30
0.0
 10
91.17462427191121
 20
144.6766126482927
 30
0.0
 10
91.08505178929471
 20
145.3170558990006
 30
0.0
 10
91.08505178929471
 20
145.3170558990006
 30
0.0
 10
90.40964081941148
 20
145.5806057036222
 30
0.0
 10
89.68462047454065
 20
145.7006672812832
 30
0.0
 10
88.96321747992934
 20
145.667766619399
 30
0.0
 10
88.89138723906188
 20
145.9683512004871
 30
0.0
 10
88.81128876902982
 20
146.2670409790582
 30
0.0
 10
88.72326657938169
 20
146.5633191907897
 30
0.0
 10
88.72326657938169
 20
146.5633191907897
 30
0.0
 10
88.72326657938169
 20
146.5633191907897
 30
0.0
 10
88.72326657938169
 20
146.5633191907897
 30
0.0
 10
89.3569918938934
 20
146.8907755166627
 30
0.0
 10
89.91871471276338
 20
147.3503512543951
 30
0.0
 10
90.36829967358848
 20
147.9077677039085
 30
0.0
 10
90.36829967358848
 20
147.9077677039085
 30
0.0
 10
90.16900089976679
 20
148.5228895027998
 30
0.0
 10
90.16900089976679
 20
148.5228895027998
 30
0.0
 10
89.45793319161122
 20
148.6649996915664
 30
0.0
 10
88.72326657938169
 20
148.6575927362731
 30
0.0
 10
88.01840004309958
 20
148.4998073630487
 30
0.0
 10
87.89541013427615
 20
148.7833387214847
 30
0.0
 10
87.76484101538519
 20
149.0635972392098
 30
0.0
 10
87.62669268642667
 20
149.3400661519011
 30
0.0
 10
87.62669268642667
 20
149.3400661519011
 30
0.0
 10
87.62669268642667
 20
149.3400661519011
 30
0.0
 10
87.62669268642667
 20
149.3400661519011
 30
0.0
 10
88.19375540329878
 20
149.7727701448485
 30
0.0
 10
88.66711152297212
 20
150.3227796390686
 30
0.0
 10
89.01334361923972
 20
150.9496147626098
 30
0.0
 10
89.01334361923972
 20
150.9496147626098
 30
0.0
 10
88.71017521653773
 20
151.5208115940642
 30
0.0
 10
88.71017521653773
 20
151.5208115940642
 30
0.0
 10
87.98532712644118
 20
151.5375203071677
 30
0.0
 10
87.26289060318427
 20
151.4024725641459
 30
0.0
 10
86.59626462678844
 20
151.1246256132605
 30
0.0
 10
86.42590465504283
 20
151.3824910103315
 30
0.0
 10
86.24865449232674
 20
151.6358777832716
 30
0.0
 10
86.06451413864012
 20
151.8840969129838
 30
0.0
 10
86.06451413864012
 20
151.8840969129838
 30
0.0
 10
86.06451413864012
 20
151.8840969129838
 30
0.0
 10
86.06451413864012
 20
151.8840969129838
 30
0.0
 10
86.54786103522068
 20
152.4087849553874
 30
0.0
 10
86.91855330943356
 20
153.0325194929919
 30
0.0
 10
87.15058049036513
 20
153.7101697749405
 30
0.0
 10
87.15058049036513
 20
153.7101697749405
 30
0.0
 10
86.75284421659305
 20
154.2200439067575
 30
0.0
 10
86.75284421659305
 20
154.2200439067575
 30
0.0
 10
86.03609210088682
 20
154.1104898703265
 30
0.0
 10
85.34827878725669
 20
153.8521077089328
 30
0.0
 10
84.73987492456156
 20
153.4628119190996
 30
0.0
 10
84.52731253312164
 20
153.6870876351894
 30
0.0
 10
84.30872122458254
 20
153.9058511985027
 30
0.0
 10
84.08427325371852
 20
154.1184135899426
 30
0.0
 10
84.08427325371852
 20
154.1184135899426
 30
0.0
 10
84.08427325371852
 20
154.1184135899426
 30
0.0
 10
84.08427325371852
 20
154.1184135899426
 30
0.0
 10
84.46926267419519
 20
154.7188937330217
 30
0.0
 10
84.72609454262056
 20
155.3977497983902
 30
0.0
 10
84.83685436247134
 20
156.1052001562862
 30
0.0
 10
84.83685436247134
 20
156.1052001562862
 30
0.0
 10
84.35643579705325
 20
156.5382486587821
 30
0.0
 10
84.35643579705325
 20
156.5382486587821
 30
0.0
 10
83.6696560120687
 20
156.305876968302
 30
0.0
 10
83.03713648097683
 20
155.9319118533782
 30
0.0
 10
82.50573050237705
 20
155.4428805492469
 30
0.0
 10
82.2575113726648
 20
155.6270209029335
 30
0.0
 10
82.00412459972466
 20
155.8042710656496
 30
0.0
 10
81.74625920265372
 20
155.9746310373952
 30
0.0
 10
81.74625920265372
 20
155.9746310373952
 30
0.0
 10
81.74625920265372
 20
155.9748032921695
 30
0.0
 10
81.74625920265372
 20
155.9748032921695
 30
0.0
 10
82.02117782237666
 20
156.6329887846265
 30
0.0
 10
82.15605331062419
 20
157.3459512952989
 30
0.0
 10
82.14227292868318
 20
158.0620143919081
 30
0.0
 10
82.14227292868318
 20
158.0620143919081
 30
0.0
 10
81.59415823697994
 20
158.405145902239
 30
0.0
 10
81.59415823697994
 20
158.405145902239
 30
0.0
 10
80.95802135562856
 20
158.0570190034545
 30
0.0
 10
80.40008814179234
 20
157.5790120048761
 30
0.0
 10
79.96152748652004
 20
157.0050590970335
 30
0.0
 10
79.68505857382874
 20
157.143207425992
 30
0.0
 10
79.40480005610367
 20
157.2739487996572
 30
0.0
 10
79.1212686976676
 20
157.3969387084806
 30
0.0
 10
79.1212686976676
 20
157.3969387084806
 30
0.0
 10
79.1212686976676
 20
157.3969387084806
 30
0.0
 10
79.1212686976676
 20
157.3969387084806
 30
0.0
 10
79.27767603269794
 20
158.0928479965011
 30
0.0
 10
79.28680553573386
 20
158.818557360469
 30
0.0
 10
79.1488294615496
 20
159.5213568394599
 30
0.0
 10
79.1488294615496
 20
159.5213568394599
 30
0.0
 10
78.54955510189039
 20
159.7638915616215
 30
0.0
 10
78.54955510189039
 20
159.7638915616215
 30
0.0
 10
77.98352591366384
 20
159.3106892505369
 30
0.0
 10
77.51688773018675
 20
158.7429375145678
 30
0.0
 10
77.18478052540867
 20
158.1016329899885
 30
0.0
 10
76.88850231367718
 20
158.1898274344109
 30
0.0
 10
76.58981253510602
 20
158.2699259044429
 30
0.0
 10
76.28922795401797
 20
158.3417561453104
 30
0.0
 10
76.28922795401797
 20
158.3417561453104
 30
0.0
 10
76.28922795401797
 20
158.3417561453104
 30
0.0
 10
76.28922795401797
 20
158.3417561453104
 30
0.0
 10
76.32247312545063
 20
159.0542018916601
 30
0.0
 10
76.2055121337264
 20
159.7704372430435
 30
0.0
 10
75.94764673665546
 20
160.4386135124077
 30
0.0
 10
75.94764673665546
 20
160.4386135124077
 30
0.0
 10
75.31512720556358
 20
160.5734890006553
 30
0.0
 10
75.31512720556358
 20
160.5734890006553
 30
0.0
 10
74.83643118788812
 20
160.0288194044373
 30
0.0
 10
74.47572969058245
 20
159.3887206632778
 30
0.0
 10
74.25989445843156
 20
158.6995293114536
 30
0.0
 10
73.95276419592153
 20
158.7348415401774
 30
0.0
 10
73.6447726595402
 20
158.7617132849624
 30
0.0
 10
73.33626435883608
 20
158.7803168005827
 30
0.0
 10
73.24514158325121
 20
159.4877671584788
 30
0.0
 10
73.0055351922521
 20
160.1728243957207
 30
0.0
 10
72.63553193713626
 20
160.7860513920952
 30
0.0
 10
72.63553193713626
 20
160.7860513920952
 30
0.0
 10
71.98940427887766
 20
160.8091335318463
 30
0.0
 10
71.98940427887766
 20
160.8091335318463
 30
0.0
 10
71.61251083279132
 20
160.1895331088242
 30
0.0
 10
71.36842581766138
 20
159.4965521519661
 30
0.0
 10
71.27558049433388
 20
158.7803168005827
 30
0.0
 10
70.96707219362976
 20
158.7617132849624
 30
0.0
 10
70.65908065724842
 20
158.7348415401774
 30
0.0
 10
70.35195039473841
 20
158.6995293114536
 30
0.0
 10
70.35195039473841
 20
158.6995293114536
 30
0.0
 10
70.35195039473841
 20
158.6995293114536
 30
0.0
 10
70.35195039473841
 20
158.6995293114536
 30
0.0
 10
70.2458414537927
 20
159.081073636445
 30
0.0
 10
70.08271618256613
 20
159.4462537578815
 30
0.0
 10
69.86912026248064
 20
159.780600274725
 30
0.0
  0
SPLINE
  5
3D
330
1F
100
AcDbEntity
  8
Layer 1
 62
    32
420
 14242585
370
    25
100
AcDbSpline
210
0.0
220
0.0
230
1.0
 70
    11
 71
     3
 72
   428
 73
   424
 74
     0
 42
0.0000000001
 43
0.0000000001
 40
0.0
 40
0.0
 40
0.0
 40
0.0
 40
1.0
 40
1.0
 40
1.0
 40
2.0
 40
2.0
 40
2.0
 40
3.0
 40
3.0
 40
3.0
 40
4.0
 40
4.0
 40
4.0
 40
5.0
 40
5.0
 40
5.0
 40
6.0
 40
6.0
 40
6.0
 40
7.0
 40
7.0
 40
7.0
 40
8.0
 40
8.0
 40
8.0
 40
9.0
 40
9.0
 40
9.0
 40
10.0
 40
10.0
 40
10.0
 40
11.0
 40
11.0
 40
11.0
 40
12.0
 40
12.0
 40
12.0
 40
13.0
 40
13.0
 40
13.0
 40
14.0
 40
14.0
 40
14.0
 40
15.0
 40
15.0
 40
15.0
 40
16.0
 40
16.0
 40
16.0
 40
17.0
 40
17.0
 40
17.0
 40
18.0
 40
18.0
 40
18.0
 40
19.0
 40
19.0
 40
19.0
 40
20.0
 40
20.0
 40
20.0
 40
21.0
 40
21.0
 40
21.0
 40
22.0
 40
22.0
 40
22.0
 40
23.0
 40
23.0
 40
23.0
 40
24.0
 40
24.0
 40
24.0
 40
25.0
 40
25.0
 40
25.0
 40
26.0
 40
26.0
 40
26.0
 40
27.0
 40
27.0
 40
27.0
 40
28.0
 40
28.0
 40
28.0
 40
29.0
 40
29.0
 40
29.0
 40
30.0
 40
30.0
 40
30.0
 40
31.0
 40
31.0
 40
31.0
 40
32.0
 40
32.0
 40
32.0
 40
33.0
 40
33.0
 40
33.0
 40
34.0
 40
34.0
 40
34.0
 40
35.0
 40
35.0
 40
35.0
 40
36.0
 40
36.0
 40
36.0
 40
37.0
 40
37.0
 40
37.0
 40
38.0
 40
38.0
 40
38.0
 40
39.0
 40
39.0
 40
39.0
 40
40.0
 40
40.0
 40
40.0
 40
41.0
 40
41.0
 40
41.0
 40
42.0
 40
42.0
 40
42.0
 40
43.0
 40
43.0
 40
43.0
 40
44.0
 40
44.0
 40
44.0
 40
45.0
 40
45.0
 40
45.0
 40
46.0
 40
46.0
 40
46.0
 40
47.0
 40
47.0
 40
47.0
 40
48.0
 40
48.0
 40
48.0
 40
49.0
 40
49.0
 40
49.0
 40
50.0
 40
50.0
 40
50.0
 40
51.0
 40
51.0
 40
51.0
 40
52.0
 40
52.0
 40
52.0
 40
53.0
 40
53.0
 40
53.0
 40
54.0
 40
54.0
 40
54.0
 40
55.0
 40
55.0
 40
55.0
 40
56.0
 40
56.0
 40
56.0
 40
57.0
 40
57.0
 40
57.0
 40
58.0
 40
58.0
 40
58.0
 40
59.0
 40
59.0
 40
59.0
 40
60.0
 40
60.0
 40
60.0
 40
61.0
 40
61.0
 40
61.0
 40
62.0
 40
62.0
 40
62.0
 40
63.0
 40
63.0
 40
63.0
 40
64.0
 40
64.0
 40
64.0
 40
65.0
 40
65.0
 40
65.0
 40
66.0
 40
66.0
 40
66.0
 40
67.0
 40
67.0
 40
67.0
 40
68.0
 40
68.0
 40
68.0
 40
69.0
 40
69.0
 40
69.0
 40
70.0
 40
70.0
 40
70.0
 40
71.0
 40
71.0
 40
71.0
 40
72.0
 40
72.0
 40
72.0
 40
73.0
 40
73.0
 40
73.0
 40
74.0
 40
74.0
 40
74.0
 40
75.0
 40
75.0
 40
75.0
 40
76.0
 40
76.0
 40
76.0
 40
77.0
 40
77.0
 40
77.0
 40
78.0
 40
78.0
 40
78.0
 40
79.0
 40
79.0
 40
79.0
 40
80.0
 40
80.0
 40
80.0
 40
81.0
 40
81.0
 40
81.0
 40
82.0
 40
82.0
 40
82.0
 40
83.0
 40
83.0
 40
83.0
 40
84.0
 40
84.0
 40
84.0
 40
85.0
 40
85.0
 40
85.0
 40
86.0
 40
86.0
 40
86.0
 40
87.0
 40
87.0
 40
87.0
 40
88.0
 40
88.0
 40
88.0
 40
89.0
 40
89.0
 40
89.0
 40
90.0
 40
90.0
 40
90.0
 40
91.0
 40
91.0
 40
91.0
 40
92.0
 40
92.0
 40
92.0
 40
93.0
 40
93.0
 40
93.0
 40
94.0
 40
94.0
 40
94.0
 40
95.0
 40
95.0
 40
95.0
 40
96.0
 40
96.0
 40
96.0
 40
97.0
 40
97.0
 40
97.0
 40
98.0
 40
98.0
 40
98.0
 40
99.0
 40
99.0
 40
99.0
 40
100.0
 40
100.0
 40
100.0
 40
101.0
 40
101.0
 40
101.0
 40
102.0
 40
102.0
 40
102.0
 40
103.0
 40
103.0
 40
103.0
 40
104.0
 40
104.0
 40
104.0
 40
105.0
 40
105.0
 40
105.0
 40
106.0
 40
106.0
 40
106.0
 40
107.0
 40
107.0
 40
107.0
 40
108.0
 40
108.0
 40
108.0
 40
109.0
 40
109.0
 40
109.0
 40
110.0
 40
110.0
 40
110.0
 40
111.0
 40
111.0
 40
111.0
 40
112.0
 40
112.0
 40
112.0
 40
113.0
 40
113.0
 40
113.0
 40
114.0
 40
114.0
 40
114.0
 40
115.0
 40
115.0
 40
115.0
 40
116.0
 40
116.0
 40
116.0
 40
117.0
 40
117.0
 40
117.0
 40
118.0
 40
118.0
 40
118.0
 40
119.0
 40
119.0
 40
119.0
 40
120.0
 40
120.0
 40
120.0
 40
121.0
 40
121.0
 40
121.0
 40
122.0
 40
122.0
 40
122.0
 40
123.0
 40
123.0
 40
123.0
 40
124.0
 40
124.0
 40
124.0
 40
125.0
 40
125.0
 40
125.0
 40
126.0
 40
126.0
 40
126.0
 40
127.0
 40
127.0
 40
127.0
 40
128.0
 40
128.0
 40
128.0
 40
129.0
 40
129.0
 40
129.0
 40
130.0
 40
130.0
 40
130.0
 40
131.0
 40
131.0
 40
131.0
 40
132.0
 40
132.0
 40
132.0
 40
133.0
 40
133.0
 40
133.0
 40
134.0
 40
134.0
 40
134.0
 40
135.0
 40
135.0
 40
135.0
 40
136.0
 40
136.0
 40
136.0
 40
137.0
 40
137.0
 40
137.0
 40
138.0
 40
138.0
 40
138.0
 40
139.0
 40
139.0
 40
139.0
 40
140.0
 40
140.0
 40
140.0
 40
141.0
 40
141.0
 40
141.0
 40
141.0
 10
105.6653849019691
 20
143.4008937901046
 30
0.0
 10
105.6319674757622
 20
143.1481960362616
 30
0.0
 10
105.6059570048485
 20
142.8944647537729
 30
0.0
 10
105.5873534892282
 20
142.6402167069615
 30
0.0
 10
104.8761135262983
 20
142.6264363250205
 30
0.0
 10
104.1793429644066
 20
142.403021882802
 30
0.0
 10
103.5814466429414
 20
142.0013237492219
 30
0.0
 10
103.5814466429414
 20
142.0013237492219
 30
0.0
 10
103.5588812675131
 20
141.3810343071027
 30
0.0
 10
103.5588812675131
 20
141.3810343071027
 30
0.0
 10
104.1211208507058
 20
141.0108587972126
 30
0.0
 10
104.7655259612218
 20
140.7817599474434
 30
0.0
 10
105.4309461541978
 20
140.717164407095
 30
0.0
 10
105.4309461541978
 20
140.717164407095
 30
0.0
 10
105.5890760369708
 20
140.7052788276709
 30
0.0
 10
105.5890760369708
 20
140.7052788276709
 30
0.0
 10
105.6140529792388
 20
140.3721380942472
 30
0.0
 10
105.6517767748023
 20
140.0398586346949
 30
0.0
 10
105.702075168887
 20
139.7096462324337
 30
0.0
 10
105.0118502884172
 20
139.5377359677197
 30
0.0
 10
104.3822590884878
 20
139.1653211457642
 30
0.0
 10
103.8887491602257
 20
138.6406331033607
 30
0.0
 10
103.8887491602257
 20
138.6406331033607
 30
0.0
 10
104.0046766233044
 20
138.0308512024715
 30
0.0
 10
104.0046766233044
 20
138.0308512024715
 30
0.0
 10
104.6351290971051
 20
137.7948621617319
 30
0.0
 10
105.3143296720221
 20
137.714935946474
 30
0.0
 10
105.9775105529327
 20
137.8000298049597
 30
0.0
 10
105.9775105529327
 20
137.8000298049597
 30
0.0
 10
106.1344346522858
 20
137.8234564542594
 30
0.0
 10
106.1344346522858
 20
137.8234564542594
 30
0.0
 10
106.2327921283897
 20
137.5040961027768
 30
0.0
 10
106.3435519482405
 20
137.1888698658764
 30
0.0
 10
106.4661973475154
 20
136.8781222531069
 30
0.0
 10
105.8312662495838
 20
136.5570393538816
 30
0.0
 10
105.3005492900811
 20
136.0537109034866
 30
0.0
 10
104.9360581877417
 20
135.4322156779475
 30
0.0
 10
104.9360581877417
 20
135.4322156779475
 30
0.0
 10
105.184966336551
 20
134.8634304133328
 30
0.0
 10
105.184966336551
 20
134.8634304133328
 30
0.0
 10
105.8522813320439
 20
134.7738579307163
 30
0.0
 10
106.5321709260579
 20
134.8472384645521
 30
0.0
 10
107.1596950686962
 20
135.0777153525153
 30
0.0
 10
107.1596950686962
 20
135.0777153525153
 30
0.0
 10
107.3073174102392
 20
135.1355929566675
 30
0.0
 10
107.3073174102392
 20
135.1355929566675
 30
0.0
 10
107.4744045412738
 20
134.8462049359065
 30
0.0
 10
107.6525159778612
 20
134.5633625965675
 30
0.0
 10
107.8411349556786
 20
134.287410448199
 30
0.0
 10
107.2937092830724
 20
133.8333468632431
 30
0.0
 10
106.8882215444585
 20
133.2242539814509
 30
0.0
 10
106.6711805288878
 20
132.5376464512406
 30
0.0
 10
106.6711805288878
 20
132.5376464512406
 30
0.0
 10
107.0403225101323
 20
132.0384521154279
 30
0.0
 10
107.0403225101323
 20
132.0384521154279
 30
0.0
 10
107.7107380915619
 20
132.0994303055168
 30
0.0
 10
108.357210259369
 20
132.321983473864
 30
0.0
 10
108.9177272948192
 20
132.6864745762034
 30
0.0
 10
108.9177272948192
 20
132.6864745762034
 30
0.0
 10
109.0489854328072
 20
132.7757025492714
 30
0.0
 10
109.0489854328072
 20
132.7757025492714
 30
0.0
 10
109.2763617348337
 20
132.5307562602701
 30
0.0
 10
109.5126952851218
 20
132.2947672195305
 30
0.0
 10
109.7579860836716
 20
132.0677354270525
 30
0.0
 10
109.3252820907242
 20
131.5030842770201
 30
0.0
 10
109.0655218911364
 20
130.819232823198
 30
0.0
 10
109.0069552678872
 20
130.1012749240719
 30
0.0
 10
109.0069552678872
 20
130.1012749240719
 30
0.0
 10
109.4778998207208
 20
129.6968207141036
 30
0.0
 10
109.4778998207208
 20
129.6968207141036
 30
0.0
 10
110.1176540523317
 20
129.9055935005097
 30
0.0
 10
110.6984971511448
 20
130.2666395073639
 30
0.0
 10
111.1639295512021
 20
130.7465413084592
 30
0.0
 10
111.1639295512021
 20
130.7465413084592
 30
0.0
 10
111.2721055494389
 20
130.8629855358606
 30
0.0
 10
111.2721055494389
 20
130.8629855358606
 30
0.0
 10
111.5480576978074
 20
130.6745388128175
 30
0.0
 10
111.831244546695
 20
130.4967718857786
 30
0.0
 10
112.1209770770045
 20
130.330373773841
 30
0.0
 10
111.824698865273
 20
129.6837293512596
 30
0.0
 10
111.7234130580067
 20
128.9588812611631
 30
0.0
 10
111.8260769034671
 20
128.2460910052649
 30
0.0
 10
111.8260769034671
 20
128.2460910052649
 30
0.0
 10
112.3752251238159
 20
127.9567029845039
 30
0.0
 10
112.3752251238159
 20
127.9567029845039
 30
0.0
 10
112.9526231271438
 20
128.302590571223
 30
0.0
 10
113.4387261001125
 20
128.7835259009638
 30
0.0
 10
113.7856472154772
 20
129.3550672419668
 30
0.0
 10
113.7856472154772
 20
129.3550672419668
 30
0.0
 10
113.8648844116379
 20
129.4925265518283
 30
0.0
 10
113.8648844116379
 20
129.4925265518283
 30
0.0
 10
114.175976533956
 20
129.3705701716504
 30
0.0
 10
114.4915472804049
 20
129.2603271161224
 30
0.0
 10
114.8109076318876
 20
129.1624864043413
 30
0.0
 10
114.6662136215071
 20
128.4658880972238
 30
0.0
 10
114.7289143593386
 20
127.7372504020935
 30
0.0
 10
114.9872965207323
 20
127.0647677633727
 30
0.0
 10
114.9872965207323
 20
127.0647677633727
 30
0.0
 10
115.5870876447143
 20
126.9045708233086
 30
0.0
 10
115.5870876447143
 20
126.9045708233086
 30
0.0
 10
116.0731906176831
 20
127.3703477329144
 30
0.0
 10
116.4400932868622
 20
127.9474012266937
 30
0.0
 10
116.6509331305595
 20
128.5819878150767
 30
0.0
 10
116.6509331305595
 20
128.5819878150767
 30
0.0
 10
116.6977864291589
 20
128.7335720164277
 30
0.0
 10
116.6977864291589
 20
128.7335720164277
 30
0.0
 10
117.0281710861943
 20
128.6836181318916
 30
0.0
 10
117.360622800521
 20
128.6464111006509
 30
0.0
 10
117.6937635339446
 20
128.6222954322542
 30
0.0
 10
117.7075439158856
 20
127.9108832145501
 30
0.0
 10
117.9307861033298
 20
127.2142849074325
 30
0.0
 10
118.3324842369099
 20
126.6162163311932
 30
0.0
 10
118.3324842369099
 20
126.6162163311932
 30
0.0
 10
118.9529459338034
 20
126.5938232105391
 30
0.0
 10
118.9529459338034
 20
126.5938232105391
 30
0.0
 10
119.3229491889193
 20
127.1560627937318
 30
0.0
 10
119.5520480386884
 20
127.8002956494735
 30
0.0
 10
119.6168158338111
 20
128.4658880972238
 30
0.0
 10
119.6168158338111
 20
128.4658880972238
 30
0.0
 10
119.6285291584609
 20
128.6240179799968
 30
0.0
 10
119.6285291584609
 20
128.6240179799968
 30
0.0
 10
119.9616698918846
 20
128.6488226674906
 30
0.0
 10
120.2937770966627
 20
128.6863742082798
 30
0.0
 10
120.6241617536981
 20
128.737017111913
 30
0.0
 10
120.7960720184121
 20
128.0466199766689
 30
0.0
 10
121.1688313499161
 20
127.4172010315138
 30
0.0
 10
121.6931748827712
 20
126.9235188484775
 30
0.0
 10
121.6931748827712
 20
126.9235188484775
 30
0.0
 10
122.3033012932089
 20
127.0396185663304
 30
0.0
 10
122.3033012932089
 20
127.0396185663304
 30
0.0
 10
122.5389458244
 20
127.6700710401311
 30
0.0
 10
122.6188720396578
 20
128.3490993602738
 30
0.0
 10
122.5337781811721
 20
129.0122802411844
 30
0.0
 10
122.5337781811721
 20
129.0122802411844
 30
0.0
 10
122.5103515318724
 20
129.1693765953118
 30
0.0
 10
122.5103515318724
 20
129.1693765953118
 30
0.0
 10
122.8297118833551
 20
129.2675618166415
 30
0.0
 10
123.1449381202554
 20
129.3784938912665
 30
0.0
 10
123.455685733025
 20
129.5011392905414
 30
0.0
 10
123.7767686322503
 20
128.8662081926098
 30
0.0
 10
124.2804415921938
 20
128.3353189783329
 30
0.0
 10
124.9015923081843
 20
127.9708278759934
 30
0.0
 10
124.9015923081843
 20
127.9708278759934
 30
0.0
 10
125.4703775727991
 20
128.219908279577
 30
0.0
 10
125.4703775727991
 20
128.219908279577
 30
0.0
 10
125.5599500554156
 20
128.8872232750699
 30
0.0
 10
125.4869140311283
 20
129.5669406143097
 30
0.0
 10
125.2564371431651
 20
130.1946370117222
 30
0.0
 10
125.2564371431651
 20
130.1946370117222
 30
0.0
 10
125.1982150294643
 20
130.3420870984909
 30
0.0
 10
125.1982150294643
 20
130.3420870984909
 30
0.0
 10
125.4876030502253
 20
130.5091742295255
 30
0.0
 10
125.7707898991129
 20
130.6872856661129
 30
0.0
 10
126.0463975379328
 20
130.8760768987046
 30
0.0
 10
126.5004611228888
 20
130.3286512260984
 30
0.0
 10
127.1095540046809
 20
129.922818977936
 30
0.0
 10
127.7965060444398
 20
129.7061224719137
 30
0.0
 10
127.7965060444398
 20
129.7061224719137
 30
0.0
 10
128.295355870704
 20
130.075092198384
 30
0.0
 10
128.295355870704
 20
130.075092198384
 30
0.0
 10
128.234377680615
 20
130.7455077798136
 30
0.0
 10
128.0118245122679
 20
131.392152202395
 30
0.0
 10
127.6473334099285
 20
131.9526692378452
 30
0.0
 10
127.6473334099285
 20
131.9526692378452
 30
0.0
 10
127.5581054368605
 20
132.0839273758332
 30
0.0
 10
127.5581054368605
 20
132.0839273758332
 30
0.0
 10
127.8030517258617
 20
132.3109591683111
 30
0.0
 10
128.0393852761499
 20
132.5476372281478
 30
0.0
 10
128.2660725590793
 20
132.7929280266976
 30
0.0
 10
128.8307237091118
 20
132.3602240337502
 30
0.0
 10
129.5145751629339
 20
132.1004638341624
 30
0.0
 10
130.2325330620599
 20
132.0418972109131
 30
0.0
 10
130.2325330620599
 20
132.0418972109131
 30
0.0
 10
130.6369872720283
 20
132.5124972541983
 30
0.0
 10
130.6369872720283
 20
132.5124972541983
 30
0.0
 10
130.4282144856221
 20
133.1525959953577
 30
0.0
 10
130.0675129883165
 20
133.7334390941708
 30
0.0
 10
129.5872666776726
 20
134.1988714942281
 30
0.0
 10
129.5872666776726
 20
134.1988714942281
 30
0.0
 10
129.4711669598197
 20
134.3067029829164
 30
0.0
 10
129.4711669598197
 20
134.3067029829164
 30
0.0
 10
129.6592691733144
 20
134.5829996408334
 30
0.0
 10
129.8366915908047
 20
134.8661864897209
 30
0.0
 10
130.0034342122908
 20
135.1559190200305
 30
0.0
 10
130.6500786348722
 20
134.859640808299
 30
0.0
 10
131.3749267249688
 20
134.7583550010326
 30
0.0
 10
132.087716980867
 20
134.8610188464931
 30
0.0
 10
132.087716980867
 20
134.8610188464931
 30
0.0
 10
132.3771050016279
 20
135.4101670668419
 30
0.0
 10
132.3771050016279
 20
135.4101670668419
 30
0.0
 10
132.0312174149089
 20
135.9875650701698
 30
0.0
 10
131.550282085168
 20
136.4736680431385
 30
0.0
 10
130.978740744165
 20
136.8205891585032
 30
0.0
 10
130.978740744165
 20
136.8205891585032
 30
0.0
 10
130.8412814343036
 20
136.8998263546639
 30
0.0
 10
130.8412814343036
 20
136.8998263546639
 30
0.0
 10
130.9635823240299
 20
137.2105739674335
 30
0.0
 10
131.0734808700094
 20
137.5264892234309
 30
0.0
 10
131.1713215817905
 20
137.8458495749136
 30
0.0
 10
131.867919888908
 20
137.7011555645331
 30
0.0
 10
132.5969020935869
 20
137.7638563023646
 30
0.0
 10
133.2690402227591
 20
138.0222384637583
 30
0.0
 10
133.2690402227591
 20
138.0222384637583
 30
0.0
 10
133.4292371628233
 20
138.6220295877403
 30
0.0
 10
133.4292371628233
 20
138.6220295877403
 30
0.0
 10
132.9634602532175
 20
139.1081325607091
 30
0.0
 10
132.3864067594381
 20
139.4750352298882
 30
0.0
 10
131.7518201710551
 20
139.6858750735855
 30
0.0
 10
131.7518201710551
 20
139.6858750735855
 30
0.0
 10
131.6002359697041
 20
139.7327283721849
 30
0.0
 10
131.6002359697041
 20
139.7327283721849
 30
0.0
 10
131.6501898542402
 20
140.0631130292203
 30
0.0
 10
131.6873968854809
 20
140.3953924887727
 30
0.0
 10
131.7115125538777
 20
140.7285332221963
 30
0.0
 10
132.4229247715818
 20
140.7423136041373
 30
0.0
 10
133.1195230786993
 20
140.9655557915815
 30
0.0
 10
133.7175916549387
 20
141.3672539251617
 30
0.0
 10
133.7175916549387
 20
141.3672539251617
 30
0.0
 10
133.7399847755928
 20
141.9877156220552
 30
0.0
 10
133.7399847755928
 20
141.9877156220552
 30
0.0
 10
133.1777451924
 20
142.3578911319453
 30
0.0
 10
132.5335123366583
 20
142.5869899817144
 30
0.0
 10
131.8682643984565
 20
142.6515855220628
 30
0.0
 10
131.8682643984565
 20
142.6515855220628
 30
0.0
 10
131.7097900061351
 20
142.6634711014869
 30
0.0
 10
131.7097900061351
 20
142.6634711014869
 30
0.0
 10
131.6849853186413
 20
142.9966118349106
 30
0.0
 10
131.647433777852
 20
143.3288912944629
 30
0.0
 10
131.5967908742189
 20
143.6591036967241
 30
0.0
 10
132.2871880094629
 20
143.8308417066638
 30
0.0
 10
132.9169514641666
 20
144.2036010381678
 30
0.0
 10
133.4102891376544
 20
144.7282890805714
 30
0.0
 10
133.4102891376544
 20
144.7282890805714
 30
0.0
 10
133.2941894198015
 20
145.3380709814606
 30
0.0
 10
133.2941894198015
 20
145.3380709814606
 30
0.0
 10
132.6637369460007
 20
145.573887767426
 30
0.0
 10
131.984708625858
 20
145.6538139826838
 30
0.0
 10
131.3215277449474
 20
145.5687201241981
 30
0.0
 10
131.3215277449474
 20
145.5687201241981
 30
0.0
 10
131.1647759003685
 20
145.5451212201241
 30
0.0
 10
131.1647759003685
 20
145.5451212201241
 30
0.0
 10
131.0662461694904
 20
145.8643093168325
 30
0.0
 10
130.9553140948653
 20
146.1798800632814
 30
0.0
 10
130.8326686955905
 20
146.490627676051
 30
0.0
 10
131.467599793522
 20
146.8117105752762
 30
0.0
 10
131.998489007799
 20
147.3152112804455
 30
0.0
 10
132.3629801101384
 20
147.9365342512103
 30
0.0
 10
132.3629801101384
 20
147.9365342512103
 30
0.0
 10
132.1138997065549
 20
148.5051472610508
 30
0.0
 10
132.1138997065549
 20
148.5051472610508
 30
0.0
 10
131.4469292206105
 20
148.5947197436673
 30
0.0
 10
130.7668673718222
 20
148.52168371938
 30
0.0
 10
130.1395154839582
 20
148.2912068314168
 30
0.0
 10
130.1395154839582
 20
148.2912068314168
 30
0.0
 10
129.991720887641
 20
148.2333292272646
 30
0.0
 10
129.991720887641
 20
148.2333292272646
 30
0.0
 10
129.8246337566063
 20
148.5227172480256
 30
0.0
 10
129.6465223200189
 20
148.8055595873646
 30
0.0
 10
129.4577310874272
 20
149.0811672261846
 30
0.0
 10
130.005501269582
 20
149.5354030659148
 30
0.0
 10
130.4109890081959
 20
150.1443236929327
 30
0.0
 10
130.6276855142181
 20
150.8312757326915
 30
0.0
 10
130.6276855142181
 20
150.8312757326915
 30
0.0
 10
130.2587157877478
 20
151.3302978137299
 30
0.0
 10
130.2587157877478
 20
151.3302978137299
 30
0.0
 10
129.5883002063182
 20
151.2691473688668
 30
0.0
 10
128.9416557837368
 20
151.0467664552939
 30
0.0
 10
128.3811387482867
 20
150.6822753529544
 30
0.0
 10
128.3811387482867
 20
150.6822753529544
 30
0.0
 10
128.2502251198472
 20
150.5928751251122
 30
0.0
 10
128.2502251198472
 20
150.5928751251122
 30
0.0
 10
128.0228488178207
 20
150.8378214141135
 30
0.0
 10
127.786170757984
 20
151.0739827096274
 30
0.0
 10
127.5408799594342
 20
151.300842247331
 30
0.0
 10
127.9735839523816
 20
151.8654933973635
 30
0.0
 10
128.2333441519694
 20
152.5495171059598
 30
0.0
 10
128.2922552847672
 20
153.2673027503116
 30
0.0
 10
128.2922552847672
 20
153.2673027503116
 30
0.0
 10
127.8213107319336
 20
153.67175696028
 30
0.0
 10
127.8213107319336
 20
153.67175696028
 30
0.0
 10
127.1812119907741
 20
153.4629841738738
 30
0.0
 10
126.600368891961
 20
153.1022826765682
 30
0.0
 10
126.1349364919038
 20
152.6222086206986
 30
0.0
 10
126.1349364919038
 20
152.6222086206986
 30
0.0
 10
126.0271050032155
 20
152.5059366480714
 30
0.0
 10
126.0271050032155
 20
152.5059366480714
 30
0.0
 10
125.7511528548469
 20
152.6940388615661
 30
0.0
 10
125.4679660059594
 20
152.8716335338307
 30
0.0
 10
125.1782334756499
 20
153.0382039005425
 30
0.0
 10
125.4741671778329
 20
153.6850205778982
 30
0.0
 10
125.5754529850992
 20
154.4096964132205
 30
0.0
 10
125.4727891396387
 20
155.1226589238929
 30
0.0
 10
125.4727891396387
 20
155.1226589238929
 30
0.0
 10
124.9236409192899
 20
155.4122191994282
 30
0.0
 10
124.9236409192899
 20
155.4122191994282
 30
0.0
 10
124.3462429159621
 20
155.0659871031606
 30
0.0
 10
123.8604844525418
 20
154.5850517734197
 30
0.0
 10
123.5132188276286
 20
154.013682687191
 30
0.0
 10
123.5132188276286
 20
154.013682687191
 30
0.0
 10
123.4339816314679
 20
153.8762233773296
 30
0.0
 10
123.4339816314679
 20
153.8762233773296
 30
0.0
 10
123.1228895091498
 20
153.9983520122817
 30
0.0
 10
122.807318762701
 20
154.1084228130354
 30
0.0
 10
122.4879584112183
 20
154.2064357795907
 30
0.0
 10
122.6326524215988
 20
154.902861831934
 30
0.0
 10
122.5699516837672
 20
155.6316717818386
 30
0.0
 10
122.3115695223735
 20
156.3039821657851
 30
0.0
 10
122.3115695223735
 20
156.3039821657851
 30
0.0
 10
121.7117783983915
 20
156.4641791058492
 30
0.0
 10
121.7117783983915
 20
156.4641791058492
 30
0.0
 10
121.2256754254228
 20
155.9984021962435
 30
0.0
 10
120.8591172657922
 20
155.4211764476898
 30
0.0
 10
120.6479329125464
 20
154.7867621140811
 30
0.0
 10
120.6479329125464
 20
154.7867621140811
 30
0.0
 10
120.601079613947
 20
154.6351779127301
 30
0.0
 10
120.601079613947
 20
154.6351779127301
 30
0.0
 10
120.2706949569115
 20
154.6851317972662
 30
0.0
 10
119.9385877521334
 20
154.7221665737327
 30
0.0
 10
119.6054470187098
 20
154.7464544969037
 30
0.0
 10
119.5916666367687
 20
155.4578667146078
 30
0.0
 10
119.368079939776
 20
156.1544650217253
 30
0.0
 10
118.9663818061959
 20
156.7523613431904
 30
0.0
 10
118.9663818061959
 20
156.7523613431904
 30
0.0
 10
118.3462646188509
 20
156.7749267186188
 30
0.0
 10
118.3462646188509
 20
156.7749267186188
 30
0.0
 10
117.9759168541866
 20
156.2128593902003
 30
0.0
 10
117.7468180044175
 20
155.5684542796843
 30
0.0
 10
117.6823947188433
 20
154.9030340867083
 30
0.0
 10
117.6823947188433
 20
154.9030340867083
 30
0.0
 10
117.6703368846449
 20
154.744731949161
 30
0.0
 10
117.6703368846449
 20
154.744731949161
 30
0.0
 10
117.3371961512213
 20
154.7199272616672
 30
0.0
 10
117.0050889464432
 20
154.6822034661038
 30
0.0
 10
116.6747042894077
 20
154.6317328172449
 30
0.0
 10
116.5027940246938
 20
155.3221299524889
 30
0.0
 10
116.1303792027382
 20
155.9517211524183
 30
0.0
 10
115.6056911603347
 20
156.4452310806804
 30
0.0
 10
115.6056911603347
 20
156.4452310806804
 30
0.0
 10
114.9959092594455
 20
156.3291313628274
 30
0.0
 10
114.9959092594455
 20
156.3291313628274
 30
0.0
 10
114.7599202187059
 20
155.6986788890267
 30
0.0
 10
114.6799940034481
 20
155.0194783141097
 30
0.0
 10
114.7650878619337
 20
154.3562974331991
 30
0.0
 10
114.7650878619337
 20
154.3562974331991
 30
0.0
 10
114.788859020782
 20
154.1995455886203
 30
0.0
 10
114.788859020782
 20
154.1995455886203
 30
0.0
 10
114.4694986692993
 20
154.1010158577421
 30
0.0
 10
114.1539279228504
 20
153.9902560378913
 30
0.0
 10
113.8431803100809
 20
153.8676106386164
 30
0.0
 10
113.5220974108556
 20
154.502541736548
 30
0.0
 10
113.0187689604606
 20
155.033430950825
 30
0.0
 10
112.3972737349215
 20
155.3977497983902
 30
0.0
 10
112.3972737349215
 20
155.3977497983902
 30
0.0
 10
111.8284884703068
 20
155.1490139043551
 30
0.0
 10
111.8284884703068
 20
155.1490139043551
 30
0.0
 10
111.7389159876903
 20
154.4816989088622
 30
0.0
 10
111.8122965215261
 20
153.8018093148482
 30
0.0
 10
112.0427734094893
 20
153.1742851722099
 30
0.0
 10
112.0427734094893
 20
153.1742851722099
 30
0.0
 10
112.1006510136415
 20
153.026662830667
 30
0.0
 10
112.1006510136415
 20
153.026662830667
 30
0.0
 10
111.8112629928805
 20
152.8595756996323
 30
0.0
 10
111.5284206535415
 20
152.6814642630449
 30
0.0
 10
111.2528130147215
 20
152.4926730304532
 30
0.0
 10
110.7984049202171
 20
153.0400987030594
 30
0.0
 10
110.1896565479734
 20
153.4455864416733
 30
0.0
 10
109.5027045082146
 20
153.6626274572441
 30
0.0
 10
109.5027045082146
 20
153.6626274572441
 30
0.0
 10
109.0035101724019
 20
153.2936577307738
 30
0.0
 10
109.0035101724019
 20
153.2936577307738
 30
0.0
 10
109.0648328720393
 20
152.6232421493442
 30
0.0
 10
109.287041530838
 20
151.9765977267628
 30
0.0
 10
109.6515326331774
 20
151.4160806913127
 30
0.0
 10
109.6515326331774
 20
151.4160806913127
 30
0.0
 10
109.7407606062454
 20
151.2849948080989
 30
0.0
 10
109.7407606062454
 20
151.2849948080989
 30
0.0
 10
109.4961588267926
 20
151.0576185060724
 30
0.0
 10
109.2598252765045
 20
150.82111270101
 30
0.0
 10
109.0331379935751
 20
150.5758219024602
 30
0.0
 10
108.4681423339941
 20
151.0083536406333
 30
0.0
 10
107.7844631349463
 20
151.2682860949954
 30
0.0
 10
107.0665052358202
 20
151.327024973019
 30
0.0
 10
107.0665052358202
 20
151.327024973019
 30
0.0
 10
106.6620510258519
 20
150.8560804201853
 30
0.0
 10
106.6620510258519
 20
150.8560804201853
 30
0.0
 10
106.870823812258
 20
150.2161539338001
 30
0.0
 10
107.2316975643379
 20
149.635310834987
 30
0.0
 10
107.7115993654332
 20
149.1698784349298
 30
0.0
 10
107.7115993654332
 20
149.1698784349298
 30
0.0
 10
107.8278713380604
 20
149.0618746914672
 30
0.0
 10
107.8278713380604
 20
149.0618746914672
 30
0.0
 10
107.6397691245658
 20
148.7857502883244
 30
0.0
 10
107.4621744523011
 20
148.5025634394369
 30
0.0
 10
107.2956040855893
 20
148.2130031639016
 30
0.0
 10
106.6487874082336
 20
148.5091091208589
 30
0.0
 10
105.9242838276856
 20
148.6102226733509
 30
0.0
 10
105.2113213170131
 20
148.5077310826647
 30
0.0
 10
105.2113213170131
 20
148.5077310826647
 30
0.0
 10
104.9217610414779
 20
147.9585828623159
 30
0.0
 10
104.9217610414779
 20
147.9585828623159
 30
0.0
 10
105.2678208829713
 20
147.381184858988
 30
0.0
 10
105.7487562127121
 20
146.8950818860193
 30
0.0
 10
106.3202975537151
 20
146.5481607706546
 30
0.0
 10
106.3202975537151
 20
146.5481607706546
 30
0.0
 10
106.4575846088023
 20
146.4689235744939
 30
0.0
 10
106.4575846088023
 20
146.4689235744939
 30
0.0
 10
106.3356282286244
 20
146.1580037069501
 30
0.0
 10
106.2253851730964
 20
145.8422607057269
 30
0.0
 10
106.1275444613153
 20
145.5229003542443
 30
0.0
 10
105.4309461541978
 20
145.6675943646248
 30
0.0
 10
104.7021362042932
 20
145.6048936267932
 30
0.0
 10
104.0298258203467
 20
145.3463392106252
 30
0.0
 10
104.0298258203467
 20
145.3463392106252
 30
0.0
 10
103.8698011350569
 20
144.7467203414175
 30
0.0
 10
103.8698011350569
 20
144.7467203414175
 30
0.0
 10
104.3355780446626
 20
144.2606173684487
 30
0.0
 10
104.912631538442
 20
143.8938869540439
 30
0.0
 10
105.5470458720507
 20
143.6827026007981
 30
0.0
 10
105.5470458720507
 20
143.6827026007981
 30
0.0
 10
105.6986300734017
 20
143.6360215569729
 30
0.0
 10
105.6986300734017
 20
143.6360215569729
 30
0.0
 10
105.6869167487519
 20
143.5578178894578
 30
0.0
 10
105.6757201884248
 20
143.4794419671683
 30
0.0
 10
105.6653849019691
 20
143.4008937901046
 30
0.0
  0
SPLINE
  5
3E
330
1F
100
AcDbEntity
  8
Layer 1
 62
    40
420
 15577376
370
    25
100
AcDbSpline
210
0.0
220
0.0
230
1.0
 70
    11
 71
     3
 72
   248
 73
   244
 74
     0
 42
0.0000000001
 43
0.0000000001
 40
0.0
 40
0.0
 40
0.0
 40
0.0
 40
1.0
 40
1.0
 40
1.0
 40
2.0
 40
2.0
 40
2.0
 40
3.0
 40
3.0
 40
3.0
 40
4.0
 40
4.0
 40
4.0
 40
5.0
 40
5.0
 40
5.0
 40
6.0
 40
6.0
 40
6.0
 40
7.0
 40
7.0
 40
7.0
 40
8.0
 40
8.0
 40
8.0
 40
9.0
 40
9.0
 40
9.0
 40
10.0
 40
10.0
 40
10.0
 40
11.0
 40
11.0
 40
11.0
 40
12.0
 40
12.0
 40
12.0
 40
13.0
 40
13.0
 40
13.0
 40
14.0
 40
14.0
 40
14.0
 40
15.0
 40
15.0
 40
15.0
 40
16.0
 40
16.0
 40
16.0
 40
17.0
 40
17.0
 40
17.0
 40
18.0
 40
18.0
 40
18.0
 40
19.0
 40
19.0
 40
19.0
 40
20.0
 40
20.0
 40
20.0
 40
21.0
 40
21.0
 40
21.0
 40
22.0
 40
22.0
 40
22.0
 40
23.0
 40
23.0
 40
23.0
 40
24.0
 40
24.0
 40
24.0
 40
25.0
 40
25.0
 40
25.0
 40
26.0
 40
26.0
 40
26.0
 40
27.0
 40
27.0
 40
27.0
 40
28.0
 40
28.0
 40
28.0
 40
29.0
 40
29.0
 40
29.0
 40
30.0
 40
30.0
 40
30.0
 40
31.0
 40
31.0
 40
31.0
 40
32.0
 40
32.0
 40
32.0
 40
33.0
 40
33.0
 40
33.0
 40
34.0
 40
34.0
 40
34.0
 40
35.0
 40
35.0
 40
35.0
 40
36.0
 40
36.0
 40
36.0
 40
37.0
 40
37.0
 40
37.0
 40
38.0
 40
38.0
 40
38.0
 40
39.0
 40
39.0
 40
39.0
 40
40.0
 40
40.0
 40
40.0
 40
41.0
 40
41.0
 40
41.0
 40
42.0
 40
42.0
 40
42.0
 40
43.0
 40
43.0
 40
43.0
 40
44.0
 40
44.0
 40
44.0
 40
45.0
 40
45.0
 40
45.0
 40
46.0
 40
46.0
 40
46.0
 40
47.0
 40
47.0
 40
47.0
 40
48.0
 40
48.0
 40
48.0
 40
49.0
 40
49.0
 40
49.0
 40
50.0
 40
50.0
 40
50.0
 40
51.0
 40
51.0
 40
51.0
 40
52.0
 40
52.0
 40
52.0
 40
53.0
 40
53.0
 40
53.0
 40
54.0
 40
54.0
 40
54.0
 40
55.0
 40
55.0
 40
55.0
 40
56.0
 40
56.0
 40
56.0
 40
57.0
 40
57.0
 40
57.0
 40
58.0
 40
58.0
 40
58.0
 40
59.0
 40
59.0
 40
59.0
 40
60.0
 40
60.0
 40
60.0
 40
61.0
 40
61.0
 40
61.0
 40
62.0
 40
62.0
 40
62.0
 40
63.0
 40
63.0
 40
63.0
 40
64.0
 40
64.0
 40
64.0
 40
65.0
 40
65.0
 40
65.0
 40
66.0
 40
66.0
 40
66.0
 40
67.0
 40
67.0
 40
67.0
 40
68.0
 40
68.0
 40
68.0
 40
69.0
 40
69.0
 40
69.0
 40
70.0
 40
70.0
 40
70.0
 40
71.0
 40
71.0
 40
71.0
 40
72.0
 40
72.0
 40
72.0
 40
73.0
 40
73.0
 40
73.0
 40
74.0
 40
74.0
 40
74.0
 40
75.0
 40
75.0
 40
75.0
 40
76.0
 40
76.0
 40
76.0
 40
77.0
 40
77.0
 40
77.0
 40
78.0
 40
78.0
 40
78.0
 40
79.0
 40
79.0
 40
79.0
 40
80.0
 40
80.0
 40
80.0
 40
81.0
 40
81.0
 40
81.0
 40
81.0
 10
154.5173556471346
 20
151.5655978353725
 30
0.0
 10
154.3027261984035
 20
151.8337985188992
 30
0.0
 10
154.0560573616596
 20
152.075816476738
 30
0.0
 10
153.7835503087763
 20
152.2851060274669
 30
0.0
 10
153.7835503087763
 20
152.2851060274669
 30
0.0
 10
153.2578287377272
 20
152.1373114311497
 30
0.0
 10
153.2578287377272
 20
152.1373114311497
 30
0.0
 10
153.0066812768525
 20
151.4276217611882
 30
0.0
 10
153.0242512638273
 20
150.6836533911485
 30
0.0
 10
153.3136392845883
 20
149.9977348800353
 30
0.0
 10
152.9749863983882
 20
149.8502847932666
 30
0.0
 10
152.6452907604498
 20
149.6821641335864
 30
0.0
 10
152.3273084471612
 20
149.4945786844146
 30
0.0
 10
151.9569606824969
 20
150.1298542918946
 30
0.0
 10
151.3757730741352
 20
150.5801282718168
 30
0.0
 10
150.6619492895915
 20
150.7928629180309
 30
0.0
 10
150.6619492895915
 20
150.7928629180309
 30
0.0
 10
150.2078857046355
 20
150.4900390248775
 30
0.0
 10
150.2078857046355
 20
150.4900390248775
 30
0.0
 10
150.1879041508211
 20
149.7374579161247
 30
0.0
 10
150.4342284780165
 20
149.0351752014565
 30
0.0
 10
150.9217094891793
 20
148.4722465991667
 30
0.0
 10
150.6454128312623
 20
148.2274725649397
 30
0.0
 10
150.3839300839318
 20
147.9656453080607
 30
0.0
 10
150.1393283044791
 20
147.6890041405951
 30
0.0
 10
149.5905245936788
 20
148.1787244638234
 30
0.0
 10
148.8990939297891
 20
148.4272881030842
 30
0.0
 10
148.1542642858781
 20
148.4092013517866
 30
0.0
 10
148.1542642858781
 20
148.4092013517866
 30
0.0
 10
147.8159559092266
 20
147.9806314734215
 30
0.0
 10
147.8159559092266
 20
147.9806314734215
 30
0.0
 10
148.0295518293121
 20
147.2587117144874
 30
0.0
 10
148.4808593378798
 20
146.66718881967
 30
0.0
 10
149.1185465121995
 20
146.2823716539676
 30
0.0
 10
148.9311333178019
 20
145.9640448311305
 30
0.0
 10
148.7633571676703
 20
145.6345214479664
 30
0.0
 10
148.6162515904501
 20
145.2956963069921
 30
0.0
 10
147.9430799326323
 20
145.5918022639493
 30
0.0
 10
147.2082410656285
 20
145.6145398941519
 30
0.0
 10
146.5057860961861
 20
145.3670097835367
 30
0.0
 10
146.5057860961861
 20
145.3670097835367
 30
0.0
 10
146.3163058444973
 20
144.8550685944286
 30
0.0
 10
146.3163058444973
 20
144.8550685944286
 30
0.0
 10
146.7428086655713
 20
144.2346068975351
 30
0.0
 10
147.3550021333001
 20
143.8113769171722
 30
0.0
 10
148.0801947329452
 20
143.6423949836206
 30
0.0
 10
148.0002685176874
 20
143.2818657410893
 30
0.0
 10
147.9427354230838
 20
142.9163411101042
 30
0.0
 10
147.9072509395857
 20
142.5487494218281
 30
0.0
 10
147.1755126585186
 20
142.6224744652124
 30
0.0
 10
146.4699571031394
 20
142.4169745195173
 30
0.0
 10
145.8780896987736
 20
141.9644612275297
 30
0.0
 10
145.8780896987736
 20
141.9644612275297
 30
0.0
 10
145.8563855972165
 20
141.4191026122147
 30
0.0
 10
145.8563855972165
 20
141.4191026122147
 30
0.0
 10
146.4534206448103
 20
140.9607326579022
 30
0.0
 10
147.1662109007084
 20
140.7473089925909
 30
0.0
 10
147.9082844682313
 20
140.8106987495196
 30
0.0
 10
147.9441134612779
 20
140.4431070612434
 30
0.0
 10
148.0019910654301
 20
140.0779269398069
 30
0.0
 10
148.0819172806879
 20
139.7173976972755
 30
0.0
 10
147.3632703624647
 20
139.5611626170194
 30
0.0
 10
146.7555555188667
 20
139.1477511587894
 30
0.0
 10
146.332497793278
 20
138.534524162415
 30
0.0
 10
146.332497793278
 20
138.534524162415
 30
0.0
 10
146.4802923895952
 20
138.0091471009144
 30
0.0
 10
146.4802923895952
 20
138.0091471009144
 30
0.0
 10
147.1899820595567
 20
137.7576551304911
 30
0.0
 10
147.9337781748221
 20
137.7752251174659
 30
0.0
 10
148.6200411954839
 20
138.0646131382269
 30
0.0
 10
148.7674912822526
 20
137.7259602520269
 30
0.0
 10
148.9356119419328
 20
137.396609123637
 30
0.0
 10
149.1230251363304
 20
137.0782823007999
 30
0.0
 10
148.4877495288503
 20
136.7079345361355
 30
0.0
 10
148.0374755489281
 20
136.1267469277739
 30
0.0
 10
147.8249131574882
 20
135.4129231432301
 30
0.0
 10
147.8249131574882
 20
135.4129231432301
 30
0.0
 10
148.1277370506417
 20
134.9588595582742
 30
0.0
 10
148.1277370506417
 20
134.9588595582742
 30
0.0
 10
148.8801459046202
 20
134.9392225140083
 30
0.0
 10
149.5822563645142
 20
135.1855468412036
 30
0.0
 10
150.1455294763525
 20
135.6726833428179
 30
0.0
 10
150.3904757653538
 20
135.3963866849009
 30
0.0
 10
150.6519585126842
 20
135.1349039375704
 30
0.0
 10
150.9285996801498
 20
134.8903021581177
 30
0.0
 10
150.4390516116958
 20
134.3414984473174
 30
0.0
 10
150.1903157176608
 20
133.6500677834278
 30
0.0
 10
150.2085747237326
 20
132.9052381395167
 30
0.0
 10
150.2085747237326
 20
132.9052381395167
 30
0.0
 10
150.6371446020977
 20
132.5669297628652
 30
0.0
 10
150.6371446020977
 20
132.5669297628652
 30
0.0
 10
151.3588921062575
 20
132.7808701924992
 30
0.0
 10
151.9504150010749
 20
133.232177701067
 30
0.0
 10
152.3352321667773
 20
133.8695203658382
 30
0.0
 10
152.6535589896144
 20
133.6821071714406
 30
0.0
 10
152.9832546275528
 20
133.5143310213089
 30
0.0
 10
153.3219075137529
 20
133.3672254440887
 30
0.0
 10
153.0259738115699
 20
132.6940537862709
 30
0.0
 10
153.0032361813672
 20
131.9595594288157
 30
0.0
 10
153.2505940372082
 20
131.2567599498247
 30
0.0
 10
153.2505940372082
 20
131.2567599498247
 30
0.0
 10
153.7625352263163
 20
131.067279698136
 30
0.0
 10
153.7625352263163
 20
131.067279698136
 30
0.0
 10
154.3829969232098
 20
131.4937825192099
 30
0.0
 10
154.806399158347
 20
132.1059759869388
 30
0.0
 10
154.9752088371243
 20
132.8311685865839
 30
0.0
 10
155.3359103344299
 20
132.7512423713261
 30
0.0
 10
155.7014349654149
 20
132.6937092767224
 30
0.0
 10
156.0690266536911
 20
132.6585693027729
 30
0.0
 10
155.9953016103067
 20
131.9264865121573
 30
0.0
 10
156.2006293012276
 20
131.2209309567781
 30
0.0
 10
156.6533148479895
 20
130.6290635524122
 30
0.0
 10
156.6533148479895
 20
130.6290635524122
 30
0.0
 10
157.1986734633045
 20
130.6073594508551
 30
0.0
 10
157.1986734633045
 20
130.6073594508551
 30
0.0
 10
157.6568711628427
 20
131.2043944984489
 30
0.0
 10
157.8701225733797
 20
131.9175292638956
 30
0.0
 10
157.8070773259996
 20
132.6592583218699
 30
0.0
 10
158.1746690142758
 20
132.694742805368
 30
0.0
 10
158.5398491357123
 20
132.7529649190687
 30
0.0
 10
158.9002061234694
 20
132.833235643875
 30
0.0
 10
159.0566134584998
 20
132.1142442161034
 30
0.0
 10
159.4700249167297
 20
131.5065293725053
 30
0.0
 10
160.0832519131042
 20
131.0834716469166
 30
0.0
 10
160.0832519131042
 20
131.0834716469166
 30
0.0
 10
160.6086289746048
 20
131.2312662432338
 30
0.0
 10
160.6086289746048
 20
131.2312662432338
 30
0.0
 10
160.8597764354795
 20
131.9409559131953
 30
0.0
 10
160.8425509580533
 20
132.6847520284608
 30
0.0
 10
160.5531629372923
 20
133.3710150491225
 30
0.0
 10
160.8914713139438
 20
133.5184651358912
 30
0.0
 10
161.2211669518822
 20
133.6865857955714
 30
0.0
 10
161.5391492651708
 20
133.873998989969
 30
0.0
 10
161.9098415393836
 20
133.2387233824889
 30
0.0
 10
162.4910291477453
 20
132.7887939121153
 30
0.0
 10
163.2048529322891
 20
132.5758870111269
 30
0.0
 10
163.2048529322891
 20
132.5758870111269
 30
0.0
 10
163.658916517245
 20
132.8787109042803
 30
0.0
 10
163.658916517245
 20
132.8787109042803
 30
0.0
 10
163.6785535615109
 20
133.6314642678074
 30
0.0
 10
163.4322292343156
 20
134.3335747277013
 30
0.0
 10
162.9447482231527
 20
134.8965033299912
 30
0.0
 10
163.2213893906183
 20
135.1414496189924
 30
0.0
 10
163.4828721379487
 20
135.4029323663229
 30
0.0
 10
163.7274739174015
 20
135.6795735337884
 30
0.0
 10
164.2762776282018
 20
135.1900254653345
 30
0.0
 10
164.9677082920914
 20
134.9412895712994
 30
0.0
 10
165.7125379360024
 20
134.9595485773712
 30
0.0
 10
165.7125379360024
 20
134.9595485773712
 30
0.0
 10
166.050846312654
 20
135.3881184557363
 30
0.0
 10
166.050846312654
 20
135.3881184557363
 30
0.0
 10
165.8369058830199
 20
136.1098659598962
 30
0.0
 10
165.3855983744522
 20
136.7013888547135
 30
0.0
 10
164.748255709681
 20
137.0865505299645
 30
0.0
 10
164.9356689040786
 20
137.404532843253
 30
0.0
 10
165.1034450542103
 20
137.73457299074
 30
0.0
 10
165.2502061218819
 20
138.07322587694
 30
0.0
 10
165.9233777796997
 20
137.7769476652086
 30
0.0
 10
166.6582166467035
 20
137.7542100350059
 30
0.0
 10
167.3610161256945
 20
138.0015678908468
 30
0.0
 10
167.3610161256945
 20
138.0015678908468
 30
0.0
 10
167.5501518678347
 20
138.513509079955
 30
0.0
 10
167.5501518678347
 20
138.513509079955
 30
0.0
 10
167.1239935563093
 20
139.1339707768485
 30
0.0
 10
166.5118000885804
 20
139.5573730119857
 30
0.0
 10
165.7866074889353
 20
139.7263549455372
 30
0.0
 10
165.8661891946446
 20
140.0868841880686
 30
0.0
 10
165.9240667987968
 20
140.4522365642793
 30
0.0
 10
165.9592067727463
 20
140.8198282525555
 30
0.0
 10
166.6909450538134
 20
140.7462754639454
 30
0.0
 10
167.3968451187411
 20
140.9517754096405
 30
0.0
 10
167.988712523107
 20
141.4042887016281
 30
0.0
 10
167.988712523107
 20
141.4042887016281
 30
0.0
 10
168.0104166246641
 20
141.9496473169432
 30
0.0
 10
168.0104166246641
 20
141.9496473169432
 30
0.0
 10
167.4133815770703
 20
142.4080172712556
 30
0.0
 10
166.7002468116235
 20
142.6212686817926
 30
0.0
 10
165.9585177536493
 20
142.5580511796383
 30
0.0
 10
165.9226887606027
 20
142.9256428679144
 30
0.0
 10
165.8644666469019
 20
143.2908229893509
 30
0.0
 10
165.7845404316442
 20
143.6513522318823
 30
0.0
 10
166.5031873498673
 20
143.8074150573641
 30
0.0
 10
167.1109021934653
 20
144.2209987703684
 30
0.0
 10
167.533959919054
 20
144.8342257667428
 30
0.0
 10
167.533959919054
 20
144.8342257667428
 30
0.0
 10
167.3861653227368
 20
145.3597750830177
 30
0.0
 10
167.3861653227368
 20
145.3597750830177
 30
0.0
 10
166.6764756527753
 20
145.6110947986667
 30
0.0
 10
165.9326795375099
 20
145.5935248116919
 30
0.0
 10
165.2467610263967
 20
145.3041367909309
 30
0.0
 10
165.099310939628
 20
145.642789677131
 30
0.0
 10
164.9311902799478
 20
145.9721408055209
 30
0.0
 10
164.7434325760017
 20
146.2902953735837
 30
0.0
 10
165.3787081834817
 20
146.6608153930223
 30
0.0
 10
165.8289821634039
 20
147.2418307466097
 30
0.0
 10
166.0418890643923
 20
147.9558267859277
 30
0.0
 10
166.0418890643923
 20
147.9558267859277
 30
0.0
 10
165.7390651712388
 20
148.4098903708837
 30
0.0
 10
165.7390651712388
 20
148.4098903708837
 30
0.0
 10
164.9863118077118
 20
148.4296996699238
 30
0.0
 10
164.2842013478179
 20
148.1833753427285
 30
0.0
 10
163.721272745528
 20
147.6958943315656
 30
0.0
 10
163.4763264565267
 20
147.9723632442569
 30
0.0
 10
163.2144991996478
 20
148.2338459915874
 30
0.0
 10
162.9378580321822
 20
148.4784477710401
 30
0.0
 10
163.4277506101847
 20
149.0270792270662
 30
0.0
 10
163.6761419946712
 20
149.7186821457301
 30
0.0
 10
163.6582274981479
 20
150.4635117896411
 30
0.0
 10
163.6582274981479
 20
150.4635117896411
 30
0.0
 10
163.2296576197829
 20
150.8018201662926
 30
0.0
 10
163.2296576197829
 20
150.8018201662926
 30
0.0
 10
162.507910115623
 20
150.5880519914328
 30
0.0
 10
161.9160427112571
 20
150.1367444828651
 30
0.0
 10
161.5312255455547
 20
149.4992295633196
 30
0.0
 10
161.2128987227176
 20
149.6866427577172
 30
0.0
 10
160.8832030847792
 20
149.8544189078489
 30
0.0
 10
160.5445501985791
 20
150.0013522302948
 30
0.0
 10
160.8408284103106
 20
150.6746961428869
 30
0.0
 10
160.8635660405133
 20
151.4093627551164
 30
0.0
 10
160.6158636751238
 20
152.1119899793331
 30
0.0
 10
160.6158636751238
 20
152.1119899793331
 30
0.0
 10
160.1039224860157
 20
152.3012979762476
 30
0.0
 10
160.1039224860157
 20
152.3012979762476
 30
0.0
 10
159.4834607891222
 20
151.8747951551737
 30
0.0
 10
159.0604030635335
 20
151.262773942219
 30
0.0
 10
158.8912488752077
 20
150.537581342574
 30
0.0
 10
158.5308918874506
 20
150.6173353030575
 30
0.0
 10
158.1653672564656
 20
150.6750406524354
 30
0.0
 10
157.7977755681895
 20
150.7103528811592
 30
0.0
 10
157.8715006115738
 20
151.4420911622263
 30
0.0
 10
157.6658284111044
 20
152.1478189723797
 30
0.0
 10
157.2134873738911
 20
152.7396863767457
 30
0.0
 10
157.2134873738911
 20
152.7396863767457
 30
0.0
 10
156.668128758576
 20
152.7613904783027
 30
0.0
 10
156.668128758576
 20
152.7613904783027
 30
0.0
 10
156.2095865494893
 20
152.1641831759347
 30
0.0
 10
155.9963351389523
 20
151.4513929200365
 30
0.0
 10
156.0597248958809
 20
150.7094916072879
 30
0.0
 10
155.6921332076047
 20
150.6738348690156
 30
0.0
 10
155.3269530861683
 20
150.6156127553149
 30
0.0
 10
154.9662515888626
 20
150.5356865400571
 30
0.0
 10
154.9173312329721
 20
150.9194701771139
 30
0.0
 10
154.7647135029755
 20
151.270008642738
 30
0.0
 10
154.5173556471346
 20
151.5655978353725
 30
0.0
  0
POLYLINE
  5
3F
330
1F
100
AcDbEntity
  8
Layer 1
 62
   217
420
  8269710
370
    25
100
AcDb2dPolyline
 66
     1
 10
0.0
 20
0.0
 30
0.0
  0
VERTEX
  5
40
330
3F
100
AcDbEntity
  8
Layer 1
 62
   217
420
  8269710
370
    25
100
AcDbVertex
100
AcDb2dVertex
 10
73.09700247738547
 20
141.671283601735
 30
0.0
  0
VERTEX
  5
41
330
3F
100
AcDbEntity
  8
Layer 1
 62
   217
420
  8269710
370
    25
100
AcDbVertex
100
AcDb2dVertex
 10
73.09614120351416
 20
141.6449286212728
 30
0.0
  0
VERTEX
  5
42
330
3F
100
AcDbEntity
  8
Layer 1
 62
   217
420
  8269710
370
    25
100
AcDbVertex
100
AcDb2dVertex
 10
73.09441865577153
 20
141.6185736408106
 30
0.0
  0
VERTEX
  5
43
330
3F
100
AcDbEntity
  8
Layer 1
 62
   217
420
  8269710
370
    25
100
AcDbVertex
100
AcDb2dVertex
 10
73.0918348341576
 20
141.5923909151227
 30
0.0
  0
VERTEX
  5
44
330
3F
100
AcDbEntity
  8
Layer 1
 62
   217
420
  8269710
370
    25
100
AcDbVertex
100
AcDb2dVertex
 10
73.08838973867235
 20
141.5662081894348
 30
0.0
  0
VERTEX
  5
45
330
3F
100
AcDbEntity
  8
Layer 1
 62
   217
420
  8269710
370
    25
100
AcDbVertex
100
AcDb2dVertex
 10
73.08391111454152
 20
141.5401977185212
 30
0.0
  0
VERTEX
  5
46
330
3F
100
AcDbEntity
  8
Layer 1
 62
   217
420
  8269710
370
    25
100
AcDbVertex
100
AcDb2dVertex
 10
73.07874347131366
 20
141.5143595023818
 30
0.0
  0
VERTEX
  5
47
330
3F
100
AcDbEntity
  8
Layer 1
 62
   217
420
  8269710
370
    25
100
AcDbVertex
100
AcDb2dVertex
 10
73.0725422994402
 20
141.4886935410167
 30
0.0
  0
VERTEX
  5
48
330
3F
100
AcDbEntity
  8
Layer 1
 62
   217
420
  8269710
370
    25
100
AcDbVertex
100
AcDb2dVertex
 10
73.0656521084697
 20
141.4631998344259
 30
0.0
  0
VERTEX
  5
49
330
3F
100
AcDbEntity
  8
Layer 1
 62
   217
420
  8269710
370
    25
100
AcDbVertex
100
AcDb2dVertex
 10
73.05790064362789
 20
141.4380506373836
 30
0.0
  0
VERTEX
  5
4A
330
3F
100
AcDbEntity
  8
Layer 1
 62
   217
420
  8269710
370
    25
100
AcDbVertex
100
AcDb2dVertex
 10
73.04928790491476
 20
141.4132459498898
 30
0.0
  0
VERTEX
  5
4B
330
3F
100
AcDbEntity
  8
Layer 1
 62
   217
420
  8269710
370
    25
100
AcDbVertex
100
AcDb2dVertex
 10
73.03981389233033
 20
141.3886135171702
 30
0.0
  0
VERTEX
  5
4C
330
3F
100
AcDbEntity
  8
Layer 1
 62
   217
420
  8269710
370
    25
100
AcDbVertex
100
AcDb2dVertex
 10
73.02947860587457
 20
141.3643255939992
 30
0.0
  0
VERTEX
  5
4D
330
3F
100
AcDbEntity
  8
Layer 1
 62
   217
420
  8269710
370
    25
100
AcDbVertex
100
AcDb2dVertex
 10
73.01845430032178
 20
141.3403821803767
 30
0.0
  0
VERTEX
  5
4E
330
3F
100
AcDbEntity
  8
Layer 1
 62
   217
420
  8269710
370
    25
100
AcDbVertex
100
AcDb2dVertex
 10
73.00656872089766
 20
141.3167832763027
 30
0.0
  0
VERTEX
  5
4F
330
3F
100
AcDbEntity
  8
Layer 1
 62
   217
420
  8269710
370
    25
100
AcDbVertex
100
AcDb2dVertex
 10
72.9939941223765
 20
141.2935288817773
 30
0.0
  0
VERTEX
  5
50
330
3F
100
AcDbEntity
  8
Layer 1
 62
   217
420
  8269710
370
    25
100
AcDbVertex
100
AcDb2dVertex
 10
72.98055824998403
 20
141.2709635063489
 30
0.0
  0
VERTEX
  5
51
330
3F
100
AcDbEntity
  8
Layer 1
 62
   217
420
  8269710
370
    25
100
AcDbVertex
100
AcDb2dVertex
 10
72.96643335849451
 20
141.2485703856948
 30
0.0
  0
VERTEX
  5
52
330
3F
100
AcDbEntity
  8
Layer 1
 62
   217
420
  8269710
370
    25
100
AcDbVertex
100
AcDb2dVertex
 10
72.95144719313367
 20
141.2268662841377
 30
0.0
  0
VERTEX
  5
53
330
3F
100
AcDbEntity
  8
Layer 1
 62
   217
420
  8269710
370
    25
100
AcDbVertex
100
AcDb2dVertex
 10
72.93594426345004
 20
141.2056789469034
 30
0.0
  0
VERTEX
  5
54
330
3F
100
AcDbEntity
  8
Layer 1
 62
   217
420
  8269710
370
    25
100
AcDbVertex
100
AcDb2dVertex
 10
72.91958005989511
 20
141.1848361192177
 30
0.0
  0
VERTEX
  5
55
330
3F
100
AcDbEntity
  8
Layer 1
 62
   217
420
  8269710
370
    25
100
AcDbVertex
100
AcDb2dVertex
 10
72.90269909201739
 20
141.164682310629
 30
0.0
  0
VERTEX
  5
56
330
3F
100
AcDbEntity
  8
Layer 1
 62
   217
420
  8269710
370
    25
100
AcDbVertex
100
AcDb2dVertex
 10
72.88495685026835
 20
141.145045266363
 30
0.0
  0
VERTEX
  5
57
330
3F
100
AcDbEntity
  8
Layer 1
 62
   217
420
  8269710
370
    25
100
AcDbVertex
100
AcDb2dVertex
 10
72.86669784419652
 20
141.1260972411942
 30
0.0
  0
VERTEX
  5
58
330
3F
100
AcDbEntity
  8
Layer 1
 62
   217
420
  8269710
370
    25
100
AcDbVertex
100
AcDb2dVertex
 10
72.84774981902765
 20
141.1076659803481
 30
0.0
  0
VERTEX
  5
59
330
3F
100
AcDbEntity
  8
Layer 1
 62
   217
420
  8269710
370
    25
100
AcDbVertex
100
AcDb2dVertex
 10
72.82828502953599
 20
141.0899237385991
 30
0.0
  0
VERTEX
  5
5A
330
3F
100
AcDbEntity
  8
Layer 1
 62
   217
420
  8269710
370
    25
100
AcDbVertex
100
AcDb2dVertex
 10
72.80813122094727
 20
141.0728705159471
 30
0.0
  0
VERTEX
  5
5B
330
3F
100
AcDbEntity
  8
Layer 1
 62
   217
420
  8269710
370
    25
100
AcDbVertex
100
AcDb2dVertex
 10
72.78746064803578
 20
141.0565063123921
 30
0.0
  0
VERTEX
  5
5C
330
3F
100
AcDbEntity
  8
Layer 1
 62
   217
420
  8269710
370
    25
100
AcDbVertex
100
AcDb2dVertex
 10
72.7662733108015
 20
141.0408311279342
 30
0.0
  0
VERTEX
  5
5D
330
3F
100
AcDbEntity
  8
Layer 1
 62
   217
420
  8269710
370
    25
100
AcDbVertex
100
AcDb2dVertex
 10
72.74456920924442
 20
141.0258449625734
 30
0.0
  0
VERTEX
  5
5E
330
3F
100
AcDbEntity
  8
Layer 1
 62
   217
420
  8269710
370
    25
100
AcDbVertex
100
AcDb2dVertex
 10
72.72234834336456
 20
141.0115478163096
 30
0.0
  0
VERTEX
  5
5F
330
3F
100
AcDbEntity
  8
Layer 1
 62
   217
420
  8269710
370
    25
100
AcDbVertex
100
AcDb2dVertex
 10
72.69978296793617
 20
140.9981119439171
 30
0.0
  0
VERTEX
  5
60
330
3F
100
AcDbEntity
  8
Layer 1
 62
   217
420
  8269710
370
    25
100
AcDbVertex
100
AcDb2dVertex
 10
72.67670082818499
 20
140.9853650906217
 30
0.0
  0
VERTEX
  5
61
330
3F
100
AcDbEntity
  8
Layer 1
 62
   217
420
  8269710
370
    25
100
AcDbVertex
100
AcDb2dVertex
 10
72.65310192411103
 20
140.9733072564233
 30
0.0
  0
VERTEX
  5
62
330
3F
100
AcDbEntity
  8
Layer 1
 62
   217
420
  8269710
370
    25
100
AcDbVertex
100
AcDb2dVertex
 10
72.62933076526281
 20
140.9621106960963
 30
0.0
  0
VERTEX
  5
63
330
3F
100
AcDbEntity
  8
Layer 1
 62
   217
420
  8269710
370
    25
100
AcDbVertex
100
AcDb2dVertex
 10
72.6050428420918
 20
140.9517754096405
 30
0.0
  0
VERTEX
  5
64
330
3F
100
AcDbEntity
  8
Layer 1
 62
   217
420
  8269710
370
    25
100
AcDbVertex
100
AcDb2dVertex
 10
72.58041040937226
 20
140.9423013970561
 30
0.0
  0
VERTEX
  5
65
330
3F
100
AcDbEntity
  8
Layer 1
 62
   217
420
  8269710
370
    25
100
AcDbVertex
100
AcDb2dVertex
 10
72.55560572187846
 20
140.9335164035687
 30
0.0
  0
VERTEX
  5
66
330
3F
100
AcDbEntity
  8
Layer 1
 62
   217
420
  8269710
370
    25
100
AcDbVertex
100
AcDb2dVertex
 10
72.53045652483614
 20
140.9255926839526
 30
0.0
  0
VERTEX
  5
67
330
3F
100
AcDbEntity
  8
Layer 1
 62
   217
420
  8269710
370
    25
100
AcDbVertex
100
AcDb2dVertex
 10
72.50496281824529
 20
140.9185302382079
 30
0.0
  0
VERTEX
  5
68
330
3F
100
AcDbEntity
  8
Layer 1
 62
   217
420
  8269710
370
    25
100
AcDbVertex
100
AcDb2dVertex
 10
72.47929685688018
 20
140.9123290663344
 30
0.0
  0
VERTEX
  5
69
330
3F
100
AcDbEntity
  8
Layer 1
 62
   217
420
  8269710
370
    25
100
AcDbVertex
100
AcDb2dVertex
 10
72.4534586407408
 20
140.9069891683323
 30
0.0
  0
VERTEX
  5
6A
330
3F
100
AcDbEntity
  8
Layer 1
 62
   217
420
  8269710
370
    25
100
AcDbVertex
100
AcDb2dVertex
 10
72.42744816982717
 20
140.9025105442015
 30
0.0
  0
VERTEX
  5
6B
330
3F
100
AcDbEntity
  8
Layer 1
 62
   217
420
  8269710
370
    25
100
AcDbVertex
100
AcDb2dVertex
 10
72.40143769891353
 20
140.8988931939419
 30
0.0
  0
VERTEX
  5
6C
330
3F
100
AcDbEntity
  8
Layer 1
 62
   217
420
  8269710
370
    25
100
AcDbVertex
100
AcDb2dVertex
 10
72.37508271845137
 20
140.8961371175538
 30
0.0
  0
VERTEX
  5
6D
330
3F
100
AcDbEntity
  8
Layer 1
 62
   217
420
  8269710
370
    25
100
AcDbVertex
100
AcDb2dVertex
 10
72.34889999276348
 20
140.8942423150368
 30
0.0
  0
VERTEX
  5
6E
330
3F
100
AcDbEntity
  8
Layer 1
 62
   217
420
  8269710
370
    25
100
AcDbVertex
100
AcDb2dVertex
 10
72.3225450123013
 20
140.8932087863913
 30
0.0
  0
VERTEX
  5
6F
330
3F
100
AcDbEntity
  8
Layer 1
 62
   217
420
  8269710
370
    25
100
AcDbVertex
100
AcDb2dVertex
 10
72.29619003183915
 20
140.8932087863913
 30
0.0
  0
VERTEX
  5
70
330
3F
100
AcDbEntity
  8
Layer 1
 62
   217
420
  8269710
370
    25
100
AcDbVertex
100
AcDb2dVertex
 10
72.26983505137699
 20
140.8938978054883
 30
0.0
  0
VERTEX
  5
71
330
3F
100
AcDbEntity
  8
Layer 1
 62
   217
420
  8269710
370
    25
100
AcDbVertex
100
AcDb2dVertex
 10
72.24348007091483
 20
140.895620353231
 30
0.0
  0
VERTEX
  5
72
330
3F
100
AcDbEntity
  8
Layer 1
 62
   217
420
  8269710
370
    25
100
AcDbVertex
100
AcDb2dVertex
 10
72.21712509045267
 20
140.8980319200707
 30
0.0
  0
VERTEX
  5
73
330
3F
100
AcDbEntity
  8
Layer 1
 62
   217
420
  8269710
370
    25
100
AcDbVertex
100
AcDb2dVertex
 10
72.19094236476477
 20
140.9014770155559
 30
0.0
  0
VERTEX
  5
74
330
3F
100
AcDbEntity
  8
Layer 1
 62
   217
420
  8269710
370
    25
100
AcDbVertex
100
AcDb2dVertex
 10
72.16493189385113
 20
140.9057833849124
 30
0.0
  0
VERTEX
  5
75
330
3F
100
AcDbEntity
  8
Layer 1
 62
   217
420
  8269710
370
    25
100
AcDbVertex
100
AcDb2dVertex
 10
72.13909367771176
 20
140.9109510281403
 30
0.0
  0
VERTEX
  5
76
330
3F
100
AcDbEntity
  8
Layer 1
 62
   217
420
  8269710
370
    25
100
AcDbVertex
100
AcDb2dVertex
 10
72.11342771634665
 20
140.9168076904652
 30
0.0
  0
VERTEX
  5
77
330
3F
100
AcDbEntity
  8
Layer 1
 62
   217
420
  8269710
370
    25
100
AcDbVertex
100
AcDb2dVertex
 10
72.0879340097558
 20
140.9236978814357
 30
0.0
  0
VERTEX
  5
78
330
3F
100
AcDbEntity
  8
Layer 1
 62
   217
420
  8269710
370
    25
100
AcDbVertex
100
AcDb2dVertex
 10
72.06278481271347
 20
140.9314493462776
 30
0.0
  0
VERTEX
  5
79
330
3F
100
AcDbEntity
  8
Layer 1
 62
   217
420
  8269710
370
    25
100
AcDbVertex
100
AcDb2dVertex
 10
72.0378078704454
 20
140.9398898302164
 30
0.0
  0
VERTEX
  5
7A
330
3F
100
AcDbEntity
  8
Layer 1
 62
   217
420
  8269710
370
    25
100
AcDbVertex
100
AcDb2dVertex
 10
72.01317543772588
 20
140.9491915880266
 30
0.0
  0
VERTEX
  5
7B
330
3F
100
AcDbEntity
  8
Layer 1
 62
   217
420
  8269710
370
    25
100
AcDbVertex
100
AcDb2dVertex
 10
71.9887152597806
 20
140.9595268744823
 30
0.0
  0
VERTEX
  5
7C
330
3F
100
AcDbEntity
  8
Layer 1
 62
   217
420
  8269710
370
    25
100
AcDbVertex
100
AcDb2dVertex
 10
71.96477184615811
 20
140.9703789252609
 30
0.0
  0
VERTEX
  5
7D
330
3F
100
AcDbEntity
  8
Layer 1
 62
   217
420
  8269710
370
    25
100
AcDbVertex
100
AcDb2dVertex
 10
71.94117294208415
 20
140.982264504685
 30
0.0
  0
VERTEX
  5
7E
330
3F
100
AcDbEntity
  8
Layer 1
 62
   217
420
  8269710
370
    25
100
AcDbVertex
100
AcDb2dVertex
 10
71.91791854755871
 20
140.9946668484319
 30
0.0
  0
VERTEX
  5
7F
330
3F
100
AcDbEntity
  8
Layer 1
 62
   217
420
  8269710
370
    25
100
AcDbVertex
100
AcDb2dVertex
 10
71.89518091735607
 20
141.0081027208244
 30
0.0
  0
VERTEX
  5
80
330
3F
100
AcDbEntity
  8
Layer 1
 62
   217
420
  8269710
370
    25
100
AcDbVertex
100
AcDb2dVertex
 10
71.87296005147621
 20
141.0220553575396
 30
0.0
  0
VERTEX
  5
81
330
3F
100
AcDbEntity
  8
Layer 1
 62
   217
420
  8269710
370
    25
100
AcDbVertex
100
AcDb2dVertex
 10
71.85108369514487
 20
141.0368692681262
 30
0.0
  0
VERTEX
  5
82
330
3F
100
AcDbEntity
  8
Layer 1
 62
   217
420
  8269710
370
    25
100
AcDbVertex
100
AcDb2dVertex
 10
71.82972410313633
 20
141.0523721978098
 30
0.0
  0
VERTEX
  5
83
330
3F
100
AcDbEntity
  8
Layer 1
 62
   217
420
  8269710
370
    25
100
AcDbVertex
100
AcDb2dVertex
 10
71.80888127545056
 20
141.0685641465905
 30
0.0
  0
VERTEX
  5
84
330
3F
100
AcDbEntity
  8
Layer 1
 62
   217
420
  8269710
370
    25
100
AcDbVertex
100
AcDb2dVertex
 10
71.78872746686184
 20
141.0856173692425
 30
0.0
  0
VERTEX
  5
85
330
3F
100
AcDbEntity
  8
Layer 1
 62
   217
420
  8269710
370
    25
100
AcDbVertex
100
AcDb2dVertex
 10
71.76909042259592
 20
141.1031873562173
 30
0.0
  0
VERTEX
  5
86
330
3F
100
AcDbEntity
  8
Layer 1
 62
   217
420
  8269710
370
    25
100
AcDbVertex
100
AcDb2dVertex
 10
71.74997014265278
 20
141.1212741075148
 30
0.0
  0
VERTEX
  5
87
330
3F
100
AcDbEntity
  8
Layer 1
 62
   217
420
  8269710
370
    25
100
AcDbVertex
100
AcDb2dVertex
 10
71.7315388818067
 20
141.1402221326837
 30
0.0
  0
VERTEX
  5
88
330
3F
100
AcDbEntity
  8
Layer 1
 62
   217
420
  8269710
370
    25
100
AcDbVertex
100
AcDb2dVertex
 10
71.7136243852834
 20
141.1596869221754
 30
0.0
  0
VERTEX
  5
89
330
3F
100
AcDbEntity
  8
Layer 1
 62
   217
420
  8269710
370
    25
100
AcDbVertex
100
AcDb2dVertex
 10
71.69657116263141
 20
141.1796684759898
 30
0.0
  0
VERTEX
  5
8A
330
3F
100
AcDbEntity
  8
Layer 1
 62
   217
420
  8269710
370
    25
100
AcDbVertex
100
AcDb2dVertex
 10
71.68003470430222
 20
141.2001667941271
 30
0.0
  0
VERTEX
  5
8B
330
3F
100
AcDbEntity
  8
Layer 1
 62
   217
420
  8269710
370
    25
100
AcDbVertex
100
AcDb2dVertex
 10
71.66418726507007
 20
141.2213541313613
 30
0.0
  0
VERTEX
  5
8C
330
3F
100
AcDbEntity
  8
Layer 1
 62
   217
420
  8269710
370
    25
100
AcDbVertex
100
AcDb2dVertex
 10
71.64920109970923
 20
141.2430582329184
 30
0.0
  0
VERTEX
  5
8D
330
3F
100
AcDbEntity
  8
Layer 1
 62
   217
420
  8269710
370
    25
100
AcDbVertex
100
AcDb2dVertex
 10
71.63490395344544
 20
141.265106844024
 30
0.0
  0
VERTEX
  5
8E
330
3F
100
AcDbEntity
  8
Layer 1
 62
   217
420
  8269710
370
    25
100
AcDbVertex
100
AcDb2dVertex
 10
71.62129582627871
 20
141.2876722194524
 30
0.0
  0
VERTEX
  5
8F
330
3F
100
AcDbEntity
  8
Layer 1
 62
   217
420
  8269710
370
    25
100
AcDbVertex
100
AcDb2dVertex
 10
71.60837671820902
 20
141.3107543592036
 30
0.0
  0
VERTEX
  5
90
330
3F
100
AcDbEntity
  8
Layer 1
 62
   217
420
  8269710
370
    25
100
AcDbVertex
100
AcDb2dVertex
 10
71.59631888401064
 20
141.3341810085033
 30
0.0
  0
VERTEX
  5
91
330
3F
100
AcDbEntity
  8
Layer 1
 62
   217
420
  8269710
370
    25
100
AcDbVertex
100
AcDb2dVertex
 10
71.58512232368358
 20
141.3581244221257
 30
0.0
  0
VERTEX
  5
92
330
3F
100
AcDbEntity
  8
Layer 1
 62
   217
420
  8269710
370
    25
100
AcDbVertex
100
AcDb2dVertex
 10
71.57461478245357
 20
141.3822400905225
 30
0.0
  0
VERTEX
  5
93
330
3F
100
AcDbEntity
  8
Layer 1
 62
   217
420
  8269710
370
    25
100
AcDbVertex
100
AcDb2dVertex
 10
71.56496851509488
 20
141.406872523242
 30
0.0
  0
VERTEX
  5
94
330
3F
100
AcDbEntity
  8
Layer 1
 62
   217
420
  8269710
370
    25
100
AcDbVertex
100
AcDb2dVertex
 10
71.55601126683322
 20
141.4316772107358
 30
0.0
  0
VERTEX
  5
95
330
3F
100
AcDbEntity
  8
Layer 1
 62
   217
420
  8269710
370
    25
100
AcDbVertex
100
AcDb2dVertex
 10
71.54808754721715
 20
141.4568264077782
 30
0.0
  0
VERTEX
  5
96
330
3F
100
AcDbEntity
  8
Layer 1
 62
   217
420
  8269710
370
    25
100
AcDbVertex
100
AcDb2dVertex
 10
71.54085284669813
 20
141.4821478595948
 30
0.0
  0
VERTEX
  5
97
330
3F
100
AcDbEntity
  8
Layer 1
 62
   217
420
  8269710
370
    25
100
AcDbVertex
100
AcDb2dVertex
 10
71.53465167482467
 20
141.5078138209599
 30
0.0
  0
VERTEX
  5
98
330
3F
100
AcDbEntity
  8
Layer 1
 62
   217
420
  8269710
370
    25
100
AcDbVertex
100
AcDb2dVertex
 10
71.52913952204827
 20
141.5336520370992
 30
0.0
  0
VERTEX
  5
99
330
3F
100
AcDbEntity
  8
Layer 1
 62
   217
420
  8269710
370
    25
100
AcDbVertex
100
AcDb2dVertex
 10
71.52448864314319
 20
141.5594902532386
 30
0.0
  0
VERTEX
  5
9A
330
3F
100
AcDbEntity
  8
Layer 1
 62
   217
420
  8269710
370
    25
100
AcDbVertex
100
AcDb2dVertex
 10
71.52087129288367
 20
141.5856729789265
 30
0.0
  0
VERTEX
  5
9B
330
3F
100
AcDbEntity
  8
Layer 1
 62
   217
420
  8269710
370
    25
100
AcDbVertex
100
AcDb2dVertex
 10
71.51794296172122
 20
141.6118557046144
 30
0.0
  0
VERTEX
  5
9C
330
3F
100
AcDbEntity
  8
Layer 1
 62
   217
420
  8269710
370
    25
100
AcDbVertex
100
AcDb2dVertex
 10
71.51604815920433
 20
141.6382106850766
 30
0.0
  0
VERTEX
  5
9D
330
3F
100
AcDbEntity
  8
Layer 1
 62
   217
420
  8269710
370
    25
100
AcDbVertex
100
AcDb2dVertex
 10
71.51484237578448
 20
141.6645656655387
 30
0.0
  0
VERTEX
  5
9E
330
3F
100
AcDbEntity
  8
Layer 1
 62
   217
420
  8269710
370
    25
100
AcDbVertex
100
AcDb2dVertex
 10
71.51467012101023
 20
141.6909206460009
 30
0.0
  0
VERTEX
  5
9F
330
3F
100
AcDbEntity
  8
Layer 1
 62
   217
420
  8269710
370
    25
100
AcDbVertex
100
AcDb2dVertex
 10
71.51535914010728
 20
141.717275626463
 30
0.0
  0
VERTEX
  5
A0
330
3F
100
AcDbEntity
  8
Layer 1
 62
   217
420
  8269710
370
    25
100
AcDbVertex
100
AcDb2dVertex
 10
71.51690943307564
 20
141.7436306069252
 30
0.0
  0
VERTEX
  5
A1
330
3F
100
AcDbEntity
  8
Layer 1
 62
   217
420
  8269710
370
    25
100
AcDbVertex
100
AcDb2dVertex
 10
71.51932099991531
 20
141.7698133326131
 30
0.0
  0
VERTEX
  5
A2
330
3F
100
AcDbEntity
  8
Layer 1
 62
   217
420
  8269710
370
    25
100
AcDbVertex
100
AcDb2dVertex
 10
71.5225938406263
 20
141.795996058301
 30
0.0
  0
VERTEX
  5
A3
330
3F
100
AcDbEntity
  8
Layer 1
 62
   217
420
  8269710
370
    25
100
AcDbVertex
100
AcDb2dVertex
 10
71.5267279552086
 20
141.8220065292146
 30
0.0
  0
VERTEX
  5
A4
330
3F
100
AcDbEntity
  8
Layer 1
 62
   217
420
  8269710
370
    25
100
AcDbVertex
100
AcDb2dVertex
 10
71.53172334366221
 20
141.8480170001283
 30
0.0
  0
VERTEX
  5
A5
330
3F
100
AcDbEntity
  8
Layer 1
 62
   217
420
  8269710
370
    25
100
AcDbVertex
100
AcDb2dVertex
 10
71.53758000598714
 20
141.8736829614934
 30
0.0
  0
VERTEX
  5
A6
330
3F
100
AcDbEntity
  8
Layer 1
 62
   217
420
  8269710
370
    25
100
AcDbVertex
100
AcDb2dVertex
 10
71.54429794218338
 20
141.8991766680842
 30
0.0
  0
VERTEX
  5
A7
330
3F
100
AcDbEntity
  8
Layer 1
 62
   217
420
  8269710
370
    25
100
AcDbVertex
100
AcDb2dVertex
 10
71.55187715225092
 20
141.9244981199008
 30
0.0
  0
VERTEX
  5
A8
330
3F
100
AcDbEntity
  8
Layer 1
 62
   217
420
  8269710
370
    25
100
AcDbVertex
100
AcDb2dVertex
 10
71.56031763618978
 20
141.9494750621689
 30
0.0
  0
VERTEX
  5
A9
330
3F
100
AcDbEntity
  8
Layer 1
 62
   217
420
  8269710
370
    25
100
AcDbVertex
100
AcDb2dVertex
 10
71.56961939399996
 20
141.9741074948884
 30
0.0
  0
VERTEX
  5
AA
330
3F
100
AcDbEntity
  8
Layer 1
 62
   217
420
  8269710
370
    25
100
AcDbVertex
100
AcDb2dVertex
 10
71.57961017090719
 20
141.9985676728337
 30
0.0
  0
VERTEX
  5
AB
330
3F
100
AcDbEntity
  8
Layer 1
 62
   217
420
  8269710
370
    25
100
AcDbVertex
100
AcDb2dVertex
 10
71.59063447645998
 20
142.0225110864562
 30
0.0
  0
VERTEX
  5
AC
330
3F
100
AcDbEntity
  8
Layer 1
 62
   217
420
  8269710
370
    25
100
AcDbVertex
100
AcDb2dVertex
 10
71.60217554633557
 20
142.0461099905301
 30
0.0
  0
VERTEX
  5
AD
330
3F
100
AcDbEntity
  8
Layer 1
 62
   217
420
  8269710
370
    25
100
AcDbVertex
100
AcDb2dVertex
 10
71.61475014485673
 20
142.0693643850556
 30
0.0
  0
VERTEX
  5
AE
330
3F
100
AcDbEntity
  8
Layer 1
 62
   217
420
  8269710
370
    25
100
AcDbVertex
100
AcDb2dVertex
 10
71.62784150770068
 20
142.0922742700325
 30
0.0
  0
VERTEX
  5
AF
330
3F
100
AcDbEntity
  8
Layer 1
 62
   217
420
  8269710
370
    25
100
AcDbVertex
100
AcDb2dVertex
 10
71.64179414441594
 20
142.1146673906866
 30
0.0
  0
VERTEX
  5
B0
330
3F
100
AcDbEntity
  8
Layer 1
 62
   217
420
  8269710
370
    25
100
AcDbVertex
100
AcDb2dVertex
 10
71.65660805500252
 20
142.136543747018
 30
0.0
  0
VERTEX
  5
B1
330
3F
100
AcDbEntity
  8
Layer 1
 62
   217
420
  8269710
370
    25
100
AcDbVertex
100
AcDb2dVertex
 10
71.67193872991189
 20
142.1579033390265
 30
0.0
  0
VERTEX
  5
B2
330
3F
100
AcDbEntity
  8
Layer 1
 62
   217
420
  8269710
370
    25
100
AcDbVertex
100
AcDb2dVertex
 10
71.68813067869256
 20
142.1787461667123
 30
0.0
  0
VERTEX
  5
B3
330
3F
100
AcDbEntity
  8
Layer 1
 62
   217
420
  8269710
370
    25
100
AcDbVertex
100
AcDb2dVertex
 10
71.70501164657028
 20
142.1990722300752
 30
0.0
  0
VERTEX
  5
B4
330
3F
100
AcDbEntity
  8
Layer 1
 62
   217
420
  8269710
370
    25
100
AcDbVertex
100
AcDb2dVertex
 10
71.72240937877079
 20
142.2188815291154
 30
0.0
  0
VERTEX
  5
B5
330
3F
100
AcDbEntity
  8
Layer 1
 62
   217
420
  8269710
370
    25
100
AcDbVertex
100
AcDb2dVertex
 10
71.7406683848426
 20
142.2380018090586
 30
0.0
  0
VERTEX
  5
B6
330
3F
100
AcDbEntity
  8
Layer 1
 62
   217
420
  8269710
370
    25
100
AcDbVertex
100
AcDb2dVertex
 10
71.75927190046296
 20
142.2566053246789
 30
0.0
  0
VERTEX
  5
B7
330
3F
100
AcDbEntity
  8
Layer 1
 62
   217
420
  8269710
370
    25
100
AcDbVertex
100
AcDb2dVertex
 10
71.77873668995463
 20
142.2743475664279
 30
0.0
  0
VERTEX
  5
B8
330
3F
100
AcDbEntity
  8
Layer 1
 62
   217
420
  8269710
370
    25
100
AcDbVertex
100
AcDb2dVertex
 10
71.79871824376907
 20
142.2917452986285
 30
0.0
  0
VERTEX
  5
B9
330
3F
100
AcDbEntity
  8
Layer 1
 62
   217
420
  8269710
370
    25
100
AcDbVertex
100
AcDb2dVertex
 10
71.81921656190632
 20
142.3082817569577
 30
0.0
  0
VERTEX
  5
BA
330
3F
100
AcDbEntity
  8
Layer 1
 62
   217
420
  8269710
370
    25
100
AcDbVertex
100
AcDb2dVertex
 10
71.84023164436634
 20
142.3241291961898
 30
0.0
  0
VERTEX
  5
BB
330
3F
100
AcDbEntity
  8
Layer 1
 62
   217
420
  8269710
370
    25
100
AcDbVertex
100
AcDb2dVertex
 10
71.86176349114915
 20
142.3392876163249
 30
0.0
  0
VERTEX
  5
BC
330
3F
100
AcDbEntity
  8
Layer 1
 62
   217
420
  8269710
370
    25
100
AcDbVertex
100
AcDb2dVertex
 10
71.88398435702901
 20
142.353757017363
 30
0.0
  0
VERTEX
  5
BD
330
3F
100
AcDbEntity
  8
Layer 1
 62
   217
420
  8269710
370
    25
100
AcDbVertex
100
AcDb2dVertex
 10
71.90637747768314
 20
142.3673651445297
 30
0.0
  0
VERTEX
  5
BE
330
3F
100
AcDbEntity
  8
Layer 1
 62
   217
420
  8269710
370
    25
100
AcDbVertex
100
AcDb2dVertex
 10
71.9294596174343
 20
142.3802842525994
 30
0.0
  0
VERTEX
  5
BF
330
3F
100
AcDbEntity
  8
Layer 1
 62
   217
420
  8269710
370
    25
100
AcDbVertex
100
AcDb2dVertex
 10
71.952886266734
 20
142.392514341572
 30
0.0
  0
VERTEX
  5
C0
330
3F
100
AcDbEntity
  8
Layer 1
 62
   217
420
  8269710
370
    25
100
AcDbVertex
100
AcDb2dVertex
 10
71.97665742558223
 20
142.4038831566733
 30
0.0
  0
VERTEX
  5
C1
330
3F
100
AcDbEntity
  8
Layer 1
 62
   217
420
  8269710
370
    25
100
AcDbVertex
100
AcDb2dVertex
 10
72.00077309397898
 20
142.4143906979033
 30
0.0
  0
VERTEX
  5
C2
330
3F
100
AcDbEntity
  8
Layer 1
 62
   217
420
  8269710
370
    25
100
AcDbVertex
100
AcDb2dVertex
 10
72.02523327192425
 20
142.4242092200363
 30
0.0
  0
VERTEX
  5
C3
330
3F
100
AcDbEntity
  8
Layer 1
 62
   217
420
  8269710
370
    25
100
AcDbVertex
100
AcDb2dVertex
 10
72.05003795941805
 20
142.433166468298
 30
0.0
  0
VERTEX
  5
C4
330
3F
100
AcDbEntity
  8
Layer 1
 62
   217
420
  8269710
370
    25
100
AcDbVertex
100
AcDb2dVertex
 10
72.07518715646037
 20
142.4412624426883
 30
0.0
  0
VERTEX
  5
C5
330
3F
100
AcDbEntity
  8
Layer 1
 62
   217
420
  8269710
370
    25
100
AcDbVertex
100
AcDb2dVertex
 10
72.10050860827695
 20
142.4484971432073
 30
0.0
  0
VERTEX
  5
C6
330
3F
100
AcDbEntity
  8
Layer 1
 62
   217
420
  8269710
370
    25
100
AcDbVertex
100
AcDb2dVertex
 10
72.12617456964207
 20
142.454870569855
 30
0.0
  0
VERTEX
  5
C7
330
3F
100
AcDbEntity
  8
Layer 1
 62
   217
420
  8269710
370
    25
100
AcDbVertex
100
AcDb2dVertex
 10
72.15201278578145
 20
142.4605549774057
 30
0.0
  0
VERTEX
  5
C8
330
3F
100
AcDbEntity
  8
Layer 1
 62
   217
420
  8269710
370
    25
100
AcDbVertex
100
AcDb2dVertex
 10
72.17785100192081
 20
142.4652058563108
 30
0.0
  0
VERTEX
  5
C9
330
3F
100
AcDbEntity
  8
Layer 1
 62
   217
420
  8269710
370
    25
100
AcDbVertex
100
AcDb2dVertex
 10
72.20403372760872
 20
142.4689954613446
 30
0.0
  0
VERTEX
  5
CA
330
3F
100
AcDbEntity
  8
Layer 1
 62
   217
420
  8269710
370
    25
100
AcDbVertex
100
AcDb2dVertex
 10
72.23021645329662
 20
142.471923792507
 30
0.0
  0
VERTEX
  5
CB
330
3F
100
AcDbEntity
  8
Layer 1
 62
   217
420
  8269710
370
    25
100
AcDbVertex
100
AcDb2dVertex
 10
72.25639917898451
 20
142.4741631045724
 30
0.0
  0
VERTEX
  5
CC
330
3F
100
AcDbEntity
  8
Layer 1
 62
   217
420
  8269710
370
    25
100
AcDbVertex
100
AcDb2dVertex
 10
72.28275415944668
 20
142.4753688879923
 30
0.0
  0
VERTEX
  5
CD
330
3F
100
AcDbEntity
  8
Layer 1
 62
   217
420
  8269710
370
    25
100
AcDbVertex
100
AcDb2dVertex
 10
72.30910913990884
 20
142.4757133975408
 30
0.0
  0
VERTEX
  5
CE
330
3F
100
AcDbEntity
  8
Layer 1
 62
   217
420
  8269710
370
    25
100
AcDbVertex
100
AcDb2dVertex
 10
72.33563637514526
 20
142.4750243784437
 30
0.0
  0
VERTEX
  5
CF
330
3F
100
AcDbEntity
  8
Layer 1
 62
   217
420
  8269710
370
    25
100
AcDbVertex
100
AcDb2dVertex
 10
72.36181910083316
 20
142.4736463402496
 30
0.0
  0
VERTEX
  5
D0
330
3F
100
AcDbEntity
  8
Layer 1
 62
   217
420
  8269710
370
    25
100
AcDbVertex
100
AcDb2dVertex
 10
72.38817408129532
 20
142.4714070281842
 30
0.0
  0
VERTEX
  5
D1
330
3F
100
AcDbEntity
  8
Layer 1
 62
   217
420
  8269710
370
    25
100
AcDbVertex
100
AcDb2dVertex
 10
72.41435680698322
 20
142.4681341874733
 30
0.0
  0
VERTEX
  5
D2
330
3F
100
AcDbEntity
  8
Layer 1
 62
   217
420
  8269710
370
    25
100
AcDbVertex
100
AcDb2dVertex
 10
72.44036727789685
 20
142.4641723276652
 30
0.0
  0
VERTEX
  5
D3
330
3F
100
AcDbEntity
  8
Layer 1
 62
   217
420
  8269710
370
    25
100
AcDbVertex
100
AcDb2dVertex
 10
72.46637774881049
 20
142.4591769392116
 30
0.0
  0
VERTEX
  5
D4
330
3F
100
AcDbEntity
  8
Layer 1
 62
   217
420
  8269710
370
    25
100
AcDbVertex
100
AcDb2dVertex
 10
72.49204371017561
 20
142.4534925316609
 30
0.0
  0
VERTEX
  5
D5
330
3F
100
AcDbEntity
  8
Layer 1
 62
   217
420
  8269710
370
    25
100
AcDbVertex
100
AcDb2dVertex
 10
72.51753741676646
 20
142.4467745954647
 30
0.0
  0
VERTEX
  5
D6
330
3F
100
AcDbEntity
  8
Layer 1
 62
   217
420
  8269710
370
    25
100
AcDbVertex
100
AcDb2dVertex
 10
72.54285886858304
 20
142.4393676401714
 30
0.0
  0
VERTEX
  5
D7
330
3F
100
AcDbEntity
  8
Layer 1
 62
   217
420
  8269710
370
    25
100
AcDbVertex
100
AcDb2dVertex
 10
72.5678358108511
 20
142.4309271562325
 30
0.0
  0
VERTEX
  5
D8
330
3F
100
AcDbEntity
  8
Layer 1
 62
   217
420
  8269710
370
    25
100
AcDbVertex
100
AcDb2dVertex
 10
72.59264049834489
 20
142.4217976531966
 30
0.0
  0
VERTEX
  5
D9
330
3F
100
AcDbEntity
  8
Layer 1
 62
   217
420
  8269710
370
    25
100
AcDbVertex
100
AcDb2dVertex
 10
72.61710067629018
 20
142.4119791310637
 30
0.0
  0
VERTEX
  5
DA
330
3F
100
AcDbEntity
  8
Layer 1
 62
   217
420
  8269710
370
    25
100
AcDbVertex
100
AcDb2dVertex
 10
72.64121634468692
 20
142.4011270802851
 30
0.0
  0
VERTEX
  5
DB
330
3F
100
AcDbEntity
  8
Layer 1
 62
   217
420
  8269710
370
    25
100
AcDbVertex
100
AcDb2dVertex
 10
72.66481524876089
 20
142.3895860104095
 30
0.0
  0
VERTEX
  5
DC
330
3F
100
AcDbEntity
  8
Layer 1
 62
   217
420
  8269710
370
    25
100
AcDbVertex
100
AcDb2dVertex
 10
72.68806964328633
 20
142.3771836666627
 30
0.0
  0
VERTEX
  5
DD
330
3F
100
AcDbEntity
  8
Layer 1
 62
   217
420
  8269710
370
    25
100
AcDbVertex
100
AcDb2dVertex
 10
72.71097952826324
 20
142.3640923038187
 30
0.0
  0
VERTEX
  5
DE
330
3F
100
AcDbEntity
  8
Layer 1
 62
   217
420
  8269710
370
    25
100
AcDbVertex
100
AcDb2dVertex
 10
72.73337264891735
 20
142.3501396671034
 30
0.0
  0
VERTEX
  5
DF
330
3F
100
AcDbEntity
  8
Layer 1
 62
   217
420
  8269710
370
    25
100
AcDbVertex
100
AcDb2dVertex
 10
72.75542126002296
 20
142.3354980112911
 30
0.0
  0
VERTEX
  5
E0
330
3F
100
AcDbEntity
  8
Layer 1
 62
   217
420
  8269710
370
    25
100
AcDbVertex
100
AcDb2dVertex
 10
72.77678085203151
 20
142.3201673363818
 30
0.0
  0
VERTEX
  5
E1
330
3F
100
AcDbEntity
  8
Layer 1
 62
   217
420
  8269710
370
    25
100
AcDbVertex
100
AcDb2dVertex
 10
72.79779593449153
 20
142.3041476423754
 30
0.0
  0
VERTEX
  5
E2
330
3F
100
AcDbEntity
  8
Layer 1
 62
   217
420
  8269710
370
    25
100
AcDbVertex
100
AcDb2dVertex
 10
72.8181219978545
 20
142.2874389292719
 30
0.0
  0
VERTEX
  5
E3
330
3F
100
AcDbEntity
  8
Layer 1
 62
   217
420
  8269710
370
    25
100
AcDbVertex
100
AcDb2dVertex
 10
72.83793129689468
 20
142.2700411970714
 30
0.0
  0
VERTEX
  5
E4
330
3F
100
AcDbEntity
  8
Layer 1
 62
   217
420
  8269710
370
    25
100
AcDbVertex
100
AcDb2dVertex
 10
72.85722383161209
 20
142.2519544457738
 30
0.0
  0
VERTEX
  5
E5
330
3F
100
AcDbEntity
  8
Layer 1
 62
   217
420
  8269710
370
    25
100
AcDbVertex
100
AcDb2dVertex
 10
72.87582734723243
 20
142.2333509301535
 30
0.0
  0
VERTEX
  5
E6
330
3F
100
AcDbEntity
  8
Layer 1
 62
   217
420
  8269710
370
    25
100
AcDbVertex
100
AcDb2dVertex
 10
72.89374184375573
 20
142.2140583954361
 30
0.0
  0
VERTEX
  5
E7
330
3F
100
AcDbEntity
  8
Layer 1
 62
   217
420
  8269710
370
    25
100
AcDbVertex
100
AcDb2dVertex
 10
72.91113957595624
 20
142.1940768416216
 30
0.0
  0
VERTEX
  5
E8
330
3F
100
AcDbEntity
  8
Layer 1
 62
   217
420
  8269710
370
    25
100
AcDbVertex
100
AcDb2dVertex
 10
72.92784828905971
 20
142.1735785234844
 30
0.0
  0
VERTEX
  5
E9
330
3F
100
AcDbEntity
  8
Layer 1
 62
   217
420
  8269710
370
    25
100
AcDbVertex
100
AcDb2dVertex
 10
72.94369572829186
 20
142.1527356957986
 30
0.0
  0
VERTEX
  5
EA
330
3F
100
AcDbEntity
  8
Layer 1
 62
   217
420
  8269710
370
    25
100
AcDbVertex
100
AcDb2dVertex
 10
72.95902640320122
 20
142.1312038490158
 30
0.0
  0
VERTEX
  5
EB
330
3F
100
AcDbEntity
  8
Layer 1
 62
   217
420
  8269710
370
    25
100
AcDbVertex
100
AcDb2dVertex
 10
72.97349580423926
 20
142.1091552379102
 30
0.0
  0
VERTEX
  5
EC
330
3F
100
AcDbEntity
  8
Layer 1
 62
   217
420
  8269710
370
    25
100
AcDbVertex
100
AcDb2dVertex
 10
72.98727618618027
 20
142.0865898624818
 30
0.0
  0
VERTEX
  5
ED
330
3F
100
AcDbEntity
  8
Layer 1
 62
   217
420
  8269710
370
    25
100
AcDbVertex
100
AcDb2dVertex
 10
73.00036754902422
 20
142.0636799775049
 30
0.0
  0
VERTEX
  5
EE
330
3F
100
AcDbEntity
  8
Layer 1
 62
   217
420
  8269710
370
    25
100
AcDbVertex
100
AcDb2dVertex
 10
73.01259763799685
 20
142.0404255829795
 30
0.0
  0
VERTEX
  5
EF
330
3F
100
AcDbEntity
  8
Layer 1
 62
   217
420
  8269710
370
    25
100
AcDbVertex
100
AcDb2dVertex
 10
73.02396645309818
 20
142.0166544241312
 30
0.0
  0
VERTEX
  5
F0
330
3F
100
AcDbEntity
  8
Layer 1
 62
   217
420
  8269710
370
    25
100
AcDbVertex
100
AcDb2dVertex
 10
73.03464624910245
 20
141.9925387557345
 30
0.0
  0
VERTEX
  5
F1
330
3F
100
AcDbEntity
  8
Layer 1
 62
   217
420
  8269710
370
    25
100
AcDbVertex
100
AcDb2dVertex
 10
73.04463702600968
 20
141.9680785777892
 30
0.0
  0
VERTEX
  5
F2
330
3F
100
AcDbEntity
  8
Layer 1
 62
   217
420
  8269710
370
    25
100
AcDbVertex
100
AcDb2dVertex
 10
73.05359427427133
 20
141.9432738902954
 30
0.0
  0
VERTEX
  5
F3
330
3F
100
AcDbEntity
  8
Layer 1
 62
   217
420
  8269710
370
    25
100
AcDbVertex
100
AcDb2dVertex
 10
73.06186250343593
 20
141.9182969480274
 30
0.0
  0
VERTEX
  5
F4
330
3F
100
AcDbEntity
  8
Layer 1
 62
   217
420
  8269710
370
    25
100
AcDbVertex
100
AcDb2dVertex
 10
73.06926945872921
 20
141.8928032414365
 30
0.0
  0
VERTEX
  5
F5
330
3F
100
AcDbEntity
  8
Layer 1
 62
   217
420
  8269710
370
    25
100
AcDbVertex
100
AcDb2dVertex
 10
73.07581514015119
 20
141.8673095348457
 30
0.0
  0
VERTEX
  5
F6
330
3F
100
AcDbEntity
  8
Layer 1
 62
   217
420
  8269710
370
    25
100
AcDbVertex
100
AcDb2dVertex
 10
73.08132729292758
 20
141.8416435734806
 30
0.0
  0
VERTEX
  5
F7
330
3F
100
AcDbEntity
  8
Layer 1
 62
   217
420
  8269710
370
    25
100
AcDbVertex
100
AcDb2dVertex
 10
73.08615042660693
 20
141.8156331025669
 30
0.0
  0
VERTEX
  5
F8
330
3F
100
AcDbEntity
  8
Layer 1
 62
   217
420
  8269710
370
    25
100
AcDbVertex
100
AcDb2dVertex
 10
73.09011228641498
 20
141.7896226316533
 30
0.0
  0
VERTEX
  5
F9
330
3F
100
AcDbEntity
  8
Layer 1
 62
   217
420
  8269710
370
    25
100
AcDbVertex
100
AcDb2dVertex
 10
73.0932128723517
 20
141.7634399059654
 30
0.0
  0
VERTEX
  5
FA
330
3F
100
AcDbEntity
  8
Layer 1
 62
   217
420
  8269710
370
    25
100
AcDbVertex
100
AcDb2dVertex
 10
73.09545218441711
 20
141.7370849255032
 30
0.0
  0
VERTEX
  5
FB
330
3F
100
AcDbEntity
  8
Layer 1
 62
   217
420
  8269710
370
    25
100
AcDbVertex
100
AcDb2dVertex
 10
73.09665796783695
 20
141.7107299450411
 30
0.0
  0
VERTEX
  5
FC
330
3F
100
AcDbEntity
  8
Layer 1
 62
   217
420
  8269710
370
    25
100
AcDbVertex
100
AcDb2dVertex
 10
73.09717473215974
 20
141.6843749645789
 30
0.0
  0
SEQEND
  5
FD
330
3F
100
AcDbEntity
  8
Layer 1
370
    25
  0
POLYLINE
  5
FE
330
1F
100
AcDbEntity
  8
Layer 1
 62
    75
420
  7842864
370
    25
100
AcDb2dPolyline
 66
     1
 10
0.0
 20
0.0
 30
0.0
  0
VERTEX
  5
FF
330
FE
100
AcDbEntity
  8
Layer 1
 62
    75
420
  7842864
370
    25
100
AcDbVertex
100
AcDb2dVertex
 10
119.4407714545148
 20
141.671283601735
 30
0.0
  0
VERTEX
  5
100
330
FE
100
AcDbEntity
  8
Layer 1
 62
    75
420
  7842864
370
    25
100
AcDbVertex
100
AcDb2dVertex
 10
119.4397379258692
 20
141.6449286212728
 30
0.0
  0
VERTEX
  5
101
330
FE
100
AcDbEntity
  8
Layer 1
 62
    75
420
  7842864
370
    25
100
AcDbVertex
100
AcDb2dVertex
 10
119.4380153781266
 20
141.6185736408106
 30
0.0
  0
VERTEX
  5
102
330
FE
100
AcDbEntity
  8
Layer 1
 62
    75
420
  7842864
370
    25
100
AcDbVertex
100
AcDb2dVertex
 10
119.4352593017384
 20
141.5923909151227
 30
0.0
  0
VERTEX
  5
103
330
FE
100
AcDbEntity
  8
Layer 1
 62
    75
420
  7842864
370
    25
100
AcDbVertex
100
AcDb2dVertex
 10
119.4318142062532
 20
141.5662081894348
 30
0.0
  0
VERTEX
  5
104
330
FE
100
AcDbEntity
  8
Layer 1
 62
    75
420
  7842864
370
    25
100
AcDbVertex
100
AcDb2dVertex
 10
119.4276800916709
 20
141.5401977185212
 30
0.0
  0
VERTEX
  5
105
330
FE
100
AcDbEntity
  8
Layer 1
 62
    75
420
  7842864
370
    25
100
AcDbVertex
100
AcDb2dVertex
 10
119.4221679388945
 20
141.5143595023818
 30
0.0
  0
VERTEX
  5
106
330
FE
100
AcDbEntity
  8
Layer 1
 62
    75
420
  7842864
370
    25
100
AcDbVertex
100
AcDb2dVertex
 10
119.4163112765695
 20
141.4886935410167
 30
0.0
  0
VERTEX
  5
107
330
FE
100
AcDbEntity
  8
Layer 1
 62
    75
420
  7842864
370
    25
100
AcDbVertex
100
AcDb2dVertex
 10
119.4090765760505
 20
141.4631998344259
 30
0.0
  0
VERTEX
  5
108
330
FE
100
AcDbEntity
  8
Layer 1
 62
    75
420
  7842864
370
    25
100
AcDbVertex
100
AcDb2dVertex
 10
119.401497365983
 20
141.4380506373836
 30
0.0
  0
VERTEX
  5
109
330
FE
100
AcDbEntity
  8
Layer 1
 62
    75
420
  7842864
370
    25
100
AcDbVertex
100
AcDb2dVertex
 10
119.3928846272698
 20
141.4132459498898
 30
0.0
  0
VERTEX
  5
10A
330
FE
100
AcDbEntity
  8
Layer 1
 62
    75
420
  7842864
370
    25
100
AcDbVertex
100
AcDb2dVertex
 10
119.3832383599111
 20
141.3886135171702
 30
0.0
  0
VERTEX
  5
10B
330
FE
100
AcDbEntity
  8
Layer 1
 62
    75
420
  7842864
370
    25
100
AcDbVertex
100
AcDb2dVertex
 10
119.3732475830039
 20
141.3643255939992
 30
0.0
  0
VERTEX
  5
10C
330
FE
100
AcDbEntity
  8
Layer 1
 62
    75
420
  7842864
370
    25
100
AcDbVertex
100
AcDb2dVertex
 10
119.3618787679026
 20
141.3403821803767
 30
0.0
  0
VERTEX
  5
10D
330
FE
100
AcDbEntity
  8
Layer 1
 62
    75
420
  7842864
370
    25
100
AcDbVertex
100
AcDb2dVertex
 10
119.3501654432527
 20
141.3167832763027
 30
0.0
  0
VERTEX
  5
10E
330
FE
100
AcDbEntity
  8
Layer 1
 62
    75
420
  7842864
370
    25
100
AcDbVertex
100
AcDb2dVertex
 10
119.3374185899573
 20
141.2935288817773
 30
0.0
  0
VERTEX
  5
10F
330
FE
100
AcDbEntity
  8
Layer 1
 62
    75
420
  7842864
370
    25
100
AcDbVertex
100
AcDb2dVertex
 10
119.3239827175648
 20
141.2709635063489
 30
0.0
  0
VERTEX
  5
110
330
FE
100
AcDbEntity
  8
Layer 1
 62
    75
420
  7842864
370
    25
100
AcDbVertex
100
AcDb2dVertex
 10
119.3098578260753
 20
141.2485703856948
 30
0.0
  0
VERTEX
  5
111
330
FE
100
AcDbEntity
  8
Layer 1
 62
    75
420
  7842864
370
    25
100
AcDbVertex
100
AcDb2dVertex
 10
119.2950439154887
 20
141.2268662841377
 30
0.0
  0
VERTEX
  5
112
330
FE
100
AcDbEntity
  8
Layer 1
 62
    75
420
  7842864
370
    25
100
AcDbVertex
100
AcDb2dVertex
 10
119.2795409858051
 20
141.2056789469034
 30
0.0
  0
VERTEX
  5
113
330
FE
100
AcDbEntity
  8
Layer 1
 62
    75
420
  7842864
370
    25
100
AcDbVertex
100
AcDb2dVertex
 10
119.2630045274759
 20
141.1848361192177
 30
0.0
  0
VERTEX
  5
114
330
FE
100
AcDbEntity
  8
Layer 1
 62
    75
420
  7842864
370
    25
100
AcDbVertex
100
AcDb2dVertex
 10
119.2461235595982
 20
141.164682310629
 30
0.0
  0
VERTEX
  5
115
330
FE
100
AcDbEntity
  8
Layer 1
 62
    75
420
  7842864
370
    25
100
AcDbVertex
100
AcDb2dVertex
 10
119.2285535726234
 20
141.145045266363
 30
0.0
  0
VERTEX
  5
116
330
FE
100
AcDbEntity
  8
Layer 1
 62
    75
420
  7842864
370
    25
100
AcDbVertex
100
AcDb2dVertex
 10
119.2102945665516
 20
141.1260972411942
 30
0.0
  0
VERTEX
  5
117
330
FE
100
AcDbEntity
  8
Layer 1
 62
    75
420
  7842864
370
    25
100
AcDbVertex
100
AcDb2dVertex
 10
119.1913465413827
 20
141.1076659803481
 30
0.0
  0
VERTEX
  5
118
330
FE
100
AcDbEntity
  8
Layer 1
 62
    75
420
  7842864
370
    25
100
AcDbVertex
100
AcDb2dVertex
 10
119.1717094971168
 20
141.0899237385991
 30
0.0
  0
VERTEX
  5
119
330
FE
100
AcDbEntity
  8
Layer 1
 62
    75
420
  7842864
370
    25
100
AcDbVertex
100
AcDb2dVertex
 10
119.1517279433023
 20
141.0728705159471
 30
0.0
  0
VERTEX
  5
11A
330
FE
100
AcDbEntity
  8
Layer 1
 62
    75
420
  7842864
370
    25
100
AcDbVertex
100
AcDb2dVertex
 10
119.1310573703908
 20
141.0565063123921
 30
0.0
  0
VERTEX
  5
11B
330
FE
100
AcDbEntity
  8
Layer 1
 62
    75
420
  7842864
370
    25
100
AcDbVertex
100
AcDb2dVertex
 10
119.1096977783823
 20
141.0408311279342
 30
0.0
  0
VERTEX
  5
11C
330
FE
100
AcDbEntity
  8
Layer 1
 62
    75
420
  7842864
370
    25
100
AcDbVertex
100
AcDb2dVertex
 10
119.0879936768252
 20
141.0258449625734
 30
0.0
  0
VERTEX
  5
11D
330
FE
100
AcDbEntity
  8
Layer 1
 62
    75
420
  7842864
370
    25
100
AcDbVertex
100
AcDb2dVertex
 10
119.0659450657196
 20
141.0115478163096
 30
0.0
  0
VERTEX
  5
11E
330
FE
100
AcDbEntity
  8
Layer 1
 62
    75
420
  7842864
370
    25
100
AcDbVertex
100
AcDb2dVertex
 10
119.043207435517
 20
140.9981119439171
 30
0.0
  0
VERTEX
  5
11F
330
FE
100
AcDbEntity
  8
Layer 1
 62
    75
420
  7842864
370
    25
100
AcDbVertex
100
AcDb2dVertex
 10
119.0201252957658
 20
140.9853650906217
 30
0.0
  0
VERTEX
  5
120
330
FE
100
AcDbEntity
  8
Layer 1
 62
    75
420
  7842864
370
    25
100
AcDbVertex
100
AcDb2dVertex
 10
118.9966986464661
 20
140.9733072564233
 30
0.0
  0
VERTEX
  5
121
330
FE
100
AcDbEntity
  8
Layer 1
 62
    75
420
  7842864
370
    25
100
AcDbVertex
100
AcDb2dVertex
 10
118.9729274876179
 20
140.9621106960963
 30
0.0
  0
VERTEX
  5
122
330
FE
100
AcDbEntity
  8
Layer 1
 62
    75
420
  7842864
370
    25
100
AcDbVertex
100
AcDb2dVertex
 10
118.9484673096726
 20
140.9517754096405
 30
0.0
  0
VERTEX
  5
123
330
FE
100
AcDbEntity
  8
Layer 1
 62
    75
420
  7842864
370
    25
100
AcDbVertex
100
AcDb2dVertex
 10
118.9240071317273
 20
140.9423013970561
 30
0.0
  0
VERTEX
  5
124
330
FE
100
AcDbEntity
  8
Layer 1
 62
    75
420
  7842864
370
    25
100
AcDbVertex
100
AcDb2dVertex
 10
118.8992024442335
 20
140.9335164035687
 30
0.0
  0
VERTEX
  5
125
330
FE
100
AcDbEntity
  8
Layer 1
 62
    75
420
  7842864
370
    25
100
AcDbVertex
100
AcDb2dVertex
 10
118.8740532471912
 20
140.9255926839526
 30
0.0
  0
VERTEX
  5
126
330
FE
100
AcDbEntity
  8
Layer 1
 62
    75
420
  7842864
370
    25
100
AcDbVertex
100
AcDb2dVertex
 10
118.8485595406004
 20
140.9185302382079
 30
0.0
  0
VERTEX
  5
127
330
FE
100
AcDbEntity
  8
Layer 1
 62
    75
420
  7842864
370
    25
100
AcDbVertex
100
AcDb2dVertex
 10
118.8230658340095
 20
140.9123290663344
 30
0.0
  0
VERTEX
  5
128
330
FE
100
AcDbEntity
  8
Layer 1
 62
    75
420
  7842864
370
    25
100
AcDbVertex
100
AcDb2dVertex
 10
118.7972276178701
 20
140.9069891683323
 30
0.0
  0
VERTEX
  5
129
330
FE
100
AcDbEntity
  8
Layer 1
 62
    75
420
  7842864
370
    25
100
AcDbVertex
100
AcDb2dVertex
 10
118.7710448921822
 20
140.9025105442015
 30
0.0
  0
VERTEX
  5
12A
330
FE
100
AcDbEntity
  8
Layer 1
 62
    75
420
  7842864
370
    25
100
AcDbVertex
100
AcDb2dVertex
 10
118.7448621664943
 20
140.8988931939419
 30
0.0
  0
VERTEX
  5
12B
330
FE
100
AcDbEntity
  8
Layer 1
 62
    75
420
  7842864
370
    25
100
AcDbVertex
100
AcDb2dVertex
 10
118.7186794408064
 20
140.8961371175538
 30
0.0
  0
VERTEX
  5
12C
330
FE
100
AcDbEntity
  8
Layer 1
 62
    75
420
  7842864
370
    25
100
AcDbVertex
100
AcDb2dVertex
 10
118.6924967151186
 20
140.8942423150368
 30
0.0
  0
VERTEX
  5
12D
330
FE
100
AcDbEntity
  8
Layer 1
 62
    75
420
  7842864
370
    25
100
AcDbVertex
100
AcDb2dVertex
 10
118.6659694798821
 20
140.8932087863913
 30
0.0
  0
VERTEX
  5
12E
330
FE
100
AcDbEntity
  8
Layer 1
 62
    75
420
  7842864
370
    25
100
AcDbVertex
100
AcDb2dVertex
 10
118.6397867541942
 20
140.8932087863913
 30
0.0
  0
VERTEX
  5
12F
330
FE
100
AcDbEntity
  8
Layer 1
 62
    75
420
  7842864
370
    25
100
AcDbVertex
100
AcDb2dVertex
 10
118.6132595189578
 20
140.8938978054883
 30
0.0
  0
VERTEX
  5
130
330
FE
100
AcDbEntity
  8
Layer 1
 62
    75
420
  7842864
370
    25
100
AcDbVertex
100
AcDb2dVertex
 10
118.5870767932699
 20
140.895620353231
 30
0.0
  0
VERTEX
  5
131
330
FE
100
AcDbEntity
  8
Layer 1
 62
    75
420
  7842864
370
    25
100
AcDbVertex
100
AcDb2dVertex
 10
118.560894067582
 20
140.8980319200707
 30
0.0
  0
VERTEX
  5
132
330
FE
100
AcDbEntity
  8
Layer 1
 62
    75
420
  7842864
370
    25
100
AcDbVertex
100
AcDb2dVertex
 10
118.5347113418941
 20
140.9014770155559
 30
0.0
  0
VERTEX
  5
133
330
FE
100
AcDbEntity
  8
Layer 1
 62
    75
420
  7842864
370
    25
100
AcDbVertex
100
AcDb2dVertex
 10
118.5085286162062
 20
140.9057833849124
 30
0.0
  0
VERTEX
  5
134
330
FE
100
AcDbEntity
  8
Layer 1
 62
    75
420
  7842864
370
    25
100
AcDbVertex
100
AcDb2dVertex
 10
118.4826904000668
 20
140.9109510281403
 30
0.0
  0
VERTEX
  5
135
330
FE
100
AcDbEntity
  8
Layer 1
 62
    75
420
  7842864
370
    25
100
AcDbVertex
100
AcDb2dVertex
 10
118.4568521839275
 20
140.9168076904652
 30
0.0
  0
VERTEX
  5
136
330
FE
100
AcDbEntity
  8
Layer 1
 62
    75
420
  7842864
370
    25
100
AcDbVertex
100
AcDb2dVertex
 10
118.4317029868851
 20
140.9236978814357
 30
0.0
  0
VERTEX
  5
137
330
FE
100
AcDbEntity
  8
Layer 1
 62
    75
420
  7842864
370
    25
100
AcDbVertex
100
AcDb2dVertex
 10
118.4062092802943
 20
140.9314493462776
 30
0.0
  0
VERTEX
  5
138
330
FE
100
AcDbEntity
  8
Layer 1
 62
    75
420
  7842864
370
    25
100
AcDbVertex
100
AcDb2dVertex
 10
118.3814045928005
 20
140.9398898302164
 30
0.0
  0
VERTEX
  5
139
330
FE
100
AcDbEntity
  8
Layer 1
 62
    75
420
  7842864
370
    25
100
AcDbVertex
100
AcDb2dVertex
 10
118.3565999053067
 20
140.9491915880266
 30
0.0
  0
VERTEX
  5
13A
330
FE
100
AcDbEntity
  8
Layer 1
 62
    75
420
  7842864
370
    25
100
AcDbVertex
100
AcDb2dVertex
 10
118.3324842369099
 20
140.9595268744823
 30
0.0
  0
VERTEX
  5
13B
330
FE
100
AcDbEntity
  8
Layer 1
 62
    75
420
  7842864
370
    25
100
AcDbVertex
100
AcDb2dVertex
 10
118.3083685685132
 20
140.9703789252609
 30
0.0
  0
VERTEX
  5
13C
330
FE
100
AcDbEntity
  8
Layer 1
 62
    75
420
  7842864
370
    25
100
AcDbVertex
100
AcDb2dVertex
 10
118.284597409665
 20
140.982264504685
 30
0.0
  0
VERTEX
  5
13D
330
FE
100
AcDbEntity
  8
Layer 1
 62
    75
420
  7842864
370
    25
100
AcDbVertex
100
AcDb2dVertex
 10
118.2615152699138
 20
140.9946668484319
 30
0.0
  0
VERTEX
  5
13E
330
FE
100
AcDbEntity
  8
Layer 1
 62
    75
420
  7842864
370
    25
100
AcDbVertex
100
AcDb2dVertex
 10
118.2387776397111
 20
141.0081027208244
 30
0.0
  0
VERTEX
  5
13F
330
FE
100
AcDbEntity
  8
Layer 1
 62
    75
420
  7842864
370
    25
100
AcDbVertex
100
AcDb2dVertex
 10
118.216384519057
 20
141.0220553575396
 30
0.0
  0
VERTEX
  5
140
330
FE
100
AcDbEntity
  8
Layer 1
 62
    75
420
  7842864
370
    25
100
AcDbVertex
100
AcDb2dVertex
 10
118.1946804175
 20
141.0368692681262
 30
0.0
  0
VERTEX
  5
141
330
FE
100
AcDbEntity
  8
Layer 1
 62
    75
420
  7842864
370
    25
100
AcDbVertex
100
AcDb2dVertex
 10
118.1733208254914
 20
141.0523721978098
 30
0.0
  0
VERTEX
  5
142
330
FE
100
AcDbEntity
  8
Layer 1
 62
    75
420
  7842864
370
    25
100
AcDbVertex
100
AcDb2dVertex
 10
118.1526502525799
 20
141.0685641465905
 30
0.0
  0
VERTEX
  5
143
330
FE
100
AcDbEntity
  8
Layer 1
 62
    75
420
  7842864
370
    25
100
AcDbVertex
100
AcDb2dVertex
 10
118.1323241892169
 20
141.0856173692425
 30
0.0
  0
VERTEX
  5
144
330
FE
100
AcDbEntity
  8
Layer 1
 62
    75
420
  7842864
370
    25
100
AcDbVertex
100
AcDb2dVertex
 10
118.112687144951
 20
141.1031873562173
 30
0.0
  0
VERTEX
  5
145
330
FE
100
AcDbEntity
  8
Layer 1
 62
    75
420
  7842864
370
    25
100
AcDbVertex
100
AcDb2dVertex
 10
118.0933946102336
 20
141.1212741075148
 30
0.0
  0
VERTEX
  5
146
330
FE
100
AcDbEntity
  8
Layer 1
 62
    75
420
  7842864
370
    25
100
AcDbVertex
100
AcDb2dVertex
 10
118.0751356041618
 20
141.1402221326837
 30
0.0
  0
VERTEX
  5
147
330
FE
100
AcDbEntity
  8
Layer 1
 62
    75
420
  7842864
370
    25
100
AcDbVertex
100
AcDb2dVertex
 10
118.0572211076385
 20
141.1596869221754
 30
0.0
  0
VERTEX
  5
148
330
FE
100
AcDbEntity
  8
Layer 1
 62
    75
420
  7842864
370
    25
100
AcDbVertex
100
AcDb2dVertex
 10
118.0399956302122
 20
141.1796684759898
 30
0.0
  0
VERTEX
  5
149
330
FE
100
AcDbEntity
  8
Layer 1
 62
    75
420
  7842864
370
    25
100
AcDbVertex
100
AcDb2dVertex
 10
118.023459171883
 20
141.2001667941271
 30
0.0
  0
VERTEX
  5
14A
330
FE
100
AcDbEntity
  8
Layer 1
 62
    75
420
  7842864
370
    25
100
AcDbVertex
100
AcDb2dVertex
 10
118.0079562421994
 20
141.2213541313613
 30
0.0
  0
VERTEX
  5
14B
330
FE
100
AcDbEntity
  8
Layer 1
 62
    75
420
  7842864
370
    25
100
AcDbVertex
100
AcDb2dVertex
 10
117.9927978220643
 20
141.2430582329184
 30
0.0
  0
VERTEX
  5
14C
330
FE
100
AcDbEntity
  8
Layer 1
 62
    75
420
  7842864
370
    25
100
AcDbVertex
100
AcDb2dVertex
 10
117.9783284210263
 20
141.265106844024
 30
0.0
  0
VERTEX
  5
14D
330
FE
100
AcDbEntity
  8
Layer 1
 62
    75
420
  7842864
370
    25
100
AcDbVertex
100
AcDb2dVertex
 10
117.9648925486338
 20
141.2876722194524
 30
0.0
  0
VERTEX
  5
14E
330
FE
100
AcDbEntity
  8
Layer 1
 62
    75
420
  7842864
370
    25
100
AcDbVertex
100
AcDb2dVertex
 10
117.9521456953384
 20
141.3107543592036
 30
0.0
  0
VERTEX
  5
14F
330
FE
100
AcDbEntity
  8
Layer 1
 62
    75
420
  7842864
370
    25
100
AcDbVertex
100
AcDb2dVertex
 10
117.94008786114
 20
141.3341810085033
 30
0.0
  0
VERTEX
  5
150
330
FE
100
AcDbEntity
  8
Layer 1
 62
    75
420
  7842864
370
    25
100
AcDbVertex
100
AcDb2dVertex
 10
117.9287190460387
 20
141.3581244221257
 30
0.0
  0
VERTEX
  5
151
330
FE
100
AcDbEntity
  8
Layer 1
 62
    75
420
  7842864
370
    25
100
AcDbVertex
100
AcDb2dVertex
 10
117.9180392500344
 20
141.3822400905225
 30
0.0
  0
VERTEX
  5
152
330
FE
100
AcDbEntity
  8
Layer 1
 62
    75
420
  7842864
370
    25
100
AcDbVertex
100
AcDb2dVertex
 10
117.9083929826757
 20
141.406872523242
 30
0.0
  0
VERTEX
  5
153
330
FE
100
AcDbEntity
  8
Layer 1
 62
    75
420
  7842864
370
    25
100
AcDbVertex
100
AcDb2dVertex
 10
117.8997802439626
 20
141.4316772107358
 30
0.0
  0
VERTEX
  5
154
330
FE
100
AcDbEntity
  8
Layer 1
 62
    75
420
  7842864
370
    25
100
AcDbVertex
100
AcDb2dVertex
 10
117.891512014798
 20
141.4568264077782
 30
0.0
  0
VERTEX
  5
155
330
FE
100
AcDbEntity
  8
Layer 1
 62
    75
420
  7842864
370
    25
100
AcDbVertex
100
AcDb2dVertex
 10
117.8846218238275
 20
141.4821478595948
 30
0.0
  0
VERTEX
  5
156
330
FE
100
AcDbEntity
  8
Layer 1
 62
    75
420
  7842864
370
    25
100
AcDbVertex
100
AcDb2dVertex
 10
117.8780761424055
 20
141.5078138209599
 30
0.0
  0
VERTEX
  5
157
330
FE
100
AcDbEntity
  8
Layer 1
 62
    75
420
  7842864
370
    25
100
AcDbVertex
100
AcDb2dVertex
 10
117.8725639896291
 20
141.5336520370992
 30
0.0
  0
VERTEX
  5
158
330
FE
100
AcDbEntity
  8
Layer 1
 62
    75
420
  7842864
370
    25
100
AcDbVertex
100
AcDb2dVertex
 10
117.8680853654983
 20
141.5594902532386
 30
0.0
  0
VERTEX
  5
159
330
FE
100
AcDbEntity
  8
Layer 1
 62
    75
420
  7842864
370
    25
100
AcDbVertex
100
AcDb2dVertex
 10
117.8642957604645
 20
141.5856729789265
 30
0.0
  0
VERTEX
  5
15A
330
FE
100
AcDbEntity
  8
Layer 1
 62
    75
420
  7842864
370
    25
100
AcDbVertex
100
AcDb2dVertex
 10
117.8615396840763
 20
141.6118557046144
 30
0.0
  0
VERTEX
  5
15B
330
FE
100
AcDbEntity
  8
Layer 1
 62
    75
420
  7842864
370
    25
100
AcDbVertex
100
AcDb2dVertex
 10
117.8594726267851
 20
141.6382106850766
 30
0.0
  0
VERTEX
  5
15C
330
FE
100
AcDbEntity
  8
Layer 1
 62
    75
420
  7842864
370
    25
100
AcDbVertex
100
AcDb2dVertex
 10
117.8584390981396
 20
141.6645656655387
 30
0.0
  0
VERTEX
  5
15D
330
FE
100
AcDbEntity
  8
Layer 1
 62
    75
420
  7842864
370
    25
100
AcDbVertex
100
AcDb2dVertex
 10
117.858094588591
 20
141.6909206460009
 30
0.0
  0
VERTEX
  5
15E
330
FE
100
AcDbEntity
  8
Layer 1
 62
    75
420
  7842864
370
    25
100
AcDbVertex
100
AcDb2dVertex
 10
117.8587836076881
 20
141.717275626463
 30
0.0
  0
VERTEX
  5
15F
330
FE
100
AcDbEntity
  8
Layer 1
 62
    75
420
  7842864
370
    25
100
AcDbVertex
100
AcDb2dVertex
 10
117.8605061554307
 20
141.7436306069252
 30
0.0
  0
VERTEX
  5
160
330
FE
100
AcDbEntity
  8
Layer 1
 62
    75
420
  7842864
370
    25
100
AcDbVertex
100
AcDb2dVertex
 10
117.8629177222704
 20
141.7698133326131
 30
0.0
  0
VERTEX
  5
161
330
FE
100
AcDbEntity
  8
Layer 1
 62
    75
420
  7842864
370
    25
100
AcDbVertex
100
AcDb2dVertex
 10
117.8660183082071
 20
141.795996058301
 30
0.0
  0
VERTEX
  5
162
330
FE
100
AcDbEntity
  8
Layer 1
 62
    75
420
  7842864
370
    25
100
AcDbVertex
100
AcDb2dVertex
 10
117.8701524227894
 20
141.8220065292146
 30
0.0
  0
VERTEX
  5
163
330
FE
100
AcDbEntity
  8
Layer 1
 62
    75
420
  7842864
370
    25
100
AcDbVertex
100
AcDb2dVertex
 10
117.8753200660173
 20
141.8480170001283
 30
0.0
  0
VERTEX
  5
164
330
FE
100
AcDbEntity
  8
Layer 1
 62
    75
420
  7842864
370
    25
100
AcDbVertex
100
AcDb2dVertex
 10
117.8811767283422
 20
141.8736829614934
 30
0.0
  0
VERTEX
  5
165
330
FE
100
AcDbEntity
  8
Layer 1
 62
    75
420
  7842864
370
    25
100
AcDbVertex
100
AcDb2dVertex
 10
117.8880669193127
 20
141.8991766680842
 30
0.0
  0
VERTEX
  5
166
330
FE
100
AcDbEntity
  8
Layer 1
 62
    75
420
  7842864
370
    25
100
AcDbVertex
100
AcDb2dVertex
 10
117.8956461293803
 20
141.9244981199008
 30
0.0
  0
VERTEX
  5
167
330
FE
100
AcDbEntity
  8
Layer 1
 62
    75
420
  7842864
370
    25
100
AcDbVertex
100
AcDb2dVertex
 10
117.9039143585449
 20
141.9494750621689
 30
0.0
  0
VERTEX
  5
168
330
FE
100
AcDbEntity
  8
Layer 1
 62
    75
420
  7842864
370
    25
100
AcDbVertex
100
AcDb2dVertex
 10
117.913216116355
 20
141.9741074948884
 30
0.0
  0
VERTEX
  5
169
330
FE
100
AcDbEntity
  8
Layer 1
 62
    75
420
  7842864
370
    25
100
AcDbVertex
100
AcDb2dVertex
 10
117.9232068932623
 20
141.9985676728337
 30
0.0
  0
VERTEX
  5
16A
330
FE
100
AcDbEntity
  8
Layer 1
 62
    75
420
  7842864
370
    25
100
AcDbVertex
100
AcDb2dVertex
 10
117.9342311988151
 20
142.0225110864562
 30
0.0
  0
VERTEX
  5
16B
330
FE
100
AcDbEntity
  8
Layer 1
 62
    75
420
  7842864
370
    25
100
AcDbVertex
100
AcDb2dVertex
 10
117.9459445234649
 20
142.0461099905301
 30
0.0
  0
VERTEX
  5
16C
330
FE
100
AcDbEntity
  8
Layer 1
 62
    75
420
  7842864
370
    25
100
AcDbVertex
100
AcDb2dVertex
 10
117.9583468672118
 20
142.0693643850556
 30
0.0
  0
VERTEX
  5
16D
330
FE
100
AcDbEntity
  8
Layer 1
 62
    75
420
  7842864
370
    25
100
AcDbVertex
100
AcDb2dVertex
 10
117.9714382300558
 20
142.0922742700325
 30
0.0
  0
VERTEX
  5
16E
330
FE
100
AcDbEntity
  8
Layer 1
 62
    75
420
  7842864
370
    25
100
AcDbVertex
100
AcDb2dVertex
 10
117.9855631215453
 20
142.1146673906866
 30
0.0
  0
VERTEX
  5
16F
330
FE
100
AcDbEntity
  8
Layer 1
 62
    75
420
  7842864
370
    25
100
AcDbVertex
100
AcDb2dVertex
 10
118.0000325225833
 20
142.136543747018
 30
0.0
  0
VERTEX
  5
170
330
FE
100
AcDbEntity
  8
Layer 1
 62
    75
420
  7842864
370
    25
100
AcDbVertex
100
AcDb2dVertex
 10
118.015535452267
 20
142.1579033390265
 30
0.0
  0
VERTEX
  5
171
330
FE
100
AcDbEntity
  8
Layer 1
 62
    75
420
  7842864
370
    25
100
AcDbVertex
100
AcDb2dVertex
 10
118.0317274010476
 20
142.1787461667123
 30
0.0
  0
VERTEX
  5
172
330
FE
100
AcDbEntity
  8
Layer 1
 62
    75
420
  7842864
370
    25
100
AcDbVertex
100
AcDb2dVertex
 10
118.0486083689254
 20
142.1990722300752
 30
0.0
  0
VERTEX
  5
173
330
FE
100
AcDbEntity
  8
Layer 1
 62
    75
420
  7842864
370
    25
100
AcDbVertex
100
AcDb2dVertex
 10
118.0661783559001
 20
142.2188815291154
 30
0.0
  0
VERTEX
  5
174
330
FE
100
AcDbEntity
  8
Layer 1
 62
    75
420
  7842864
370
    25
100
AcDbVertex
100
AcDb2dVertex
 10
118.0840928524234
 20
142.2380018090586
 30
0.0
  0
VERTEX
  5
175
330
FE
100
AcDbEntity
  8
Layer 1
 62
    75
420
  7842864
370
    25
100
AcDbVertex
100
AcDb2dVertex
 10
118.1030408775923
 20
142.2566053246789
 30
0.0
  0
VERTEX
  5
176
330
FE
100
AcDbEntity
  8
Layer 1
 62
    75
420
  7842864
370
    25
100
AcDbVertex
100
AcDb2dVertex
 10
118.1223334123097
 20
142.2743475664279
 30
0.0
  0
VERTEX
  5
177
330
FE
100
AcDbEntity
  8
Layer 1
 62
    75
420
  7842864
370
    25
100
AcDbVertex
100
AcDb2dVertex
 10
118.1423149661241
 20
142.2917452986285
 30
0.0
  0
VERTEX
  5
178
330
FE
100
AcDbEntity
  8
Layer 1
 62
    75
420
  7842864
370
    25
100
AcDbVertex
100
AcDb2dVertex
 10
118.1626410294871
 20
142.3082817569577
 30
0.0
  0
VERTEX
  5
179
330
FE
100
AcDbEntity
  8
Layer 1
 62
    75
420
  7842864
370
    25
100
AcDbVertex
100
AcDb2dVertex
 10
118.1840006214957
 20
142.3241291961898
 30
0.0
  0
VERTEX
  5
17A
330
FE
100
AcDbEntity
  8
Layer 1
 62
    75
420
  7842864
370
    25
100
AcDbVertex
100
AcDb2dVertex
 10
118.2053602135042
 20
142.3392876163249
 30
0.0
  0
VERTEX
  5
17B
330
FE
100
AcDbEntity
  8
Layer 1
 62
    75
420
  7842864
370
    25
100
AcDbVertex
100
AcDb2dVertex
 10
118.2274088246098
 20
142.353757017363
 30
0.0
  0
VERTEX
  5
17C
330
FE
100
AcDbEntity
  8
Layer 1
 62
    75
420
  7842864
370
    25
100
AcDbVertex
100
AcDb2dVertex
 10
118.2501464548125
 20
142.3673651445297
 30
0.0
  0
VERTEX
  5
17D
330
FE
100
AcDbEntity
  8
Layer 1
 62
    75
420
  7842864
370
    25
100
AcDbVertex
100
AcDb2dVertex
 10
118.2728840850151
 20
142.3802842525994
 30
0.0
  0
VERTEX
  5
17E
330
FE
100
AcDbEntity
  8
Layer 1
 62
    75
420
  7842864
370
    25
100
AcDbVertex
100
AcDb2dVertex
 10
118.2963107343148
 20
142.392514341572
 30
0.0
  0
VERTEX
  5
17F
330
FE
100
AcDbEntity
  8
Layer 1
 62
    75
420
  7842864
370
    25
100
AcDbVertex
100
AcDb2dVertex
 10
118.320081893163
 20
142.4038831566733
 30
0.0
  0
VERTEX
  5
180
330
FE
100
AcDbEntity
  8
Layer 1
 62
    75
420
  7842864
370
    25
100
AcDbVertex
100
AcDb2dVertex
 10
118.3445420711083
 20
142.4143906979033
 30
0.0
  0
VERTEX
  5
181
330
FE
100
AcDbEntity
  8
Layer 1
 62
    75
420
  7842864
370
    25
100
AcDbVertex
100
AcDb2dVertex
 10
118.3690022490536
 20
142.4242092200363
 30
0.0
  0
VERTEX
  5
182
330
FE
100
AcDbEntity
  8
Layer 1
 62
    75
420
  7842864
370
    25
100
AcDbVertex
100
AcDb2dVertex
 10
118.3938069365474
 20
142.433166468298
 30
0.0
  0
VERTEX
  5
183
330
FE
100
AcDbEntity
  8
Layer 1
 62
    75
420
  7842864
370
    25
100
AcDbVertex
100
AcDb2dVertex
 10
118.4189561335897
 20
142.4412624426883
 30
0.0
  0
VERTEX
  5
184
330
FE
100
AcDbEntity
  8
Layer 1
 62
    75
420
  7842864
370
    25
100
AcDbVertex
100
AcDb2dVertex
 10
118.444105330632
 20
142.4484971432073
 30
0.0
  0
VERTEX
  5
185
330
FE
100
AcDbEntity
  8
Layer 1
 62
    75
420
  7842864
370
    25
100
AcDbVertex
100
AcDb2dVertex
 10
118.4695990372229
 20
142.454870569855
 30
0.0
  0
VERTEX
  5
186
330
FE
100
AcDbEntity
  8
Layer 1
 62
    75
420
  7842864
370
    25
100
AcDbVertex
100
AcDb2dVertex
 10
118.4954372533623
 20
142.4605549774057
 30
0.0
  0
VERTEX
  5
187
330
FE
100
AcDbEntity
  8
Layer 1
 62
    75
420
  7842864
370
    25
100
AcDbVertex
100
AcDb2dVertex
 10
118.5216199790502
 20
142.4652058563108
 30
0.0
  0
VERTEX
  5
188
330
FE
100
AcDbEntity
  8
Layer 1
 62
    75
420
  7842864
370
    25
100
AcDbVertex
100
AcDb2dVertex
 10
118.5474581951895
 20
142.4689954613446
 30
0.0
  0
VERTEX
  5
189
330
FE
100
AcDbEntity
  8
Layer 1
 62
    75
420
  7842864
370
    25
100
AcDbVertex
100
AcDb2dVertex
 10
118.5736409208774
 20
142.471923792507
 30
0.0
  0
VERTEX
  5
18A
330
FE
100
AcDbEntity
  8
Layer 1
 62
    75
420
  7842864
370
    25
100
AcDbVertex
100
AcDb2dVertex
 10
118.6001681561139
 20
142.4741631045724
 30
0.0
  0
VERTEX
  5
18B
330
FE
100
AcDbEntity
  8
Layer 1
 62
    75
420
  7842864
370
    25
100
AcDbVertex
100
AcDb2dVertex
 10
118.6263508818018
 20
142.4753688879923
 30
0.0
  0
VERTEX
  5
18C
330
FE
100
AcDbEntity
  8
Layer 1
 62
    75
420
  7842864
370
    25
100
AcDbVertex
100
AcDb2dVertex
 10
118.6528781170382
 20
142.4757133975408
 30
0.0
  0
VERTEX
  5
18D
330
FE
100
AcDbEntity
  8
Layer 1
 62
    75
420
  7842864
370
    25
100
AcDbVertex
100
AcDb2dVertex
 10
118.6790608427261
 20
142.4750243784437
 30
0.0
  0
VERTEX
  5
18E
330
FE
100
AcDbEntity
  8
Layer 1
 62
    75
420
  7842864
370
    25
100
AcDbVertex
100
AcDb2dVertex
 10
118.7055880779625
 20
142.4736463402496
 30
0.0
  0
VERTEX
  5
18F
330
FE
100
AcDbEntity
  8
Layer 1
 62
    75
420
  7842864
370
    25
100
AcDbVertex
100
AcDb2dVertex
 10
118.7317708036504
 20
142.4714070281842
 30
0.0
  0
VERTEX
  5
190
330
FE
100
AcDbEntity
  8
Layer 1
 62
    75
420
  7842864
370
    25
100
AcDbVertex
100
AcDb2dVertex
 10
118.7579535293383
 20
142.4681341874733
 30
0.0
  0
VERTEX
  5
191
330
FE
100
AcDbEntity
  8
Layer 1
 62
    75
420
  7842864
370
    25
100
AcDbVertex
100
AcDb2dVertex
 10
118.7841362550262
 20
142.4641723276652
 30
0.0
  0
VERTEX
  5
192
330
FE
100
AcDbEntity
  8
Layer 1
 62
    75
420
  7842864
370
    25
100
AcDbVertex
100
AcDb2dVertex
 10
118.8099744711656
 20
142.4591769392116
 30
0.0
  0
VERTEX
  5
193
330
FE
100
AcDbEntity
  8
Layer 1
 62
    75
420
  7842864
370
    25
100
AcDbVertex
100
AcDb2dVertex
 10
118.8358126873049
 20
142.4534925316609
 30
0.0
  0
VERTEX
  5
194
330
FE
100
AcDbEntity
  8
Layer 1
 62
    75
420
  7842864
370
    25
100
AcDbVertex
100
AcDb2dVertex
 10
118.8613063938958
 20
142.4467745954647
 30
0.0
  0
VERTEX
  5
195
330
FE
100
AcDbEntity
  8
Layer 1
 62
    75
420
  7842864
370
    25
100
AcDbVertex
100
AcDb2dVertex
 10
118.8864555909381
 20
142.4393676401714
 30
0.0
  0
VERTEX
  5
196
330
FE
100
AcDbEntity
  8
Layer 1
 62
    75
420
  7842864
370
    25
100
AcDbVertex
100
AcDb2dVertex
 10
118.9116047879804
 20
142.4309271562325
 30
0.0
  0
VERTEX
  5
197
330
FE
100
AcDbEntity
  8
Layer 1
 62
    75
420
  7842864
370
    25
100
AcDbVertex
100
AcDb2dVertex
 10
118.9360649659257
 20
142.4217976531966
 30
0.0
  0
VERTEX
  5
198
330
FE
100
AcDbEntity
  8
Layer 1
 62
    75
420
  7842864
370
    25
100
AcDbVertex
100
AcDb2dVertex
 10
118.960525143871
 20
142.4119791310637
 30
0.0
  0
VERTEX
  5
199
330
FE
100
AcDbEntity
  8
Layer 1
 62
    75
420
  7842864
370
    25
100
AcDbVertex
100
AcDb2dVertex
 10
118.9846408122677
 20
142.4011270802851
 30
0.0
  0
VERTEX
  5
19A
330
FE
100
AcDbEntity
  8
Layer 1
 62
    75
420
  7842864
370
    25
100
AcDbVertex
100
AcDb2dVertex
 10
119.008411971116
 20
142.3895860104095
 30
0.0
  0
VERTEX
  5
19B
330
FE
100
AcDbEntity
  8
Layer 1
 62
    75
420
  7842864
370
    25
100
AcDbVertex
100
AcDb2dVertex
 10
119.0318386204157
 20
142.3771836666627
 30
0.0
  0
VERTEX
  5
19C
330
FE
100
AcDbEntity
  8
Layer 1
 62
    75
420
  7842864
370
    25
100
AcDbVertex
100
AcDb2dVertex
 10
119.0545762506183
 20
142.3640923038187
 30
0.0
  0
VERTEX
  5
19D
330
FE
100
AcDbEntity
  8
Layer 1
 62
    75
420
  7842864
370
    25
100
AcDbVertex
100
AcDb2dVertex
 10
119.0769693712724
 20
142.3501396671034
 30
0.0
  0
VERTEX
  5
19E
330
FE
100
AcDbEntity
  8
Layer 1
 62
    75
420
  7842864
370
    25
100
AcDbVertex
100
AcDb2dVertex
 10
119.099017982378
 20
142.3354980112911
 30
0.0
  0
VERTEX
  5
19F
330
FE
100
AcDbEntity
  8
Layer 1
 62
    75
420
  7842864
370
    25
100
AcDbVertex
100
AcDb2dVertex
 10
119.1203775743866
 20
142.3201673363818
 30
0.0
  0
VERTEX
  5
1A0
330
FE
100
AcDbEntity
  8
Layer 1
 62
    75
420
  7842864
370
    25
100
AcDbVertex
100
AcDb2dVertex
 10
119.1413926568466
 20
142.3041476423754
 30
0.0
  0
VERTEX
  5
1A1
330
FE
100
AcDbEntity
  8
Layer 1
 62
    75
420
  7842864
370
    25
100
AcDbVertex
100
AcDb2dVertex
 10
119.1617187202096
 20
142.2874389292719
 30
0.0
  0
VERTEX
  5
1A2
330
FE
100
AcDbEntity
  8
Layer 1
 62
    75
420
  7842864
370
    25
100
AcDbVertex
100
AcDb2dVertex
 10
119.181700274024
 20
142.2700411970714
 30
0.0
  0
VERTEX
  5
1A3
330
FE
100
AcDbEntity
  8
Layer 1
 62
    75
420
  7842864
370
    25
100
AcDbVertex
100
AcDb2dVertex
 10
119.2006482991929
 20
142.2519544457738
 30
0.0
  0
VERTEX
  5
1A4
330
FE
100
AcDbEntity
  8
Layer 1
 62
    75
420
  7842864
370
    25
100
AcDbVertex
100
AcDb2dVertex
 10
119.2192518148132
 20
142.2333509301535
 30
0.0
  0
VERTEX
  5
1A5
330
FE
100
AcDbEntity
  8
Layer 1
 62
    75
420
  7842864
370
    25
100
AcDbVertex
100
AcDb2dVertex
 10
119.2375108208851
 20
142.2140583954361
 30
0.0
  0
VERTEX
  5
1A6
330
FE
100
AcDbEntity
  8
Layer 1
 62
    75
420
  7842864
370
    25
100
AcDbVertex
100
AcDb2dVertex
 10
119.2547362983113
 20
142.1940768416216
 30
0.0
  0
VERTEX
  5
1A7
330
FE
100
AcDbEntity
  8
Layer 1
 62
    75
420
  7842864
370
    25
100
AcDbVertex
100
AcDb2dVertex
 10
119.2712727566405
 20
142.1735785234844
 30
0.0
  0
VERTEX
  5
1A8
330
FE
100
AcDbEntity
  8
Layer 1
 62
    75
420
  7842864
370
    25
100
AcDbVertex
100
AcDb2dVertex
 10
119.2874647054212
 20
142.1527356957986
 30
0.0
  0
VERTEX
  5
1A9
330
FE
100
AcDbEntity
  8
Layer 1
 62
    75
420
  7842864
370
    25
100
AcDbVertex
100
AcDb2dVertex
 10
119.3026231255563
 20
142.1312038490158
 30
0.0
  0
VERTEX
  5
1AA
330
FE
100
AcDbEntity
  8
Layer 1
 62
    75
420
  7842864
370
    25
100
AcDbVertex
100
AcDb2dVertex
 10
119.3170925265943
 20
142.1091552379102
 30
0.0
  0
VERTEX
  5
1AB
330
FE
100
AcDbEntity
  8
Layer 1
 62
    75
420
  7842864
370
    25
100
AcDbVertex
100
AcDb2dVertex
 10
119.3308729085353
 20
142.0865898624818
 30
0.0
  0
VERTEX
  5
1AC
330
FE
100
AcDbEntity
  8
Layer 1
 62
    75
420
  7842864
370
    25
100
AcDbVertex
100
AcDb2dVertex
 10
119.3439642713793
 20
142.0636799775049
 30
0.0
  0
VERTEX
  5
1AD
330
FE
100
AcDbEntity
  8
Layer 1
 62
    75
420
  7842864
370
    25
100
AcDbVertex
100
AcDb2dVertex
 10
119.3560221055777
 20
142.0404255829795
 30
0.0
  0
VERTEX
  5
1AE
330
FE
100
AcDbEntity
  8
Layer 1
 62
    75
420
  7842864
370
    25
100
AcDbVertex
100
AcDb2dVertex
 10
119.3677354302275
 20
142.0166544241312
 30
0.0
  0
VERTEX
  5
1AF
330
FE
100
AcDbEntity
  8
Layer 1
 62
    75
420
  7842864
370
    25
100
AcDbVertex
100
AcDb2dVertex
 10
119.3784152262318
 20
141.9925387557345
 30
0.0
  0
VERTEX
  5
1B0
330
FE
100
AcDbEntity
  8
Layer 1
 62
    75
420
  7842864
370
    25
100
AcDbVertex
100
AcDb2dVertex
 10
119.3880614935905
 20
141.9680785777892
 30
0.0
  0
VERTEX
  5
1B1
330
FE
100
AcDbEntity
  8
Layer 1
 62
    75
420
  7842864
370
    25
100
AcDbVertex
100
AcDb2dVertex
 10
119.3973632514007
 20
141.9432738902954
 30
0.0
  0
VERTEX
  5
1B2
330
FE
100
AcDbEntity
  8
Layer 1
 62
    75
420
  7842864
370
    25
100
AcDbVertex
100
AcDb2dVertex
 10
119.4052869710167
 20
141.9182969480274
 30
0.0
  0
VERTEX
  5
1B3
330
FE
100
AcDbEntity
  8
Layer 1
 62
    75
420
  7842864
370
    25
100
AcDbVertex
100
AcDb2dVertex
 10
119.4128661810843
 20
141.8928032414365
 30
0.0
  0
VERTEX
  5
1B4
330
FE
100
AcDbEntity
  8
Layer 1
 62
    75
420
  7842864
370
    25
100
AcDbVertex
100
AcDb2dVertex
 10
119.4194118625063
 20
141.8673095348457
 30
0.0
  0
VERTEX
  5
1B5
330
FE
100
AcDbEntity
  8
Layer 1
 62
    75
420
  7842864
370
    25
100
AcDbVertex
100
AcDb2dVertex
 10
119.4249240152827
 20
141.8416435734806
 30
0.0
  0
VERTEX
  5
1B6
330
FE
100
AcDbEntity
  8
Layer 1
 62
    75
420
  7842864
370
    25
100
AcDbVertex
100
AcDb2dVertex
 10
119.429747148962
 20
141.8156331025669
 30
0.0
  0
VERTEX
  5
1B7
330
FE
100
AcDbEntity
  8
Layer 1
 62
    75
420
  7842864
370
    25
100
AcDbVertex
100
AcDb2dVertex
 10
119.4338812635443
 20
141.7896226316533
 30
0.0
  0
VERTEX
  5
1B8
330
FE
100
AcDbEntity
  8
Layer 1
 62
    75
420
  7842864
370
    25
100
AcDbVertex
100
AcDb2dVertex
 10
119.4366373399325
 20
141.7634399059654
 30
0.0
  0
VERTEX
  5
1B9
330
FE
100
AcDbEntity
  8
Layer 1
 62
    75
420
  7842864
370
    25
100
AcDbVertex
100
AcDb2dVertex
 10
119.4390489067722
 20
141.7370849255032
 30
0.0
  0
VERTEX
  5
1BA
330
FE
100
AcDbEntity
  8
Layer 1
 62
    75
420
  7842864
370
    25
100
AcDbVertex
100
AcDb2dVertex
 10
119.4404269449663
 20
141.7107299450411
 30
0.0
  0
VERTEX
  5
1BB
330
FE
100
AcDbEntity
  8
Layer 1
 62
    75
420
  7842864
370
    25
100
AcDbVertex
100
AcDb2dVertex
 10
119.4407714545148
 20
141.6843749645789
 30
0.0
  0
SEQEND
  5
1BC
330
FE
100
AcDbEntity
  8
Layer 1
370
    25
  0
POLYLINE
  5
1BD
330
1F
100
AcDbEntity
  8
Layer 1
 62
   143
420
  5095150
370
    25
100
AcDb2dPolyline
 66
     1
 10
0.0
 20
0.0
 30
0.0
  0
VERTEX
  5
1BE
330
1BD
100
AcDbEntity
  8
Layer 1
 62
   143
420
  5095150
370
    25
100
AcDbVertex
100
AcDb2dVertex
 10
157.7243950343536
 20
141.671283601735
 30
0.0
  0
VERTEX
  5
1BF
330
1BD
100
AcDbEntity
  8
Layer 1
 62
   143
420
  5095150
370
    25
100
AcDbVertex
100
AcDb2dVertex
 10
157.7237060152566
 20
141.6449286212728
 30
0.0
  0
VERTEX
  5
1C0
330
1BD
100
AcDbEntity
  8
Layer 1
 62
   143
420
  5095150
370
    25
100
AcDbVertex
100
AcDb2dVertex
 10
157.721983467514
 20
141.6185736408106
 30
0.0
  0
VERTEX
  5
1C1
330
1BD
100
AcDbEntity
  8
Layer 1
 62
   143
420
  5095150
370
    25
100
AcDbVertex
100
AcDb2dVertex
 10
157.7192273911258
 20
141.5923909151227
 30
0.0
  0
VERTEX
  5
1C2
330
1BD
100
AcDbEntity
  8
Layer 1
 62
   143
420
  5095150
370
    25
100
AcDbVertex
100
AcDb2dVertex
 10
157.7157822956405
 20
141.5662081894348
 30
0.0
  0
VERTEX
  5
1C3
330
1BD
100
AcDbEntity
  8
Layer 1
 62
   143
420
  5095150
370
    25
100
AcDbVertex
100
AcDb2dVertex
 10
157.7113036715097
 20
141.5401977185212
 30
0.0
  0
VERTEX
  5
1C4
330
1BD
100
AcDbEntity
  8
Layer 1
 62
   143
420
  5095150
370
    25
100
AcDbVertex
100
AcDb2dVertex
 10
157.7061360282818
 20
141.5143595023818
 30
0.0
  0
VERTEX
  5
1C5
330
1BD
100
AcDbEntity
  8
Layer 1
 62
   143
420
  5095150
370
    25
100
AcDbVertex
100
AcDb2dVertex
 10
157.6999348564084
 20
141.4886935410167
 30
0.0
  0
VERTEX
  5
1C6
330
1BD
100
AcDbEntity
  8
Layer 1
 62
   143
420
  5095150
370
    25
100
AcDbVertex
100
AcDb2dVertex
 10
157.6930446654379
 20
141.4631998344259
 30
0.0
  0
VERTEX
  5
1C7
330
1BD
100
AcDbEntity
  8
Layer 1
 62
   143
420
  5095150
370
    25
100
AcDbVertex
100
AcDb2dVertex
 10
157.6851209458218
 20
141.4380506373836
 30
0.0
  0
VERTEX
  5
1C8
330
1BD
100
AcDbEntity
  8
Layer 1
 62
   143
420
  5095150
370
    25
100
AcDbVertex
100
AcDb2dVertex
 10
157.6765082071087
 20
141.4132459498898
 30
0.0
  0
VERTEX
  5
1C9
330
1BD
100
AcDbEntity
  8
Layer 1
 62
   143
420
  5095150
370
    25
100
AcDbVertex
100
AcDb2dVertex
 10
157.6672064492985
 20
141.3886135171702
 30
0.0
  0
VERTEX
  5
1CA
330
1BD
100
AcDbEntity
  8
Layer 1
 62
   143
420
  5095150
370
    25
100
AcDbVertex
100
AcDb2dVertex
 10
157.6568711628427
 20
141.3643255939992
 30
0.0
  0
VERTEX
  5
1CB
330
1BD
100
AcDbEntity
  8
Layer 1
 62
   143
420
  5095150
370
    25
100
AcDbVertex
100
AcDb2dVertex
 10
157.6458468572899
 20
141.3403821803767
 30
0.0
  0
VERTEX
  5
1CC
330
1BD
100
AcDbEntity
  8
Layer 1
 62
   143
420
  5095150
370
    25
100
AcDbVertex
100
AcDb2dVertex
 10
157.6341335326401
 20
141.3167832763027
 30
0.0
  0
VERTEX
  5
1CD
330
1BD
100
AcDbEntity
  8
Layer 1
 62
   143
420
  5095150
370
    25
100
AcDbVertex
100
AcDb2dVertex
 10
157.6213866793447
 20
141.2935288817773
 30
0.0
  0
VERTEX
  5
1CE
330
1BD
100
AcDbEntity
  8
Layer 1
 62
   143
420
  5095150
370
    25
100
AcDbVertex
100
AcDb2dVertex
 10
157.6079508069522
 20
141.2709635063489
 30
0.0
  0
VERTEX
  5
1CF
330
1BD
100
AcDbEntity
  8
Layer 1
 62
   143
420
  5095150
370
    25
100
AcDbVertex
100
AcDb2dVertex
 10
157.5938259154627
 20
141.2485703856948
 30
0.0
  0
VERTEX
  5
1D0
330
1BD
100
AcDbEntity
  8
Layer 1
 62
   143
420
  5095150
370
    25
100
AcDbVertex
100
AcDb2dVertex
 10
157.5790120048761
 20
141.2268662841377
 30
0.0
  0
VERTEX
  5
1D1
330
1BD
100
AcDbEntity
  8
Layer 1
 62
   143
420
  5095150
370
    25
100
AcDbVertex
100
AcDb2dVertex
 10
157.5631645656439
 20
141.2056789469034
 30
0.0
  0
VERTEX
  5
1D2
330
1BD
100
AcDbEntity
  8
Layer 1
 62
   143
420
  5095150
370
    25
100
AcDbVertex
100
AcDb2dVertex
 10
157.5469726168633
 20
141.1848361192177
 30
0.0
  0
VERTEX
  5
1D3
330
1BD
100
AcDbEntity
  8
Layer 1
 62
   143
420
  5095150
370
    25
100
AcDbVertex
100
AcDb2dVertex
 10
157.5300916489855
 20
141.164682310629
 30
0.0
  0
VERTEX
  5
1D4
330
1BD
100
AcDbEntity
  8
Layer 1
 62
   143
420
  5095150
370
    25
100
AcDbVertex
100
AcDb2dVertex
 10
157.5125216620108
 20
141.145045266363
 30
0.0
  0
VERTEX
  5
1D5
330
1BD
100
AcDbEntity
  8
Layer 1
 62
   143
420
  5095150
370
    25
100
AcDbVertex
100
AcDb2dVertex
 10
157.4939181463904
 20
141.1260972411942
 30
0.0
  0
VERTEX
  5
1D6
330
1BD
100
AcDbEntity
  8
Layer 1
 62
   143
420
  5095150
370
    25
100
AcDbVertex
100
AcDb2dVertex
 10
157.4753146307701
 20
141.1076659803481
 30
0.0
  0
VERTEX
  5
1D7
330
1BD
100
AcDbEntity
  8
Layer 1
 62
   143
420
  5095150
370
    25
100
AcDbVertex
100
AcDb2dVertex
 10
157.4556775865042
 20
141.0899237385991
 30
0.0
  0
VERTEX
  5
1D8
330
1BD
100
AcDbEntity
  8
Layer 1
 62
   143
420
  5095150
370
    25
100
AcDbVertex
100
AcDb2dVertex
 10
157.4356960326897
 20
141.0728705159471
 30
0.0
  0
VERTEX
  5
1D9
330
1BD
100
AcDbEntity
  8
Layer 1
 62
   143
420
  5095150
370
    25
100
AcDbVertex
100
AcDb2dVertex
 10
157.4150254597782
 20
141.0565063123921
 30
0.0
  0
VERTEX
  5
1DA
330
1BD
100
AcDbEntity
  8
Layer 1
 62
   143
420
  5095150
370
    25
100
AcDbVertex
100
AcDb2dVertex
 10
157.3936658677696
 20
141.0408311279342
 30
0.0
  0
VERTEX
  5
1DB
330
1BD
100
AcDbEntity
  8
Layer 1
 62
   143
420
  5095150
370
    25
100
AcDbVertex
100
AcDb2dVertex
 10
157.3719617662126
 20
141.0258449625734
 30
0.0
  0
VERTEX
  5
1DC
330
1BD
100
AcDbEntity
  8
Layer 1
 62
   143
420
  5095150
370
    25
100
AcDbVertex
100
AcDb2dVertex
 10
157.349913155107
 20
141.0115478163096
 30
0.0
  0
VERTEX
  5
1DD
330
1BD
100
AcDbEntity
  8
Layer 1
 62
   143
420
  5095150
370
    25
100
AcDbVertex
100
AcDb2dVertex
 10
157.3271755249043
 20
140.9981119439171
 30
0.0
  0
VERTEX
  5
1DE
330
1BD
100
AcDbEntity
  8
Layer 1
 62
   143
420
  5095150
370
    25
100
AcDbVertex
100
AcDb2dVertex
 10
157.3040933851532
 20
140.9853650906217
 30
0.0
  0
VERTEX
  5
1DF
330
1BD
100
AcDbEntity
  8
Layer 1
 62
   143
420
  5095150
370
    25
100
AcDbVertex
100
AcDb2dVertex
 10
157.2806667358535
 20
140.9733072564233
 30
0.0
  0
VERTEX
  5
1E0
330
1BD
100
AcDbEntity
  8
Layer 1
 62
   143
420
  5095150
370
    25
100
AcDbVertex
100
AcDb2dVertex
 10
157.2565510674567
 20
140.9621106960963
 30
0.0
  0
VERTEX
  5
1E1
330
1BD
100
AcDbEntity
  8
Layer 1
 62
   143
420
  5095150
370
    25
100
AcDbVertex
100
AcDb2dVertex
 10
157.23243539906
 20
140.9517754096405
 30
0.0
  0
VERTEX
  5
1E2
330
1BD
100
AcDbEntity
  8
Layer 1
 62
   143
420
  5095150
370
    25
100
AcDbVertex
100
AcDb2dVertex
 10
157.2079752211147
 20
140.9423013970561
 30
0.0
  0
VERTEX
  5
1E3
330
1BD
100
AcDbEntity
  8
Layer 1
 62
   143
420
  5095150
370
    25
100
AcDbVertex
100
AcDb2dVertex
 10
157.1828260240724
 20
140.9335164035687
 30
0.0
  0
VERTEX
  5
1E4
330
1BD
100
AcDbEntity
  8
Layer 1
 62
   143
420
  5095150
370
    25
100
AcDbVertex
100
AcDb2dVertex
 10
157.15767682703
 20
140.9255926839526
 30
0.0
  0
VERTEX
  5
1E5
330
1BD
100
AcDbEntity
  8
Layer 1
 62
   143
420
  5095150
370
    25
100
AcDbVertex
100
AcDb2dVertex
 10
157.1325276299877
 20
140.9185302382079
 30
0.0
  0
VERTEX
  5
1E6
330
1BD
100
AcDbEntity
  8
Layer 1
 62
   143
420
  5095150
370
    25
100
AcDbVertex
100
AcDb2dVertex
 10
157.1066894138483
 20
140.9123290663344
 30
0.0
  0
VERTEX
  5
1E7
330
1BD
100
AcDbEntity
  8
Layer 1
 62
   143
420
  5095150
370
    25
100
AcDbVertex
100
AcDb2dVertex
 10
157.080851197709
 20
140.9069891683323
 30
0.0
  0
VERTEX
  5
1E8
330
1BD
100
AcDbEntity
  8
Layer 1
 62
   143
420
  5095150
370
    25
100
AcDbVertex
100
AcDb2dVertex
 10
157.0550129815696
 20
140.9025105442015
 30
0.0
  0
VERTEX
  5
1E9
330
1BD
100
AcDbEntity
  8
Layer 1
 62
   143
420
  5095150
370
    25
100
AcDbVertex
100
AcDb2dVertex
 10
157.0288302558817
 20
140.8988931939419
 30
0.0
  0
VERTEX
  5
1EA
330
1BD
100
AcDbEntity
  8
Layer 1
 62
   143
420
  5095150
370
    25
100
AcDbVertex
100
AcDb2dVertex
 10
157.0026475301938
 20
140.8961371175538
 30
0.0
  0
VERTEX
  5
1EB
330
1BD
100
AcDbEntity
  8
Layer 1
 62
   143
420
  5095150
370
    25
100
AcDbVertex
100
AcDb2dVertex
 10
156.9761202949574
 20
140.8942423150368
 30
0.0
  0
VERTEX
  5
1EC
330
1BD
100
AcDbEntity
  8
Layer 1
 62
   143
420
  5095150
370
    25
100
AcDbVertex
100
AcDb2dVertex
 10
156.9499375692695
 20
140.8932087863913
 30
0.0
  0
VERTEX
  5
1ED
330
1BD
100
AcDbEntity
  8
Layer 1
 62
   143
420
  5095150
370
    25
100
AcDbVertex
100
AcDb2dVertex
 10
156.923410334033
 20
140.8932087863913
 30
0.0
  0
VERTEX
  5
1EE
330
1BD
100
AcDbEntity
  8
Layer 1
 62
   143
420
  5095150
370
    25
100
AcDbVertex
100
AcDb2dVertex
 10
156.8972276083451
 20
140.8938978054883
 30
0.0
  0
VERTEX
  5
1EF
330
1BD
100
AcDbEntity
  8
Layer 1
 62
   143
420
  5095150
370
    25
100
AcDbVertex
100
AcDb2dVertex
 10
156.8707003731087
 20
140.895620353231
 30
0.0
  0
VERTEX
  5
1F0
330
1BD
100
AcDbEntity
  8
Layer 1
 62
   143
420
  5095150
370
    25
100
AcDbVertex
100
AcDb2dVertex
 10
156.8445176474208
 20
140.8980319200707
 30
0.0
  0
VERTEX
  5
1F1
330
1BD
100
AcDbEntity
  8
Layer 1
 62
   143
420
  5095150
370
    25
100
AcDbVertex
100
AcDb2dVertex
 10
156.8183349217329
 20
140.9014770155559
 30
0.0
  0
VERTEX
  5
1F2
330
1BD
100
AcDbEntity
  8
Layer 1
 62
   143
420
  5095150
370
    25
100
AcDbVertex
100
AcDb2dVertex
 10
156.7924967055935
 20
140.9057833849124
 30
0.0
  0
VERTEX
  5
1F3
330
1BD
100
AcDbEntity
  8
Layer 1
 62
   143
420
  5095150
370
    25
100
AcDbVertex
100
AcDb2dVertex
 10
156.7666584894542
 20
140.9109510281403
 30
0.0
  0
VERTEX
  5
1F4
330
1BD
100
AcDbEntity
  8
Layer 1
 62
   143
420
  5095150
370
    25
100
AcDbVertex
100
AcDb2dVertex
 10
156.7408202733148
 20
140.9168076904652
 30
0.0
  0
VERTEX
  5
1F5
330
1BD
100
AcDbEntity
  8
Layer 1
 62
   143
420
  5095150
370
    25
100
AcDbVertex
100
AcDb2dVertex
 10
156.7153265667239
 20
140.9236978814357
 30
0.0
  0
VERTEX
  5
1F6
330
1BD
100
AcDbEntity
  8
Layer 1
 62
   143
420
  5095150
370
    25
100
AcDbVertex
100
AcDb2dVertex
 10
156.6901773696816
 20
140.9314493462776
 30
0.0
  0
VERTEX
  5
1F7
330
1BD
100
AcDbEntity
  8
Layer 1
 62
   143
420
  5095150
370
    25
100
AcDbVertex
100
AcDb2dVertex
 10
156.6650281726393
 20
140.9398898302164
 30
0.0
  0
VERTEX
  5
1F8
330
1BD
100
AcDbEntity
  8
Layer 1
 62
   143
420
  5095150
370
    25
100
AcDbVertex
100
AcDb2dVertex
 10
156.640567994694
 20
140.9491915880266
 30
0.0
  0
VERTEX
  5
1F9
330
1BD
100
AcDbEntity
  8
Layer 1
 62
   143
420
  5095150
370
    25
100
AcDbVertex
100
AcDb2dVertex
 10
156.6161078167488
 20
140.9595268744823
 30
0.0
  0
VERTEX
  5
1FA
330
1BD
100
AcDbEntity
  8
Layer 1
 62
   143
420
  5095150
370
    25
100
AcDbVertex
100
AcDb2dVertex
 10
156.5923366579005
 20
140.9703789252609
 30
0.0
  0
VERTEX
  5
1FB
330
1BD
100
AcDbEntity
  8
Layer 1
 62
   143
420
  5095150
370
    25
100
AcDbVertex
100
AcDb2dVertex
 10
156.5685654990523
 20
140.982264504685
 30
0.0
  0
VERTEX
  5
1FC
330
1BD
100
AcDbEntity
  8
Layer 1
 62
   143
420
  5095150
370
    25
100
AcDbVertex
100
AcDb2dVertex
 10
156.5454833593011
 20
140.9946668484319
 30
0.0
  0
VERTEX
  5
1FD
330
1BD
100
AcDbEntity
  8
Layer 1
 62
   143
420
  5095150
370
    25
100
AcDbVertex
100
AcDb2dVertex
 10
156.5227457290985
 20
141.0081027208244
 30
0.0
  0
VERTEX
  5
1FE
330
1BD
100
AcDbEntity
  8
Layer 1
 62
   143
420
  5095150
370
    25
100
AcDbVertex
100
AcDb2dVertex
 10
156.5003526084444
 20
141.0220553575396
 30
0.0
  0
VERTEX
  5
1FF
330
1BD
100
AcDbEntity
  8
Layer 1
 62
   143
420
  5095150
370
    25
100
AcDbVertex
100
AcDb2dVertex
 10
156.4786485068873
 20
141.0368692681262
 30
0.0
  0
VERTEX
  5
200
330
1BD
100
AcDbEntity
  8
Layer 1
 62
   143
420
  5095150
370
    25
100
AcDbVertex
100
AcDb2dVertex
 10
156.4572889148787
 20
141.0523721978098
 30
0.0
  0
VERTEX
  5
201
330
1BD
100
AcDbEntity
  8
Layer 1
 62
   143
420
  5095150
370
    25
100
AcDbVertex
100
AcDb2dVertex
 10
156.4362738324187
 20
141.0685641465905
 30
0.0
  0
VERTEX
  5
202
330
1BD
100
AcDbEntity
  8
Layer 1
 62
   143
420
  5095150
370
    25
100
AcDbVertex
100
AcDb2dVertex
 10
156.4162922786043
 20
141.0856173692425
 30
0.0
  0
VERTEX
  5
203
330
1BD
100
AcDbEntity
  8
Layer 1
 62
   143
420
  5095150
370
    25
100
AcDbVertex
100
AcDb2dVertex
 10
156.3963107247898
 20
141.1031873562173
 30
0.0
  0
VERTEX
  5
204
330
1BD
100
AcDbEntity
  8
Layer 1
 62
   143
420
  5095150
370
    25
100
AcDbVertex
100
AcDb2dVertex
 10
156.3773626996209
 20
141.1212741075148
 30
0.0
  0
VERTEX
  5
205
330
1BD
100
AcDbEntity
  8
Layer 1
 62
   143
420
  5095150
370
    25
100
AcDbVertex
100
AcDb2dVertex
 10
156.3587591840006
 20
141.1402221326837
 30
0.0
  0
VERTEX
  5
206
330
1BD
100
AcDbEntity
  8
Layer 1
 62
   143
420
  5095150
370
    25
100
AcDbVertex
100
AcDb2dVertex
 10
156.3411891970258
 20
141.1596869221754
 30
0.0
  0
VERTEX
  5
207
330
1BD
100
AcDbEntity
  8
Layer 1
 62
   143
420
  5095150
370
    25
100
AcDbVertex
100
AcDb2dVertex
 10
156.3239637195996
 20
141.1796684759898
 30
0.0
  0
VERTEX
  5
208
330
1BD
100
AcDbEntity
  8
Layer 1
 62
   143
420
  5095150
370
    25
100
AcDbVertex
100
AcDb2dVertex
 10
156.3074272612704
 20
141.2001667941271
 30
0.0
  0
VERTEX
  5
209
330
1BD
100
AcDbEntity
  8
Layer 1
 62
   143
420
  5095150
370
    25
100
AcDbVertex
100
AcDb2dVertex
 10
156.2915798220382
 20
141.2213541313613
 30
0.0
  0
VERTEX
  5
20A
330
1BD
100
AcDbEntity
  8
Layer 1
 62
   143
420
  5095150
370
    25
100
AcDbVertex
100
AcDb2dVertex
 10
156.2767659114517
 20
141.2430582329184
 30
0.0
  0
VERTEX
  5
20B
330
1BD
100
AcDbEntity
  8
Layer 1
 62
   143
420
  5095150
370
    25
100
AcDbVertex
100
AcDb2dVertex
 10
156.2622965104136
 20
141.265106844024
 30
0.0
  0
VERTEX
  5
20C
330
1BD
100
AcDbEntity
  8
Layer 1
 62
   143
420
  5095150
370
    25
100
AcDbVertex
100
AcDb2dVertex
 10
156.2485161284726
 20
141.2876722194524
 30
0.0
  0
VERTEX
  5
20D
330
1BD
100
AcDbEntity
  8
Layer 1
 62
   143
420
  5095150
370
    25
100
AcDbVertex
100
AcDb2dVertex
 10
156.2357692751772
 20
141.3107543592036
 30
0.0
  0
VERTEX
  5
20E
330
1BD
100
AcDbEntity
  8
Layer 1
 62
   143
420
  5095150
370
    25
100
AcDbVertex
100
AcDb2dVertex
 10
156.2237114409788
 20
141.3341810085033
 30
0.0
  0
VERTEX
  5
20F
330
1BD
100
AcDbEntity
  8
Layer 1
 62
   143
420
  5095150
370
    25
100
AcDbVertex
100
AcDb2dVertex
 10
156.2123426258775
 20
141.3581244221257
 30
0.0
  0
VERTEX
  5
210
330
1BD
100
AcDbEntity
  8
Layer 1
 62
   143
420
  5095150
370
    25
100
AcDbVertex
100
AcDb2dVertex
 10
156.2020073394217
 20
141.3822400905225
 30
0.0
  0
VERTEX
  5
211
330
1BD
100
AcDbEntity
  8
Layer 1
 62
   143
420
  5095150
370
    25
100
AcDbVertex
100
AcDb2dVertex
 10
156.192361072063
 20
141.406872523242
 30
0.0
  0
VERTEX
  5
212
330
1BD
100
AcDbEntity
  8
Layer 1
 62
   143
420
  5095150
370
    25
100
AcDbVertex
100
AcDb2dVertex
 10
156.1834038238014
 20
141.4316772107358
 30
0.0
  0
VERTEX
  5
213
330
1BD
100
AcDbEntity
  8
Layer 1
 62
   143
420
  5095150
370
    25
100
AcDbVertex
100
AcDb2dVertex
 10
156.1754801041853
 20
141.4568264077782
 30
0.0
  0
VERTEX
  5
214
330
1BD
100
AcDbEntity
  8
Layer 1
 62
   143
420
  5095150
370
    25
100
AcDbVertex
100
AcDb2dVertex
 10
156.1682454036663
 20
141.4821478595948
 30
0.0
  0
VERTEX
  5
215
330
1BD
100
AcDbEntity
  8
Layer 1
 62
   143
420
  5095150
370
    25
100
AcDbVertex
100
AcDb2dVertex
 10
156.1620442317928
 20
141.5078138209599
 30
0.0
  0
VERTEX
  5
216
330
1BD
100
AcDbEntity
  8
Layer 1
 62
   143
420
  5095150
370
    25
100
AcDbVertex
100
AcDb2dVertex
 10
156.1565320790164
 20
141.5336520370992
 30
0.0
  0
VERTEX
  5
217
330
1BD
100
AcDbEntity
  8
Layer 1
 62
   143
420
  5095150
370
    25
100
AcDbVertex
100
AcDb2dVertex
 10
156.1520534548856
 20
141.5594902532386
 30
0.0
  0
VERTEX
  5
218
330
1BD
100
AcDbEntity
  8
Layer 1
 62
   143
420
  5095150
370
    25
100
AcDbVertex
100
AcDb2dVertex
 10
156.1482638498518
 20
141.5856729789265
 30
0.0
  0
VERTEX
  5
219
330
1BD
100
AcDbEntity
  8
Layer 1
 62
   143
420
  5095150
370
    25
100
AcDbVertex
100
AcDb2dVertex
 10
156.1455077734636
 20
141.6118557046144
 30
0.0
  0
VERTEX
  5
21A
330
1BD
100
AcDbEntity
  8
Layer 1
 62
   143
420
  5095150
370
    25
100
AcDbVertex
100
AcDb2dVertex
 10
156.1434407161725
 20
141.6382106850766
 30
0.0
  0
VERTEX
  5
21B
330
1BD
100
AcDbEntity
  8
Layer 1
 62
   143
420
  5095150
370
    25
100
AcDbVertex
100
AcDb2dVertex
 10
156.1424071875269
 20
141.6645656655387
 30
0.0
  0
VERTEX
  5
21C
330
1BD
100
AcDbEntity
  8
Layer 1
 62
   143
420
  5095150
370
    25
100
AcDbVertex
100
AcDb2dVertex
 10
156.1420626779784
 20
141.6909206460009
 30
0.0
  0
VERTEX
  5
21D
330
1BD
100
AcDbEntity
  8
Layer 1
 62
   143
420
  5095150
370
    25
100
AcDbVertex
100
AcDb2dVertex
 10
156.1427516970754
 20
141.717275626463
 30
0.0
  0
VERTEX
  5
21E
330
1BD
100
AcDbEntity
  8
Layer 1
 62
   143
420
  5095150
370
    25
100
AcDbVertex
100
AcDb2dVertex
 10
156.1441297352695
 20
141.7436306069252
 30
0.0
  0
VERTEX
  5
21F
330
1BD
100
AcDbEntity
  8
Layer 1
 62
   143
420
  5095150
370
    25
100
AcDbVertex
100
AcDb2dVertex
 10
156.1465413021092
 20
141.7698133326131
 30
0.0
  0
VERTEX
  5
220
330
1BD
100
AcDbEntity
  8
Layer 1
 62
   143
420
  5095150
370
    25
100
AcDbVertex
100
AcDb2dVertex
 10
156.1499863975945
 20
141.795996058301
 30
0.0
  0
VERTEX
  5
221
330
1BD
100
AcDbEntity
  8
Layer 1
 62
   143
420
  5095150
370
    25
100
AcDbVertex
100
AcDb2dVertex
 10
156.1541205121767
 20
141.8220065292146
 30
0.0
  0
VERTEX
  5
222
330
1BD
100
AcDbEntity
  8
Layer 1
 62
   143
420
  5095150
370
    25
100
AcDbVertex
100
AcDb2dVertex
 10
156.1592881554046
 20
141.8480170001283
 30
0.0
  0
VERTEX
  5
223
330
1BD
100
AcDbEntity
  8
Layer 1
 62
   143
420
  5095150
370
    25
100
AcDbVertex
100
AcDb2dVertex
 10
156.1651448177296
 20
141.8736829614934
 30
0.0
  0
VERTEX
  5
224
330
1BD
100
AcDbEntity
  8
Layer 1
 62
   143
420
  5095150
370
    25
100
AcDbVertex
100
AcDb2dVertex
 10
156.1716904991515
 20
141.8991766680842
 30
0.0
  0
VERTEX
  5
225
330
1BD
100
AcDbEntity
  8
Layer 1
 62
   143
420
  5095150
370
    25
100
AcDbVertex
100
AcDb2dVertex
 10
156.1792697092191
 20
141.9244981199008
 30
0.0
  0
VERTEX
  5
226
330
1BD
100
AcDbEntity
  8
Layer 1
 62
   143
420
  5095150
370
    25
100
AcDbVertex
100
AcDb2dVertex
 10
156.1878824479322
 20
141.9494750621689
 30
0.0
  0
VERTEX
  5
227
330
1BD
100
AcDbEntity
  8
Layer 1
 62
   143
420
  5095150
370
    25
100
AcDbVertex
100
AcDb2dVertex
 10
156.1971842057424
 20
141.9741074948884
 30
0.0
  0
VERTEX
  5
228
330
1BD
100
AcDbEntity
  8
Layer 1
 62
   143
420
  5095150
370
    25
100
AcDbVertex
100
AcDb2dVertex
 10
156.2071749826496
 20
141.9985676728337
 30
0.0
  0
VERTEX
  5
229
330
1BD
100
AcDbEntity
  8
Layer 1
 62
   143
420
  5095150
370
    25
100
AcDbVertex
100
AcDb2dVertex
 10
156.2178547786539
 20
142.0225110864562
 30
0.0
  0
VERTEX
  5
22A
330
1BD
100
AcDbEntity
  8
Layer 1
 62
   143
420
  5095150
370
    25
100
AcDbVertex
100
AcDb2dVertex
 10
156.2295681033037
 20
142.0461099905301
 30
0.0
  0
VERTEX
  5
22B
330
1BD
100
AcDbEntity
  8
Layer 1
 62
   143
420
  5095150
370
    25
100
AcDbVertex
100
AcDb2dVertex
 10
156.2419704470506
 20
142.0693643850556
 30
0.0
  0
VERTEX
  5
22C
330
1BD
100
AcDbEntity
  8
Layer 1
 62
   143
420
  5095150
370
    25
100
AcDbVertex
100
AcDb2dVertex
 10
156.2554063194431
 20
142.0922742700325
 30
0.0
  0
VERTEX
  5
22D
330
1BD
100
AcDbEntity
  8
Layer 1
 62
   143
420
  5095150
370
    25
100
AcDbVertex
100
AcDb2dVertex
 10
156.2691867013841
 20
142.1146673906866
 30
0.0
  0
VERTEX
  5
22E
330
1BD
100
AcDbEntity
  8
Layer 1
 62
   143
420
  5095150
370
    25
100
AcDbVertex
100
AcDb2dVertex
 10
156.2840006119707
 20
142.136543747018
 30
0.0
  0
VERTEX
  5
22F
330
1BD
100
AcDbEntity
  8
Layer 1
 62
   143
420
  5095150
370
    25
100
AcDbVertex
100
AcDb2dVertex
 10
156.2995035416543
 20
142.1579033390265
 30
0.0
  0
VERTEX
  5
230
330
1BD
100
AcDbEntity
  8
Layer 1
 62
   143
420
  5095150
370
    25
100
AcDbVertex
100
AcDb2dVertex
 10
156.315695490435
 20
142.1787461667123
 30
0.0
  0
VERTEX
  5
231
330
1BD
100
AcDbEntity
  8
Layer 1
 62
   143
420
  5095150
370
    25
100
AcDbVertex
100
AcDb2dVertex
 10
156.3322319487642
 20
142.1990722300752
 30
0.0
  0
VERTEX
  5
232
330
1BD
100
AcDbEntity
  8
Layer 1
 62
   143
420
  5095150
370
    25
100
AcDbVertex
100
AcDb2dVertex
 10
156.349801935739
 20
142.2188815291154
 30
0.0
  0
VERTEX
  5
233
330
1BD
100
AcDbEntity
  8
Layer 1
 62
   143
420
  5095150
370
    25
100
AcDbVertex
100
AcDb2dVertex
 10
156.3680609418108
 20
142.2380018090586
 30
0.0
  0
VERTEX
  5
234
330
1BD
100
AcDbEntity
  8
Layer 1
 62
   143
420
  5095150
370
    25
100
AcDbVertex
100
AcDb2dVertex
 10
156.3866644574311
 20
142.2566053246789
 30
0.0
  0
VERTEX
  5
235
330
1BD
100
AcDbEntity
  8
Layer 1
 62
   143
420
  5095150
370
    25
100
AcDbVertex
100
AcDb2dVertex
 10
156.4059569921485
 20
142.2743475664279
 30
0.0
  0
VERTEX
  5
236
330
1BD
100
AcDbEntity
  8
Layer 1
 62
   143
420
  5095150
370
    25
100
AcDbVertex
100
AcDb2dVertex
 10
156.425938545963
 20
142.2917452986285
 30
0.0
  0
VERTEX
  5
237
330
1BD
100
AcDbEntity
  8
Layer 1
 62
   143
420
  5095150
370
    25
100
AcDbVertex
100
AcDb2dVertex
 10
156.4466091188745
 20
142.3082817569577
 30
0.0
  0
VERTEX
  5
238
330
1BD
100
AcDbEntity
  8
Layer 1
 62
   143
420
  5095150
370
    25
100
AcDbVertex
100
AcDb2dVertex
 10
156.4676242013345
 20
142.3241291961898
 30
0.0
  0
VERTEX
  5
239
330
1BD
100
AcDbEntity
  8
Layer 1
 62
   143
420
  5095150
370
    25
100
AcDbVertex
100
AcDb2dVertex
 10
156.4893283028916
 20
142.3392876163249
 30
0.0
  0
VERTEX
  5
23A
330
1BD
100
AcDbEntity
  8
Layer 1
 62
   143
420
  5095150
370
    25
100
AcDbVertex
100
AcDb2dVertex
 10
156.5113769139972
 20
142.353757017363
 30
0.0
  0
VERTEX
  5
23B
330
1BD
100
AcDbEntity
  8
Layer 1
 62
   143
420
  5095150
370
    25
100
AcDbVertex
100
AcDb2dVertex
 10
156.5337700346513
 20
142.3673651445297
 30
0.0
  0
VERTEX
  5
23C
330
1BD
100
AcDbEntity
  8
Layer 1
 62
   143
420
  5095150
370
    25
100
AcDbVertex
100
AcDb2dVertex
 10
156.5568521744025
 20
142.3802842525994
 30
0.0
  0
VERTEX
  5
23D
330
1BD
100
AcDbEntity
  8
Layer 1
 62
   143
420
  5095150
370
    25
100
AcDbVertex
100
AcDb2dVertex
 10
156.5802788237022
 20
142.392514341572
 30
0.0
  0
VERTEX
  5
23E
330
1BD
100
AcDbEntity
  8
Layer 1
 62
   143
420
  5095150
370
    25
100
AcDbVertex
100
AcDb2dVertex
 10
156.6040499825504
 20
142.4038831566733
 30
0.0
  0
VERTEX
  5
23F
330
1BD
100
AcDbEntity
  8
Layer 1
 62
   143
420
  5095150
370
    25
100
AcDbVertex
100
AcDb2dVertex
 10
156.6281656509471
 20
142.4143906979033
 30
0.0
  0
VERTEX
  5
240
330
1BD
100
AcDbEntity
  8
Layer 1
 62
   143
420
  5095150
370
    25
100
AcDbVertex
100
AcDb2dVertex
 10
156.6526258288924
 20
142.4242092200363
 30
0.0
  0
VERTEX
  5
241
330
1BD
100
AcDbEntity
  8
Layer 1
 62
   143
420
  5095150
370
    25
100
AcDbVertex
100
AcDb2dVertex
 10
156.6774305163862
 20
142.433166468298
 30
0.0
  0
VERTEX
  5
242
330
1BD
100
AcDbEntity
  8
Layer 1
 62
   143
420
  5095150
370
    25
100
AcDbVertex
100
AcDb2dVertex
 10
156.7025797134285
 20
142.4412624426883
 30
0.0
  0
VERTEX
  5
243
330
1BD
100
AcDbEntity
  8
Layer 1
 62
   143
420
  5095150
370
    25
100
AcDbVertex
100
AcDb2dVertex
 10
156.7280734200194
 20
142.4484971432073
 30
0.0
  0
VERTEX
  5
244
330
1BD
100
AcDbEntity
  8
Layer 1
 62
   143
420
  5095150
370
    25
100
AcDbVertex
100
AcDb2dVertex
 10
156.7535671266102
 20
142.454870569855
 30
0.0
  0
VERTEX
  5
245
330
1BD
100
AcDbEntity
  8
Layer 1
 62
   143
420
  5095150
370
    25
100
AcDbVertex
100
AcDb2dVertex
 10
156.7794053427496
 20
142.4605549774057
 30
0.0
  0
VERTEX
  5
246
330
1BD
100
AcDbEntity
  8
Layer 1
 62
   143
420
  5095150
370
    25
100
AcDbVertex
100
AcDb2dVertex
 10
156.805243558889
 20
142.4652058563108
 30
0.0
  0
VERTEX
  5
247
330
1BD
100
AcDbEntity
  8
Layer 1
 62
   143
420
  5095150
370
    25
100
AcDbVertex
100
AcDb2dVertex
 10
156.8314262845769
 20
142.4689954613446
 30
0.0
  0
VERTEX
  5
248
330
1BD
100
AcDbEntity
  8
Layer 1
 62
   143
420
  5095150
370
    25
100
AcDbVertex
100
AcDb2dVertex
 10
156.8576090102648
 20
142.471923792507
 30
0.0
  0
VERTEX
  5
249
330
1BD
100
AcDbEntity
  8
Layer 1
 62
   143
420
  5095150
370
    25
100
AcDbVertex
100
AcDb2dVertex
 10
156.8837917359527
 20
142.4741631045724
 30
0.0
  0
VERTEX
  5
24A
330
1BD
100
AcDbEntity
  8
Layer 1
 62
   143
420
  5095150
370
    25
100
AcDbVertex
100
AcDb2dVertex
 10
156.9103189711891
 20
142.4753688879923
 30
0.0
  0
VERTEX
  5
24B
330
1BD
100
AcDbEntity
  8
Layer 1
 62
   143
420
  5095150
370
    25
100
AcDbVertex
100
AcDb2dVertex
 10
156.936501696877
 20
142.4757133975408
 30
0.0
  0
VERTEX
  5
24C
330
1BD
100
AcDbEntity
  8
Layer 1
 62
   143
420
  5095150
370
    25
100
AcDbVertex
100
AcDb2dVertex
 10
156.9630289321134
 20
142.4750243784437
 30
0.0
  0
VERTEX
  5
24D
330
1BD
100
AcDbEntity
  8
Layer 1
 62
   143
420
  5095150
370
    25
100
AcDbVertex
100
AcDb2dVertex
 10
156.9892116578013
 20
142.4736463402496
 30
0.0
  0
VERTEX
  5
24E
330
1BD
100
AcDbEntity
  8
Layer 1
 62
   143
420
  5095150
370
    25
100
AcDbVertex
100
AcDb2dVertex
 10
157.0157388930377
 20
142.4714070281842
 30
0.0
  0
VERTEX
  5
24F
330
1BD
100
AcDbEntity
  8
Layer 1
 62
   143
420
  5095150
370
    25
100
AcDbVertex
100
AcDb2dVertex
 10
157.0419216187256
 20
142.4681341874733
 30
0.0
  0
VERTEX
  5
250
330
1BD
100
AcDbEntity
  8
Layer 1
 62
   143
420
  5095150
370
    25
100
AcDbVertex
100
AcDb2dVertex
 10
157.067759834865
 20
142.4641723276652
 30
0.0
  0
VERTEX
  5
251
330
1BD
100
AcDbEntity
  8
Layer 1
 62
   143
420
  5095150
370
    25
100
AcDbVertex
100
AcDb2dVertex
 10
157.0935980510044
 20
142.4591769392116
 30
0.0
  0
VERTEX
  5
252
330
1BD
100
AcDbEntity
  8
Layer 1
 62
   143
420
  5095150
370
    25
100
AcDbVertex
100
AcDb2dVertex
 10
157.1194362671438
 20
142.4534925316609
 30
0.0
  0
VERTEX
  5
253
330
1BD
100
AcDbEntity
  8
Layer 1
 62
   143
420
  5095150
370
    25
100
AcDbVertex
100
AcDb2dVertex
 10
157.1449299737346
 20
142.4467745954647
 30
0.0
  0
VERTEX
  5
254
330
1BD
100
AcDbEntity
  8
Layer 1
 62
   143
420
  5095150
370
    25
100
AcDbVertex
100
AcDb2dVertex
 10
157.1704236803255
 20
142.4393676401714
 30
0.0
  0
VERTEX
  5
255
330
1BD
100
AcDbEntity
  8
Layer 1
 62
   143
420
  5095150
370
    25
100
AcDbVertex
100
AcDb2dVertex
 10
157.1952283678193
 20
142.4309271562325
 30
0.0
  0
VERTEX
  5
256
330
1BD
100
AcDbEntity
  8
Layer 1
 62
   143
420
  5095150
370
    25
100
AcDbVertex
100
AcDb2dVertex
 10
157.2200330553131
 20
142.4217976531966
 30
0.0
  0
VERTEX
  5
257
330
1BD
100
AcDbEntity
  8
Layer 1
 62
   143
420
  5095150
370
    25
100
AcDbVertex
100
AcDb2dVertex
 10
157.2444932332583
 20
142.4119791310637
 30
0.0
  0
VERTEX
  5
258
330
1BD
100
AcDbEntity
  8
Layer 1
 62
   143
420
  5095150
370
    25
100
AcDbVertex
100
AcDb2dVertex
 10
157.2686089016551
 20
142.4011270802851
 30
0.0
  0
VERTEX
  5
259
330
1BD
100
AcDbEntity
  8
Layer 1
 62
   143
420
  5095150
370
    25
100
AcDbVertex
100
AcDb2dVertex
 10
157.2923800605033
 20
142.3895860104095
 30
0.0
  0
VERTEX
  5
25A
330
1BD
100
AcDbEntity
  8
Layer 1
 62
   143
420
  5095150
370
    25
100
AcDbVertex
100
AcDb2dVertex
 10
157.3154622002545
 20
142.3771836666627
 30
0.0
  0
VERTEX
  5
25B
330
1BD
100
AcDbEntity
  8
Layer 1
 62
   143
420
  5095150
370
    25
100
AcDbVertex
100
AcDb2dVertex
 10
157.3385443400057
 20
142.3640923038187
 30
0.0
  0
VERTEX
  5
25C
330
1BD
100
AcDbEntity
  8
Layer 1
 62
   143
420
  5095150
370
    25
100
AcDbVertex
100
AcDb2dVertex
 10
157.3609374606598
 20
142.3501396671034
 30
0.0
  0
VERTEX
  5
25D
330
1BD
100
AcDbEntity
  8
Layer 1
 62
   143
420
  5095150
370
    25
100
AcDbVertex
100
AcDb2dVertex
 10
157.3826415622168
 20
142.3354980112911
 30
0.0
  0
VERTEX
  5
25E
330
1BD
100
AcDbEntity
  8
Layer 1
 62
   143
420
  5095150
370
    25
100
AcDbVertex
100
AcDb2dVertex
 10
157.4043456637739
 20
142.3201673363818
 30
0.0
  0
VERTEX
  5
25F
330
1BD
100
AcDbEntity
  8
Layer 1
 62
   143
420
  5095150
370
    25
100
AcDbVertex
100
AcDb2dVertex
 10
157.4250162366854
 20
142.3041476423754
 30
0.0
  0
VERTEX
  5
260
330
1BD
100
AcDbEntity
  8
Layer 1
 62
   143
420
  5095150
370
    25
100
AcDbVertex
100
AcDb2dVertex
 10
157.4456868095969
 20
142.2874389292719
 30
0.0
  0
VERTEX
  5
261
330
1BD
100
AcDbEntity
  8
Layer 1
 62
   143
420
  5095150
370
    25
100
AcDbVertex
100
AcDb2dVertex
 10
157.4653238538629
 20
142.2700411970714
 30
0.0
  0
VERTEX
  5
262
330
1BD
100
AcDbEntity
  8
Layer 1
 62
   143
420
  5095150
370
    25
100
AcDbVertex
100
AcDb2dVertex
 10
157.4846163885802
 20
142.2519544457738
 30
0.0
  0
VERTEX
  5
263
330
1BD
100
AcDbEntity
  8
Layer 1
 62
   143
420
  5095150
370
    25
100
AcDbVertex
100
AcDb2dVertex
 10
157.5032199042006
 20
142.2333509301535
 30
0.0
  0
VERTEX
  5
264
330
1BD
100
AcDbEntity
  8
Layer 1
 62
   143
420
  5095150
370
    25
100
AcDbVertex
100
AcDb2dVertex
 10
157.5211344007239
 20
142.2140583954361
 30
0.0
  0
VERTEX
  5
265
330
1BD
100
AcDbEntity
  8
Layer 1
 62
   143
420
  5095150
370
    25
100
AcDbVertex
100
AcDb2dVertex
 10
157.5383598781501
 20
142.1940768416216
 30
0.0
  0
VERTEX
  5
266
330
1BD
100
AcDbEntity
  8
Layer 1
 62
   143
420
  5095150
370
    25
100
AcDbVertex
100
AcDb2dVertex
 10
157.5552408460279
 20
142.1735785234844
 30
0.0
  0
VERTEX
  5
267
330
1BD
100
AcDbEntity
  8
Layer 1
 62
   143
420
  5095150
370
    25
100
AcDbVertex
100
AcDb2dVertex
 10
157.57108828526
 20
142.1527356957986
 30
0.0
  0
VERTEX
  5
268
330
1BD
100
AcDbEntity
  8
Layer 1
 62
   143
420
  5095150
370
    25
100
AcDbVertex
100
AcDb2dVertex
 10
157.5862467053951
 20
142.1312038490158
 30
0.0
  0
VERTEX
  5
269
330
1BD
100
AcDbEntity
  8
Layer 1
 62
   143
420
  5095150
370
    25
100
AcDbVertex
100
AcDb2dVertex
 10
157.6010606159817
 20
142.1091552379102
 30
0.0
  0
VERTEX
  5
26A
330
1BD
100
AcDbEntity
  8
Layer 1
 62
   143
420
  5095150
370
    25
100
AcDbVertex
100
AcDb2dVertex
 10
157.6148409979227
 20
142.0865898624818
 30
0.0
  0
VERTEX
  5
26B
330
1BD
100
AcDbEntity
  8
Layer 1
 62
   143
420
  5095150
370
    25
100
AcDbVertex
100
AcDb2dVertex
 10
157.6275878512181
 20
142.0636799775049
 30
0.0
  0
VERTEX
  5
26C
330
1BD
100
AcDbEntity
  8
Layer 1
 62
   143
420
  5095150
370
    25
100
AcDbVertex
100
AcDb2dVertex
 10
157.639990194965
 20
142.0404255829795
 30
0.0
  0
VERTEX
  5
26D
330
1BD
100
AcDbEntity
  8
Layer 1
 62
   143
420
  5095150
370
    25
100
AcDbVertex
100
AcDb2dVertex
 10
157.6513590100663
 20
142.0166544241312
 30
0.0
  0
VERTEX
  5
26E
330
1BD
100
AcDbEntity
  8
Layer 1
 62
   143
420
  5095150
370
    25
100
AcDbVertex
100
AcDb2dVertex
 10
157.6620388060706
 20
141.9925387557345
 30
0.0
  0
VERTEX
  5
26F
330
1BD
100
AcDbEntity
  8
Layer 1
 62
   143
420
  5095150
370
    25
100
AcDbVertex
100
AcDb2dVertex
 10
157.6720295829778
 20
141.9680785777892
 30
0.0
  0
VERTEX
  5
270
330
1BD
100
AcDbEntity
  8
Layer 1
 62
   143
420
  5095150
370
    25
100
AcDbVertex
100
AcDb2dVertex
 10
157.6809868312395
 20
141.9432738902954
 30
0.0
  0
VERTEX
  5
271
330
1BD
100
AcDbEntity
  8
Layer 1
 62
   143
420
  5095150
370
    25
100
AcDbVertex
100
AcDb2dVertex
 10
157.6892550604041
 20
141.9182969480274
 30
0.0
  0
VERTEX
  5
272
330
1BD
100
AcDbEntity
  8
Layer 1
 62
   143
420
  5095150
370
    25
100
AcDbVertex
100
AcDb2dVertex
 10
157.6964897609231
 20
141.8928032414365
 30
0.0
  0
VERTEX
  5
273
330
1BD
100
AcDbEntity
  8
Layer 1
 62
   143
420
  5095150
370
    25
100
AcDbVertex
100
AcDb2dVertex
 10
157.7030354423451
 20
141.8673095348457
 30
0.0
  0
VERTEX
  5
274
330
1BD
100
AcDbEntity
  8
Layer 1
 62
   143
420
  5095150
370
    25
100
AcDbVertex
100
AcDb2dVertex
 10
157.70889210467
 20
141.8416435734806
 30
0.0
  0
VERTEX
  5
275
330
1BD
100
AcDbEntity
  8
Layer 1
 62
   143
420
  5095150
370
    25
100
AcDbVertex
100
AcDb2dVertex
 10
157.7137152383494
 20
141.8156331025669
 30
0.0
  0
VERTEX
  5
276
330
1BD
100
AcDbEntity
  8
Layer 1
 62
   143
420
  5095150
370
    25
100
AcDbVertex
100
AcDb2dVertex
 10
157.7175048433831
 20
141.7896226316533
 30
0.0
  0
VERTEX
  5
277
330
1BD
100
AcDbEntity
  8
Layer 1
 62
   143
420
  5095150
370
    25
100
AcDbVertex
100
AcDb2dVertex
 10
157.7206054293198
 20
141.7634399059654
 30
0.0
  0
VERTEX
  5
278
330
1BD
100
AcDbEntity
  8
Layer 1
 62
   143
420
  5095150
370
    25
100
AcDbVertex
100
AcDb2dVertex
 10
157.722672486611
 20
141.7370849255032
 30
0.0
  0
VERTEX
  5
279
330
1BD
100
AcDbEntity
  8
Layer 1
 62
   143
420
  5095150
370
    25
100
AcDbVertex
100
AcDb2dVertex
 10
157.7240505248051
 20
141.7107299450411
 30
0.0
  0
VERTEX
  5
27A
330
1BD
100
AcDbEntity
  8
Layer 1
 62
   143
420
  5095150
370
    25
100
AcDbVertex
100
AcDb2dVertex
 10
157.7247395439022
 20
141.6843749645789
 30
0.0
  0
SEQEND
  5
27B
330
1BD
100
AcDbEntity
  8
Layer 1
370
    25
  0
ENDSEC
  0
SECTION
  2
OBJECTS
  0
DICTIONARY
  5
C
330
0
100
AcDbDictionary
281
     1
  3
ACAD_GROUP
350
D
  3
ACAD_LAYOUT
350
1A
  3
ACAD_MLINESTYLE
350
17
  3
ACAD_PLOTSETTINGS
350
19
  3
ACAD_PLOTSTYLENAME
350
E
  3
ACAD_TABLESTYLE
350
27C
  3
ACAD_VISUALSTYLE
350
2A
  0
DICTIONARY
  5
D
102
{ACAD_REACTORS
330
C
102
}
330
C
100
AcDbDictionary
281
     1
  0
DICTIONARY
  5
1A
102
{ACAD_REACTORS
330
C
102
}
330
C
100
AcDbDictionary
281
     1
  3
Layout1
350
1E
  3
Layout2
350
26
  3
Model
350
22
  0
DICTIONARY
  5
17
102
{ACAD_REACTORS
330
C
102
}
330
C
100
AcDbDictionary
281
     1
  3
Standard
350
18
  0
DICTIONARY
  5
19
102
{ACAD_REACTORS
330
C
102
}
330
C
100
AcDbDictionary
281
     1
  0
ACDBDICTIONARYWDFLT
  5
E
102
{ACAD_REACTORS
330
C
102
}
330
C
100
AcDbDictionary
281
     1
  3
Normal
350
F
100
AcDbDictionaryWithDefault
340
F
  0
DICTIONARY
  5
27C
102
{ACAD_REACTORS
330
C
102
}
330
C
100
AcDbDictionary
281
     1
  0
DICTIONARY
  5
2A
102
{ACAD_REACTORS
330
C
102
}
330
C
100
AcDbDictionary
281
     1
  3
2dWireframe
350
2F
  3
3D Hidden
350
31
  3
3dWireframe
350
30
  3
Basic
350
32
  3
Brighten
350
36
  3
ColorChange
350
3A
  3
Conceptual
350
34
  3
Dim
350
35
  3
Facepattern
350
39
  3
Flat
350
2B
  3
FlatWithEdges
350
2C
  3
Gouraud
350
2D
  3
GouraudWithEdges
350
2E
  3
Linepattern
350
38
  3
Realistic
350
33
  3
Thicken
350
37
  0
LAYOUT
  5
1E
102
{ACAD_REACTORS
330
1A
102
}
330
1A
100
AcDbPlotSettings
  1

  2
none_device
  4

  6

 40
0.0
 41
0.0
 42
0.0
 43
0.0
 44
0.0
 45
0.0
 46
0.0
 47
0.0
 48
0.0
 49
0.0
140
0.0
141
0.0
142
1.0
143
1.0
 70
   688
 72
     0
 73
     0
 74
     5
  7

 75
    16
 76
     0
 77
     2
 78
   300
147
1.0
148
0.0
149
0.0
100
AcDbLayout
  1
Layout1
 70
     1
 71
     1
 10
0.0
 20
0.0
 11
12.0
 21
9.0
 12
0.0
 22
0.0
 32
0.0
 14
1.000000000000000E+20
 24
1.000000000000000E+20
 34
1.000000000000000E+20
 15
-1.000000000000000E+20
 25
-1.000000000000000E+20
 35
-1.000000000000000E+20
146
0.0
 13
0.0
 23
0.0
 33
0.0
 16
1.0
 26
0.0
 36
0.0
 17
0.0
 27
1.0
 37
0.0
 76
     0
330
1B
  0
LAYOUT
  5
26
102
{ACAD_REACTORS
330
1A
102
}
330
1A
100
AcDbPlotSettings
  1

  2
none_device
  4

  6

 40
0.0
 41
0.0
 42
0.0
 43
0.0
 44
0.0
 45
0.0
 46
0.0
 47
0.0
 48
0.0
 49
0.0
140
0.0
141
0.0
142
1.0
143
1.0
 70
   688
 72
     0
 73
     0
 74
     5
  7

 75
    16
 76
     0
 77
     2
 78
   300
147
1.0
148
0.0
149
0.0
100
AcDbLayout
  1
Layout2
 70
     1
 71
     2
 10
0.0
 20
0.0
 11
0.0
 21
0.0
 12
0.0
 22
0.0
 32
0.0
 14
0.0
 24
0.0
 34
0.0
 15
0.0
 25
0.0
 35
0.0
146
0.0
 13
0.0
 23
0.0
 33
0.0
 16
1.0
 26
0.0
 36
0.0
 17
0.0
 27
1.0
 37
0.0
 76
     0
330
23
  0
LAYOUT
  5
22
102
{ACAD_REACTORS
330
1A
102
}
330
1A
100
AcDbPlotSettings
  1

  2
none_device
  4

  6

 40
0.0
 41
0.0
 42
0.0
 43
0.0
 44
0.0
 45
0.0
 46
0.0
 47
0.0
 48
0.0
 49
0.0
140
0.0
141
0.0
142
1.0
143
1.0
 70
  1712
 72
     0
 73
     0
 74
     0
  7

 75
     0
 76
     0
 77
     2
 78
   300
147
1.0
148
0.0
149
0.0
100
AcDbLayout
  1
Model
 70
     1
 71
     0
 10
0.0
 20
0.0
 11
12.0
 21
9.0
 12
0.0
 22
0.0
 32
0.0
 14
1.000000000000000E+20
 24
1.000000000000000E+20
 34
1.000000000000000E+20
 15
-1.000000000000000E+20
 25
-1.000000000000000E+20
 35
-1.000000000000000E+20
146
0.0
 13
0.0
 23
0.0
 33
0.0
 16
1.0
 26
0.0
 36
0.0
 17
0.0
 27
1.0
 37
0.0
 76
     0
330
1F
331
29
  0
MLINESTYLE
  5
18
102
{ACAD_REACTORS
330
17
102
}
330
17
100
AcDbMlineStyle
  2
Standard
 70
     0
  3

 62
   256
 51
90.0
 52
90.0
 71
     2
 49
0.5
 62
   256
  6
BYLAYER
 49
-0.5
 62
   256
  6
BYLAYER
  0
ACDBPLACEHOLDER
  5
F
102
{ACAD_REACTORS
330
E
102
}
330
E
  0
VISUALSTYLE
  5
2F
102
{ACAD_REACTORS
330
2A
102
}
330
2A
100
AcDbVisualStyle
  2
2dWireframe
 70
     4
 71
     0
 72
     2
 73
     0
 90
        0
 40
-0.6
 41
-30.0
 62
     5
 63
     7
421
 16777215
 74
     1
 91
        4
 64
     7
 65
   257
 75
     1
175
     1
 42
1.0
 92
        0
 66
   257
 43
1.0
 76
     1
 77
     6
 78
     2
 67
     7
 79
     5
170
     0
171
     0
290
     0
174
     0
 93
        1
 44
0.0
173
     0
291
     0
 45
0.0
1001
ACAD
1000
AcDbSavedByObjectVersion
1070
     0
  0
VISUALSTYLE
  5
31
102
{ACAD_REACTORS
330
2A
102
}
330
2A
100
AcDbVisualStyle
  2
3D Hidden
 70
     6
 71
     1
 72
     2
 73
     2
 90
        0
 40
-0.6
 41
-30.0
 62
     5
 63
     7
421
 16777215
 74
     2
 91
        2
 64
     7
 65
   257
 75
     2
175
     1
 42
40.0
 92
        0
 66
   257
 43
1.0
 76
     1
 77
     6
 78
     2
 67
     7
 79
     3
170
     0
171
     0
290
     0
174
     0
 93
        1
 44
0.0
173
     0
291
     0
 45
0.0
1001
ACAD
1000
AcDbSavedByObjectVersion
1070
     0
  0
VISUALSTYLE
  5
30
102
{ACAD_REACTORS
330
2A
102
}
330
2A
100
AcDbVisualStyle
  2
3dWireframe
 70
     5
 71
     0
 72
     2
 73
     0
 90
        0
 40
-0.6
 41
-30.0
 62
     5
 63
     7
421
 16777215
 74
     1
 91
        4
 64
     7
 65
   257
 75
     1
175
     1
 42
1.0
 92
        0
 66
   257
 43
1.0
 76
     1
 77
     6
 78
     2
 67
     7
 79
     5
170
     0
171
     0
290
     0
174
     0
 93
        1
 44
0.0
173
     0
291
     0
 45
0.0
1001
ACAD
1000
AcDbSavedByObjectVersion
1070
     0
  0
VISUALSTYLE
  5
32
102
{ACAD_REACTORS
330
2A
102
}
330
2A
100
AcDbVisualStyle
  2
Basic
 70
     7
 71
     1
 72
     0
 73
     1
 90
        0
 40
-0.6
 41
-30.0
 62
     5
 63
     7
421
 16777215
 74
     0
 91
        4
 64
     7
 65
   257
 75
     1
175
     1
 42
1.0
 92
        8
 66
     7
 43
1.0
 76
     1
 77
     6
 78
     2
 67
     7
 79
     5
170
     0
171
     0
290
     0
174
     0
 93
        1
 44
0.0
173
     0
291
     1
 45
0.0
1001
ACAD
1000
AcDbSavedByObjectVersion
1070
     0
  0
VISUALSTYLE
  5
36
102
{ACAD_REACTORS
330
2A
102
}
330
2A
100
AcDbVisualStyle
  2
Brighten
 70
    12
 71
     2
 72
     2
 73
     0
 90
        0
 40
-0.6
 41
-30.0
 62
     5
 63
     7
421
 16777215
 74
     1
 91
        4
 64
     7
 65
   257
 75
     1
175
     1
 42
1.0
 92
        8
 66
     7
 43
1.0
 76
     1
 77
     6
 78
     2
 67
     7
 79
     5
170
     0
171
     0
290
     0
174
     0
 93
        1
 44
50.0
173
     0
291
     1
 45
0.0
1001
ACAD
1000
AcDbSavedByObjectVersion
1070
     0
  0
VISUALSTYLE
  5
3A
102
{ACAD_REACTORS
330
2A
102
}
330
2A
100
AcDbVisualStyle
  2
ColorChange
 70
    16
 71
     2
 72
     2
 73
     3
 90
        0
 40
-0.6
 41
-30.0
 62
     5
 63
     8
421
  8421504
 74
     1
 91
        4
 64
     7
 65
   257
 75
     1
175
     1
 42
1.0
 92
        8
 66
     8
424
  8421504
 43
1.0
 76
     1
 77
     6
 78
     2
 67
     7
 79
     5
170
     0
171
     0
290
     0
174
     0
 93
        1
 44
0.0
173
     0
291
     1
 45
0.0
1001
ACAD
1000
AcDbSavedByObjectVersion
1070
     0
  0
VISUALSTYLE
  5
34
102
{ACAD_REACTORS
330
2A
102
}
330
2A
100
AcDbVisualStyle
  2
Conceptual
 70
     9
 71
     3
 72
     2
 73
     0
 90
        0
 40
-0.6
 41
-30.0
 62
     5
 63
     7
421
 16777215
 74
     2
 91
        2
 64
     7
 65
   257
 75
     1
175
     1
 42
40.0
 92
        8
 66
     7
 43
1.0
 76
     1
 77
     6
 78
     2
 67
     7
 79
     3
170
     0
171
     0
290
     0
174
     0
 93
        1
 44
0.0
173
     0
291
     0
 45
0.0
1001
ACAD
1000
AcDbSavedByObjectVersion
1070
     0
  0
VISUALSTYLE
  5
35
102
{ACAD_REACTORS
330
2A
102
}
330
2A
100
AcDbVisualStyle
  2
Dim
 70
    11
 71
     2
 72
     2
 73
     0
 90
        0
 40
-0.6
 41
-30.0
 62
     5
 63
     7
421
 16777215
 74
     1
 91
        4
 64
     7
 65
   257
 75
     1
175
     1
 42
1.0
 92
        8
 66
     7
 43
1.0
 76
     1
 77
     6
 78
     2
 67
     7
 79
     5
170
     0
171
     0
290
     0
174
     0
 93
        1
 44
-50.0
173
     0
291
     1
 45
0.0
1001
ACAD
1000
AcDbSavedByObjectVersion
1070
     0
  0
VISUALSTYLE
  5
39
102
{ACAD_REACTORS
330
2A
102
}
330
2A
100
AcDbVisualStyle
  2
Facepattern
 70
    15
 71
     2
 72
     2
 73
     0
 90
        0
 40
-0.6
 41
-30.0
 62
     5
 63
     7
421
 16777215
 74
     1
 91
        4
 64
     7
 65
   257
 75
     1
175
     1
 42
1.0
 92
        8
 66
     7
 43
1.0
 76
     1
 77
     6
 78
     2
 67
     7
 79
     5
170
     0
171
     0
290
     0
174
     0
 93
        1
 44
0.0
173
     0
291
     1
 45
0.0
1001
ACAD
1000
AcDbSavedByObjectVersion
1070
     0
  0
VISUALSTYLE
  5
2B
102
{ACAD_REACTORS
330
2A
102
}
330
2A
100
AcDbVisualStyle
  2
Flat
 70
     0
 71
     2
 72
     1
 73
     1
 90
        2
 40
-0.6
 41
30.0
 62
     5
 63
     7
421
 16777215
 74
     0
 91
        4
 64
     7
 65
   257
 75
     1
175
     1
 42
1.0
 92
        8
 66
     7
 43
1.0
 76
     1
 77
     6
 78
     2
 67
     7
 79
     5
170
     0
171
     0
290
     0
174
     0
 93
       13
 44
0.0
173
     0
291
     1
 45
0.0
1001
ACAD
1000
AcDbSavedByObjectVersion
1070
     0
  0
VISUALSTYLE
  5
2C
102
{ACAD_REACTORS
330
2A
102
}
330
2A
100
AcDbVisualStyle
  2
FlatWithEdges
 70
     1
 71
     2
 72
     1
 73
     1
 90
        2
 40
-0.6
 41
30.0
 62
     5
 63
     7
421
 16777215
 74
     1
 91
        4
 64
     7
 65
   257
 75
     1
175
     1
 42
1.0
 92
        0
 66
   257
 43
1.0
 76
     1
 77
     6
 78
     2
 67
     7
 79
     5
170
     0
171
     0
290
     0
174
     0
 93
       13
 44
0.0
173
     0
291
     1
 45
0.0
1001
ACAD
1000
AcDbSavedByObjectVersion
1070
     0
  0
VISUALSTYLE
  5
2D
102
{ACAD_REACTORS
330
2A
102
}
330
2A
100
AcDbVisualStyle
  2
Gouraud
 70
     2
 71
     2
 72
     2
 73
     1
 90
        2
 40
-0.6
 41
30.0
 62
     5
 63
     7
421
 16777215
 74
     0
 91
        4
 64
     7
 65
   257
 75
     1
175
     1
 42
1.0
 92
        0
 66
     7
 43
1.0
 76
     1
 77
     6
 78
     2
 67
     7
 79
     5
170
     0
171
     0
290
     0
174
     0
 93
       13
 44
0.0
173
     0
291
     1
 45
0.0
1001
ACAD
1000
AcDbSavedByObjectVersion
1070
     0
  0
VISUALSTYLE
  5
2E
102
{ACAD_REACTORS
330
2A
102
}
330
2A
100
AcDbVisualStyle
  2
GouraudWithEdges
 70
     3
 71
     2
 72
     2
 73
     1
 90
        2
 40
-0.6
 41
30.0
 62
     5
 63
     7
421
 16777215
 74
     1
 91
        4
 64
     7
 65
   257
 75
     1
175
     1
 42
1.0
 92
        0
 66
   257
 43
1.0
 76
     1
 77
     6
 78
     2
 67
     7
 79
     5
170
     0
171
     0
290
     0
174
     0
 93
       13
 44
0.0
173
     0
291
     1
 45
0.0
1001
ACAD
1000
AcDbSavedByObjectVersion
1070
     0
  0
VISUALSTYLE
  5
38
102
{ACAD_REACTORS
330
2A
102
}
330
2A
100
AcDbVisualStyle
  2
Linepattern
 70
    14
 71
     2
 72
     2
 73
     0
 90
        0
 40
-0.6
 41
-30.0
 62
     5
 63
     7
421
 16777215
 74
     1
 91
        4
 64
     7
 65
   257
 75
     7
175
     7
 42
1.0
 92
        8
 66
     7
 43
1.0
 76
     1
 77
     6
 78
     2
 67
     7
 79
     5
170
     0
171
     0
290
     0
174
     0
 93
        1
 44
0.0
173
     0
291
     1
 45
0.0
1001
ACAD
1000
AcDbSavedByObjectVersion
1070
     0
  0
VISUALSTYLE
  5
33
102
{ACAD_REACTORS
330
2A
102
}
330
2A
100
AcDbVisualStyle
  2
Realistic
 70
     8
 71
     2
 72
     2
 73
     0
 90
        0
 40
-0.6
 41
-30.0
 62
     5
 63
     7
421
 16777215
 74
     1
 91
        0
 64
     7
 65
   257
 75
     1
175
     1
 42
1.0
 92
        8
 66
     8
424
  7895160
 43
1.0
 76
     1
 77
     6
 78
     2
 67
     7
 79
     5
170
     0
171
     0
290
     0
174
     0
 93
       13
 44
0.0
173
     0
291
     0
 45
0.0
1001
ACAD
1000
AcDbSavedByObjectVersion
1070
     0
  0
VISUALSTYLE
  5
37
102
{ACAD_REACTORS
330
2A
102
}
330
2A
100
AcDbVisualStyle
  2
Thicken
 70
    13
 71
     2
 72
     2
 73
     0
 90
        0
 40
-0.6
 41
-30.0
 62
     5
 63
     7
421
 16777215
 74
     1
 91
        4
 64
     7
 65
   257
 75
     1
175
     1
 42
1.0
 92
       12
 66
     7
 43
1.0
 76
     1
 77
     6
 78
     2
 67
     7
 79
     5
170
     0
171
     0
290
     0
174
     0
 93
        1
 44
0.0
173
     0
291
     1
 45
0.0
1001
ACAD
1000
AcDbSavedByObjectVersion
1070
     0
  0
ENDSEC
  0
EOF
