  0
SECTION
  2
HEADER
  9
$ACADVER
  1
AC1024
  9
$ACADMAINTVER
 70
     6
  9
$DWGCODEPAGE
  3
ANSI_1252
  9
$INSBASE
 10
0.0
 20
0.0
 30
0.0
  9
$EXTMIN
 10
1.000000000000000E+20
 20
1.000000000000000E+20
 30
1.000000000000000E+20
  9
$EXTMAX
 10
-1.000000000000000E+20
 20
-1.000000000000000E+20
 30
-1.000000000000000E+20
  9
$LIMMIN
 10
0.0
 20
0.0
  9
$LIMMAX
 10
12.0
 20
9.0
  9
$ORTHOMODE
 70
     0
  9
$REGENMODE
 70
     1
  9
$FILLMODE
 70
     1
  9
$QTEXTMODE
 70
     0
  9
$MIRRTEXT
 70
     1
  9
$LTSCALE
 40
1.0
  9
$ATTMODE
 70
     1
  9
$TEXTSIZE
 40
0.2
  9
$TRACEWID
 40
0.05
  9
$TEXTSTYLE
  7
Standard
  9
$CLAYER
  8
0
  9
$CELTYPE
  6
ByLayer
  9
$CECOLOR
 62
   256
  9
$CELTSCALE
 40
1.0
  9
$DISPSILH
 70
     0
  9
$DIMSCALE
 40
1.0
  9
$DIMASZ
 40
0.18
  9
$DIMEXO
 40
0.0625
  9
$DIMDLI
 40
0.38
  9
$DIMRND
 40
0.0
  9
$DIMDLE
 40
0.0
  9
$DIMEXE
 40
0.18
  9
$DIMTP
 40
0.0
  9
$DIMTM
 40
0.0
  9
$DIMTXT
 40
0.18
  9
$DIMCEN
 40
0.09
  9
$DIMTSZ
 40
0.0
  9
$DIMTOL
 70
     0
  9
$DIMLIM
 70
     0
  9
$DIMTIH
 70
     1
  9
$DIMTOH
 70
     1
  9
$DIMSE1
 70
     0
  9
$DIMSE2
 70
     0
  9
$DIMTAD
 70
     0
  9
$DIMZIN
 70
     0
  9
$DIMBLK
  1

  9
$DIMASO
 70
     1
  9
$DIMSHO
 70
     1
  9
$DIMPOST
  1

  9
$DIMAPOST
  1

  9
$DIMALT
 70
     0
  9
$DIMALTD
 70
     2
  9
$DIMALTF
 40
25.4
  9
$DIMLFAC
 40
1.0
  9
$DIMTOFL
 70
     0
  9
$DIMTVP
 40
0.0
  9
$DIMTIX
 70
     0
  9
$DIMSOXD
 70
     0
  9
$DIMSAH
 70
     0
  9
$DIMBLK1
  1

  9
$DIMBLK2
  1

  9
$DIMSTYLE
  2
Standard
  9
$DIMCLRD
 70
     0
  9
$DIMCLRE
 70
     0
  9
$DIMCLRT
 70
     0
  9
$DIMTFAC
 40
1.0
  9
$DIMGAP
 40
0.09
  9
$DIMJUST
 70
     0
  9
$DIMSD1
 70
     0
  9
$DIMSD2
 70
     0
  9
$DIMTOLJ
 70
     1
  9
$DIMTZIN
 70
     0
  9
$DIMALTZ
 70
     0
  9
$DIMALTTZ
 70
     0
  9
$DIMUPT
 70
     0
  9
$DIMDEC
 70
     4
  9
$DIMTDEC
 70
     4
  9
$DIMALTU
 70
     2
  9
$DIMALTTD
 70
     2
  9
$DIMTXSTY
  7
Standard
  9
$DIMAUNIT
 70
     0
  9
$DIMADEC
 70
     0
  9
$DIMALTRND
 40
0.0
  9
$DIMAZIN
 70
     0
  9
$DIMDSEP
 70
    46
  9
$DIMATFIT
 70
     3
  9
$DIMFRAC
 70
     0
  9
$DIMLDRBLK
  1

  9
$DIMLUNIT
 70
     2
  9
$DIMLWD
 70
    -2
  9
$DIMLWE
 70
    -2
  9
$DIMTMOVE
 70
     0
  9
$DIMFXL
 40
1.0
  9
$DIMFXLON
 70
     0
  9
$DIMJOGANG
 40
0.7853981633974483
  9
$DIMTFILL
 70
     0
  9
$DIMTFILLCLR
 70
     0
  9
$DIMARCSYM
 70
     0
  9
$DIMLTYPE
  6

  9
$DIMLTEX1
  6

  9
$DIMLTEX2
  6

  9
$DIMTXTDIRECTION
 70
     0
  9
$LUNITS
 70
     2
  9
$LUPREC
 70
     4
  9
$SKETCHINC
 40
0.1
  9
$FILLETRAD
 40
0.5
  9
$AUNITS
 70
     0
  9
$AUPREC
 70
     0
  9
$MENU
  1
.
  9
$ELEVATION
 40
0.0
  9
$PELEVATION
 40
0.0
  9
$THICKNESS
 40
0.0
  9
$LIMCHECK
 70
     0
  9
$CHAMFERA
 40
0.5
  9
$CHAMFERB
 40
0.5
  9
$CHAMFERC
 40
1.0
  9
$CHAMFERD
 40
0.0
  9
$SKPOLY
 70
     0
  9
$TDCREATE
 40
2460200.931879167
  9
$TDUCREATE
 40
2460200.723545833
  9
$TDUPDATE
 40
2460200.931879271
  9
$TDUUPDATE
 40
2460200.723545937
  9
$TDINDWG
 40
0.0000000116
  9
$TDUSRTIMER
 40
0.0000000116
  9
$USRTIMER
 70
     1
  9
$ANGBASE
 50
0.0
  9
$ANGDIR
 70
     0
  9
$PDMODE
 70
     0
  9
$PDSIZE
 40
0.0
  9
$PLINEWID
 40
0.0
  9
$SPLFRAME
 70
     0
  9
$SPLINETYPE
 70
     6
  9
$SPLINESEGS
 70
     8
  9
$HANDSEED
  5
47
  9
$SURFTAB1
 70
     6
  9
$SURFTAB2
 70
     6
  9
$SURFTYPE
 70
     6
  9
$SURFU
 70
     6
  9
$SURFV
 70
     6
  9
$UCSBASE
  2

  9
$UCSNAME
  2

  9
$UCSORG
 10
0.0
 20
0.0
 30
0.0
  9
$UCSXDIR
 10
1.0
 20
0.0
 30
0.0
  9
$UCSYDIR
 10
0.0
 20
1.0
 30
0.0
  9
$UCSORTHOREF
  2

  9
$UCSORTHOVIEW
 70
     0
  9
$UCSORGTOP
 10
0.0
 20
0.0
 30
0.0
  9
$UCSORGBOTTOM
 10
0.0
 20
0.0
 30
0.0
  9
$UCSORGLEFT
 10
0.0
 20
0.0
 30
0.0
  9
$UCSORGRIGHT
 10
0.0
 20
0.0
 30
0.0
  9
$UCSORGFRONT
 10
0.0
 20
0.0
 30
0.0
  9
$UCSORGBACK
 10
0.0
 20
0.0
 30
0.0
  9
$PUCSBASE
  2

  9
$PUCSNAME
  2

  9
$PUCSORG
 10
0.0
 20
0.0
 30
0.0
  9
$PUCSXDIR
 10
1.0
 20
0.0
 30
0.0
  9
$PUCSYDIR
 10
0.0
 20
1.0
 30
0.0
  9
$PUCSORTHOREF
  2

  9
$PUCSORTHOVIEW
 70
     0
  9
$PUCSORGTOP
 10
0.0
 20
0.0
 30
0.0
  9
$PUCSORGBOTTOM
 10
0.0
 20
0.0
 30
0.0
  9
$PUCSORGLEFT
 10
0.0
 20
0.0
 30
0.0
  9
$PUCSORGRIGHT
 10
0.0
 20
0.0
 30
0.0
  9
$PUCSORGFRONT
 10
0.0
 20
0.0
 30
0.0
  9
$PUCSORGBACK
 10
0.0
 20
0.0
 30
0.0
  9
$USERI1
 70
     0
  9
$USERI2
 70
     0
  9
$USERI3
 70
     0
  9
$USERI4
 70
     0
  9
$USERI5
 70
     0
  9
$USERR1
 40
0.0
  9
$USERR2
 40
0.0
  9
$USERR3
 40
0.0
  9
$USERR4
 40
0.0
  9
$USERR5
 40
0.0
  9
$WORLDVIEW
 70
     1
  9
$SHADEDGE
 70
     3
  9
$SHADEDIF
 70
    70
  9
$TILEMODE
 70
     1
  9
$MAXACTVP
 70
    64
  9
$PINSBASE
 10
0.0
 20
0.0
 30
0.0
  9
$PLIMCHECK
 70
     0
  9
$PEXTMIN
 10
1.000000000000000E+20
 20
1.000000000000000E+20
 30
1.000000000000000E+20
  9
$PEXTMAX
 10
-1.000000000000000E+20
 20
-1.000000000000000E+20
 30
-1.000000000000000E+20
  9
$PLIMMIN
 10
0.0
 20
0.0
  9
$PLIMMAX
 10
12.0
 20
9.0
  9
$UNITMODE
 70
     0
  9
$VISRETAIN
 70
     1
  9
$PLINEGEN
 70
     0
  9
$PSLTSCALE
 70
     1
  9
$TREEDEPTH
 70
  3020
  9
$CMLSTYLE
  2
Standard
  9
$CMLJUST
 70
     0
  9
$CMLSCALE
 40
1.0
  9
$PROXYGRAPHICS
 70
     1
  9
$MEASUREMENT
 70
     0
  9
$CELWEIGHT
370
    -1
  9
$ENDCAPS
280
     0
  9
$JOINSTYLE
280
     0
  9
$LWDISPLAY
290
     1
  9
$INSUNITS
 70
     4
  9
$HYPERLINKBASE
  1

  9
$STYLESHEET
  1

  9
$XEDIT
290
     1
  9
$CEPSNTYPE
380
     0
  9
$PSTYLEMODE
290
     1
  9
$FINGERPRINTGUID
  2
{493D8967-0BD1-44DB-B278-BDF51E31BF07}
  9
$VERSIONGUID
  2
{FAEB1C32-E019-11D5-929B-00C0DF256EC4}
  9
$EXTNAMES
290
     1
  9
$PSVPSCALE
 40
0.0
  9
$OLESTARTUP
290
     0
  9
$SORTENTS
280
   127
  9
$INDEXCTL
280
     0
  9
$HIDETEXT
280
     1
  9
$XCLIPFRAME
280
     2
  9
$HALOGAP
280
     0
  9
$OBSCOLOR
 70
   257
  9
$OBSLTYPE
280
     0
  9
$INTERSECTIONDISPLAY
280
     0
  9
$INTERSECTIONCOLOR
 70
   257
  9
$DIMASSOC
280
     2
  9
$PROJECTNAME
  1

  9
$CAMERADISPLAY
290
     0
  9
$LENSLENGTH
 40
50.0
  9
$CAMERAHEIGHT
 40
0.0
  9
$STEPSPERSEC
 40
2.0
  9
$STEPSIZE
 40
6.0
  9
$3DDWFPREC
 40
2.0
  9
$PSOLWIDTH
 40
0.25
  9
$PSOLHEIGHT
 40
4.0
  9
$LOFTANG1
 40
1.570796326794897
  9
$LOFTANG2
 40
1.570796326794897
  9
$LOFTMAG1
 40
0.0
  9
$LOFTMAG2
 40
0.0
  9
$LOFTPARAM
 70
     7
  9
$LOFTNORMALS
280
     1
  9
$LATITUDE
 40
37.795
  9
$LONGITUDE
 40
-122.394
  9
$NORTHDIRECTION
 40
0.0
  9
$TIMEZONE
 70
 -8000
  9
$LIGHTGLYPHDISPLAY
280
     1
  9
$TILEMODELIGHTSYNCH
280
     1
  9
$CMATERIAL
347
3C
  9
$SOLIDHIST
280
     1
  9
$SHOWHIST
280
     1
  9
$DWFFRAME
280
     2
  9
$DGNFRAME
280
     2
  9
$REALWORLDSCALE
290
     1
  9
$INTERFERECOLOR
 62
   256
  9
$CSHADOW
280
     0
  9
$SHADOWPLANELOCATION
 40
0.0
  0
ENDSEC
  0
SECTION
  2
CLASSES
  0
CLASS
  1
ACDBDICTIONARYWDFLT
  2
AcDbDictionaryWithDefault
  3
ObjectDBX Classes
 90
        0
 91
        4
280
     0
281
     0
  0
CLASS
  1
VISUALSTYLE
  2
AcDbVisualStyle
  3
ObjectDBX Classes
 90
     4095
 91
        4
280
     0
281
     0
  0
CLASS
  1
MATERIAL
  2
AcDbMaterial
  3
ObjectDBX Classes
 90
     1153
 91
        4
280
     0
281
     0
  0
CLASS
  1
SUN
  2
AcDbSun
  3
SCENEOE
 90
     1024
 91
        4
280
     0
281
     0
  0
ENDSEC
  0
SECTION
  2
TABLES
  0
TABLE
  2
VPORT
  5
8
330
0
100
AcDbSymbolTable
 70
     1
  0
VPORT
  5
29
330
8
100
AcDbSymbolTableRecord
100
AcDbViewportTableRecord
  2
*Active
 70
     0
 10
0.0
 20
0.0
 11
1.0
 21
1.0
 12
0.0
 22
0.0
 13
0.0
 23
0.0
 14
0.5
 24
0.5
 15
0.5
 25
0.5
 16
0.0
 26
0.0
 36
1.0
 17
107.9499999730125
 27
139.699999965075
 37
0.0
 40
279.39999993015
 41
0.7727272727272728
 42
50.0
 43
0.0
 44
0.0
 50
0.0
 51
0.0
 71
     0
 72
   100
 73
     1
 74
     3
 75
     0
 76
     0
 77
     0
 78
     0
281
     0
 65
     1
110
0.0
120
0.0
130
0.0
111
1.0
121
0.0
131
0.0
112
0.0
122
1.0
132
0.0
 79
     0
146
0.0
 60
     3
 61
     5
292
     1
282
     1
141
0.0
142
0.0
 63
   250
361
3F
  0
ENDTAB
  0
TABLE
  2
LTYPE
  5
5
330
0
100
AcDbSymbolTable
 70
     1
  0
LTYPE
  5
14
330
5
100
AcDbSymbolTableRecord
100
AcDbLinetypeTableRecord
  2
ByBlock
 70
     0
  3

 72
    65
 73
     0
 40
0.0
  0
LTYPE
  5
15
330
5
100
AcDbSymbolTableRecord
100
AcDbLinetypeTableRecord
  2
ByLayer
 70
     0
  3

 72
    65
 73
     0
 40
0.0
  0
LTYPE
  5
16
330
5
100
AcDbSymbolTableRecord
100
AcDbLinetypeTableRecord
  2
Continuous
 70
     0
  3
Solid line
 72
    65
 73
     0
 40
0.0
  0
ENDTAB
  0
TABLE
  2
LAYER
  5
2
330
0
100
AcDbSymbolTable
 70
     2
  0
LAYER
  5
10
330
2
100
AcDbSymbolTableRecord
100
AcDbLayerTableRecord
  2
0
 70
     0
 62
     7
  6
Continuous
370
    -3
390
F
347
3E
  0
LAYER
  5
40
330
2
100
AcDbSymbolTableRecord
100
AcDbLayerTableRecord
  2
Layer 1
 70
     0
 62
     7
  6
Continuous
370
    -3
390
F
347
3E
  0
ENDTAB
  0
TABLE
  2
STYLE
  5
3
330
0
100
AcDbSymbolTable
 70
     1
  0
STYLE
  5
11
330
3
100
AcDbSymbolTableRecord
100
AcDbTextStyleTableRecord
  2
Standard
 70
     0
 40
0.0
 41
1.0
 50
0.0
 71
     0
 42
0.2
  3
txt
  4

  0
ENDTAB
  0
TABLE
  2
VIEW
  5
6
330
0
100
AcDbSymbolTable
 70
     0
  0
ENDTAB
  0
TABLE
  2
UCS
  5
7
330
0
100
AcDbSymbolTable
 70
     0
  0
ENDTAB
  0
TABLE
  2
APPID
  5
9
330
0
100
AcDbSymbolTable
 70
     1
  0
APPID
  5
12
330
9
100
AcDbSymbolTableRecord
100
AcDbRegAppTableRecord
  2
ACAD
 70
     0
  0
ENDTAB
  0
TABLE
  2
DIMSTYLE
  5
A
330
0
100
AcDbSymbolTable
 70
     1
100
AcDbDimStyleTable
  0
DIMSTYLE
105
27
330
A
100
AcDbSymbolTableRecord
100
AcDbDimStyleTableRecord
  2
Standard
 70
     0
178
     0
340
11
  0
ENDTAB
  0
TABLE
  2
BLOCK_RECORD
  5
1
330
0
100
AcDbSymbolTable
 70
     1
  0
BLOCK_RECORD
  5
1F
330
1
100
AcDbSymbolTableRecord
100
AcDbBlockTableRecord
  2
*Model_Space
340
22
 70
     0
280
     1
281
     0
  0
BLOCK_RECORD
  5
1B
330
1
100
AcDbSymbolTableRecord
100
AcDbBlockTableRecord
  2
*Paper_Space
340
1E
 70
     0
280
     1
281
     0
  0
BLOCK_RECORD
  5
23
330
1
100
AcDbSymbolTableRecord
100
AcDbBlockTableRecord
  2
*Paper_Space0
340
26
 70
     0
280
     1
281
     0
  0
ENDTAB
  0
ENDSEC
  0
SECTION
  2
BLOCKS
  0
BLOCK
  5
20
330
1F
100
AcDbEntity
  8
0
100
AcDbBlockBegin
  2
*Model_Space
 70
     0
 10
0.0
 20
0.0
 30
0.0
  3
*Model_Space
  1

  0
ENDBLK
  5
21
330
1F
100
AcDbEntity
  8
0
100
AcDbBlockEnd
  0
BLOCK
  5
1C
330
1B
100
AcDbEntity
 67
     1
  8
0
100
AcDbBlockBegin
  2
*Paper_Space
 70
     0
 10
0.0
 20
0.0
 30
0.0
  3
*Paper_Space
  1

  0
ENDBLK
  5
1D
330
1B
100
AcDbEntity
 67
     1
  8
0
100
AcDbBlockEnd
  0
BLOCK
  5
24
330
23
100
AcDbEntity
  8
0
100
AcDbBlockBegin
  2
*Paper_Space0
 70
     0
 10
0.0
 20
0.0
 30
0.0
  3
*Paper_Space0
  1

  0
ENDBLK
  5
25
330
23
100
AcDbEntity
  8
0
100
AcDbBlockEnd
  0
ENDSEC
  0
SECTION
  2
ENTITIES
  0
SPLINE
  5
41
330
1F
100
AcDbEntity
  8
Layer 1
 62
   152
420
    29373
370
    18
100
AcDbSpline
210
0.0
220
0.0
230
1.0
 70
    11
 71
     3
 72
   149
 73
   145
 74
     0
 42
0.0000000001
 43
0.0000000001
 12
1.0
 22
0.0
 32
0.0
 13
1.0
 23
0.0
 33
0.0
 40
0.0
 40
0.0
 40
0.0
 40
0.0
 40
1.0
 40
1.0
 40
1.0
 40
2.0
 40
2.0
 40
2.0
 40
3.0
 40
3.0
 40
3.0
 40
4.0
 40
4.0
 40
4.0
 40
5.0
 40
5.0
 40
5.0
 40
6.0
 40
6.0
 40
6.0
 40
7.0
 40
7.0
 40
7.0
 40
8.0
 40
8.0
 40
8.0
 40
9.0
 40
9.0
 40
9.0
 40
10.0
 40
10.0
 40
10.0
 40
11.0
 40
11.0
 40
11.0
 40
12.0
 40
12.0
 40
12.0
 40
13.0
 40
13.0
 40
13.0
 40
14.0
 40
14.0
 40
14.0
 40
15.0
 40
15.0
 40
15.0
 40
16.0
 40
16.0
 40
16.0
 40
17.0
 40
17.0
 40
17.0
 40
18.0
 40
18.0
 40
18.0
 40
19.0
 40
19.0
 40
19.0
 40
20.0
 40
20.0
 40
20.0
 40
21.0
 40
21.0
 40
21.0
 40
22.0
 40
22.0
 40
22.0
 40
23.0
 40
23.0
 40
23.0
 40
24.0
 40
24.0
 40
24.0
 40
25.0
 40
25.0
 40
25.0
 40
26.0
 40
26.0
 40
26.0
 40
27.0
 40
27.0
 40
27.0
 40
28.0
 40
28.0
 40
28.0
 40
29.0
 40
29.0
 40
29.0
 40
30.0
 40
30.0
 40
30.0
 40
31.0
 40
31.0
 40
31.0
 40
32.0
 40
32.0
 40
32.0
 40
33.0
 40
33.0
 40
33.0
 40
34.0
 40
34.0
 40
34.0
 40
35.0
 40
35.0
 40
35.0
 40
36.0
 40
36.0
 40
36.0
 40
37.0
 40
37.0
 40
37.0
 40
38.0
 40
38.0
 40
38.0
 40
39.0
 40
39.0
 40
39.0
 40
40.0
 40
40.0
 40
40.0
 40
41.0
 40
41.0
 40
41.0
 40
42.0
 40
42.0
 40
42.0
 40
43.0
 40
43.0
 40
43.0
 40
44.0
 40
44.0
 40
44.0
 40
45.0
 40
45.0
 40
45.0
 40
46.0
 40
46.0
 40
46.0
 40
47.0
 40
47.0
 40
47.0
 40
48.0
 40
48.0
 40
48.0
 40
48.0
 10
121.0730063676764
 20
131.7501659445382
 30
0.0
 10
121.0514843079108
 20
132.2663729611025
 30
0.0
 10
121.3902709487312
 20
132.7306667013466
 30
0.0
 10
121.7410211481897
 20
133.0791222938967
 30
0.0
 10
121.7410211481897
 20
133.0791222938967
 30
0.0
 10
122.0276853903326
 20
133.0607448626676
 30
0.0
 10
122.0276853903326
 20
133.0607448626676
 30
0.0
 10
122.3260282260749
 20
132.7667538797359
 30
0.0
 10
122.5800483787768
 20
132.4026053289666
 30
0.0
 10
122.664255921971
 20
131.9863394677838
 30
0.0
 10
122.7339717694735
 20
131.8157384018663
 30
0.0
 10
122.540046151343
 20
131.177902276062
 30
0.0
 10
122.514821891947
 20
131.0028386064004
 30
0.0
 10
122.8670787244161
 20
130.9266674567082
 30
0.0
 10
123.2059385500083
 20
130.7865131958509
 30
0.0
 10
123.5090764489901
 20
130.5915910987721
 30
0.0
 10
123.6193513460447
 20
130.736952211515
 30
0.0
 10
123.9302817010222
 20
131.3166753765789
 30
0.0
 10
124.1014433167694
 20
131.3910395699816
 30
0.0
 10
124.4629227997579
 20
131.6306297711315
 30
0.0
 10
124.9102696900371
 20
131.707141157863
 30
0.0
 10
125.3377223666373
 20
131.7001797622319
 30
0.0
 10
125.3377223666373
 20
131.7001797622319
 30
0.0
 10
125.5274179367939
 20
131.4844952530085
 30
0.0
 10
125.5274179367939
 20
131.4844952530085
 30
0.0
 10
125.530523040494
 20
131.0656518702763
 30
0.0
 10
125.4526238681966
 20
130.6285426472247
 30
0.0
 10
125.2178362172501
 20
130.2746519854743
 30
0.0
 10
125.1464921722237
 20
130.1047183123804
 30
0.0
 10
124.5583504533144
 20
129.7908301795224
 30
0.0
 10
124.4167191523493
 20
129.6848742648245
 30
0.0
 10
124.6119450924404
 20
129.381927910289
 30
0.0
 10
124.7524548166385
 20
129.0432135350214
 30
0.0
 10
124.8289786567764
 20
128.6910288128703
 30
0.0
 10
125.009737637013
 20
128.7158374838963
 30
0.0
 10
125.6395305408828
 20
128.9059205100893
 30
0.0
 10
125.8131401008312
 20
128.8374554818203
 30
0.0
 10
126.2381569480517
 20
128.7512809930402
 30
0.0
 10
126.6085824758322
 20
128.489048231448
 30
0.0
 10
126.9059082996762
 20
128.1818759979205
 30
0.0
 10
126.9059082996762
 20
128.1818759979205
 30
0.0
 10
126.8875308684471
 20
127.8952225217009
 30
0.0
 10
126.8875308684471
 20
127.8952225217009
 30
0.0
 10
126.5935553662314
 20
127.5968782053338
 30
0.0
 10
126.2293977519367
 20
127.3428391346441
 30
0.0
 10
125.8131362568203
 20
127.2586519600946
 30
0.0
 10
125.6425402126848
 20
127.1889238452598
 30
0.0
 10
125.0046879787876
 20
127.3828622726285
 30
0.0
 10
124.8296246121799
 20
127.4080752541632
 30
0.0
 10
124.7534636254111
 20
127.0558158627119
 30
0.0
 10
124.6132966891683
 20
126.7169650683368
 30
0.0
 10
124.418387870475
 20
126.4138206971201
 30
0.0
 10
124.5637471200742
 20
126.3035459678678
 30
0.0
 10
125.1434739567348
 20
125.9926151632364
 30
0.0
 10
125.2178363477864
 20
125.821453832267
 30
0.0
 10
125.4574090698605
 20
125.4599736859728
 30
0.0
 10
125.5339508874928
 20
125.0126348965747
 30
0.0
 10
125.5269657680114
 20
124.5851855453963
 30
0.0
 10
125.5269657680114
 20
124.5851855453963
 30
0.0
 10
125.311281258788
 20
124.3954792093163
 30
0.0
 10
125.311281258788
 20
124.3954792093163
 30
0.0
 10
124.8924387218074
 20
124.3923958582903
 30
0.0
 10
124.4553229783846
 20
124.4702667571085
 30
0.0
 10
124.1014379878465
 20
124.7050716995609
 30
0.0
 10
123.9315149212406
 20
124.7764134172072
 30
0.0
 10
123.6176201526909
 20
125.3645529856912
 30
0.0
 10
123.5116710365274
 20
125.5061779937609
 30
0.0
 10
123.2087197693764
 20
125.3109637612583
 30
0.0
 10
122.8700137101291
 20
125.1704382614033
 30
0.0
 10
122.5178255845732
 20
125.0939292552572
 30
0.0
 10
122.5426397917993
 20
124.9131628088388
 30
0.0
 10
122.732711481334
 20
124.283376227912
 30
0.0
 10
122.6642522441365
 20
124.109757045605
 30
0.0
 10
122.5780587666007
 20
123.6847405212187
 30
0.0
 10
122.3158424492028
 20
123.3143245516218
 30
0.0
 10
122.0086727696234
 20
123.0169888464339
 30
0.0
 10
122.0086727696234
 20
123.0169888464339
 30
0.0
 10
121.7220192934039
 20
123.0353662776631
 30
0.0
 10
121.7220192934039
 20
123.0353662776631
 30
0.0
 10
121.4236606946802
 20
123.3293421144729
 30
0.0
 10
121.1696600836482
 20
123.6935023867825
 30
0.0
 10
121.0854379949508
 20
124.1097609031595
 30
0.0
 10
121.0157313295513
 20
124.2803730904761
 30
0.0
 10
121.2096403484979
 20
124.9182012484645
 30
0.0
 10
121.2348720258661
 20
125.0932725339303
 30
0.0
 10
120.8826114619768
 20
125.1694312803796
 30
0.0
 10
120.5437658398281
 20
125.3096075931364
 30
0.0
 10
120.240617468823
 20
125.5045092756352
 30
0.0
 10
120.1303469488033
 20
125.3591508155221
 30
0.0
 10
119.8194124424617
 20
124.7794292350755
 30
0.0
 10
119.6482505964703
 20
124.7050715754166
 30
0.0
 10
119.2867815503002
 20
124.4654762722523
 30
0.0
 10
118.8394280911392
 20
124.3889691513667
 30
0.0
 10
118.4119823170992
 20
124.3959313780988
 30
0.0
 10
118.4119823170992
 20
124.3959313780988
 30
0.0
 10
118.2222759810192
 20
124.6116158873222
 30
0.0
 10
118.2222759810192
 20
124.6116158873222
 30
0.0
 10
118.2191851438629
 20
125.0304562500705
 30
0.0
 10
118.2970580446795
 20
125.4675802968229
 30
0.0
 10
118.5318684584697
 20
125.8214591607824
 30
0.0
 10
118.6031978252575
 20
125.9913870894065
 30
0.0
 10
119.1913577579309
 20
126.3052812613108
 30
0.0
 10
119.3329747654638
 20
126.4112368755062
 30
0.0
 10
119.1377422088749
 20
126.7141775369706
 30
0.0
 10
118.9972519546778
 20
127.0528931268911
 30
0.0
 10
118.9207152610367
 20
127.405071561537
 30
0.0
 10
118.7399565414942
 20
127.3802701368287
 30
0.0
 10
118.1101601666647
 20
127.1901842149053
 30
0.0
 10
117.9365538171757
 20
127.2586556461673
 30
0.0
 10
117.5115350129585
 20
127.3448235650767
 30
0.0
 10
117.1411148738304
 20
127.6070685787763
 30
0.0
 10
116.8437856181369
 20
127.9142351424102
 30
0.0
 10
116.8437856181369
 20
127.9142351424102
 30
0.0
 10
116.862163049366
 20
128.2008886186297
 30
0.0
 10
116.862163049366
 20
128.2008886186297
 30
0.0
 10
117.1561444507588
 20
128.4992339757012
 30
0.0
 10
117.5202938899348
 20
128.7532618018414
 30
0.0
 10
117.9365576714724
 20
128.8374591585428
 30
0.0
 10
118.1071581319501
 20
128.9071786952109
 30
0.0
 10
118.745004903922
 20
128.7132469058075
 30
0.0
 10
118.9200693056332
 20
128.688025120244
 30
0.0
 10
118.9962273303283
 20
129.040283906072
 30
0.0
 10
119.136392263854
 20
129.3791394292935
 30
0.0
 10
119.3313060473381
 20
129.6822796772872
 30
0.0
 10
119.1859483169004
 20
129.7925562391639
 30
0.0
 10
118.6062129201293
 20
130.1034797267187
 30
0.0
 10
118.5318683377776
 20
130.2746573046159
 30
0.0
 10
118.2922685911087
 20
130.6361212195602
 30
0.0
 10
118.2157588525755
 20
131.0834816420158
 30
0.0
 10
118.2227281498017
 20
131.5109255949344
 30
0.0
 10
118.2227281498017
 20
131.5109255949344
 30
0.0
 10
118.4384126590251
 20
131.700621165091
 30
0.0
 10
118.4384126590251
 20
131.700621165091
 30
0.0
 10
118.8572534419188
 20
131.7037329160115
 30
0.0
 10
119.2943717979262
 20
131.6258326629408
 30
0.0
 10
119.6482559321651
 20
131.3910394591961
 30
0.0
 10
119.81817770628
 20
131.3196920339142
 30
0.0
 10
120.132076283685
 20
130.7315581736074
 30
0.0
 10
120.2380336472091
 20
130.5899331465698
 30
0.0
 10
120.5409767902899
 20
130.7851548907346
 30
0.0
 10
120.8796884045242
 20
130.9256599964566
 30
0.0
 10
121.2318683332399
 20
131.0021818850735
 30
0.0
 10
121.2318683332399
 20
131.0021818850735
 30
0.0
 10
121.0730063676764
 20
131.7501659445382
 30
0.0
 10
121.0730063676764
 20
131.7501659445382
 30
0.0
  0
SPLINE
  5
42
330
1F
100
AcDbEntity
  8
Layer 1
 62
   217
420
  8269710
370
    18
100
AcDbSpline
210
0.0
220
0.0
230
1.0
 70
    11
 71
     3
 72
   248
 73
   244
 74
     0
 42
0.0000000001
 43
0.0000000001
 12
1.0
 22
0.0
 32
0.0
 13
1.0
 23
0.0
 33
0.0
 40
0.0
 40
0.0
 40
0.0
 40
0.0
 40
1.0
 40
1.0
 40
1.0
 40
2.0
 40
2.0
 40
2.0
 40
3.0
 40
3.0
 40
3.0
 40
4.0
 40
4.0
 40
4.0
 40
5.0
 40
5.0
 40
5.0
 40
6.0
 40
6.0
 40
6.0
 40
7.0
 40
7.0
 40
7.0
 40
8.0
 40
8.0
 40
8.0
 40
9.0
 40
9.0
 40
9.0
 40
10.0
 40
10.0
 40
10.0
 40
11.0
 40
11.0
 40
11.0
 40
12.0
 40
12.0
 40
12.0
 40
13.0
 40
13.0
 40
13.0
 40
14.0
 40
14.0
 40
14.0
 40
15.0
 40
15.0
 40
15.0
 40
16.0
 40
16.0
 40
16.0
 40
17.0
 40
17.0
 40
17.0
 40
18.0
 40
18.0
 40
18.0
 40
19.0
 40
19.0
 40
19.0
 40
20.0
 40
20.0
 40
20.0
 40
21.0
 40
21.0
 40
21.0
 40
22.0
 40
22.0
 40
22.0
 40
23.0
 40
23.0
 40
23.0
 40
24.0
 40
24.0
 40
24.0
 40
25.0
 40
25.0
 40
25.0
 40
26.0
 40
26.0
 40
26.0
 40
27.0
 40
27.0
 40
27.0
 40
28.0
 40
28.0
 40
28.0
 40
29.0
 40
29.0
 40
29.0
 40
30.0
 40
30.0
 40
30.0
 40
31.0
 40
31.0
 40
31.0
 40
32.0
 40
32.0
 40
32.0
 40
33.0
 40
33.0
 40
33.0
 40
34.0
 40
34.0
 40
34.0
 40
35.0
 40
35.0
 40
35.0
 40
36.0
 40
36.0
 40
36.0
 40
37.0
 40
37.0
 40
37.0
 40
38.0
 40
38.0
 40
38.0
 40
39.0
 40
39.0
 40
39.0
 40
40.0
 40
40.0
 40
40.0
 40
41.0
 40
41.0
 40
41.0
 40
42.0
 40
42.0
 40
42.0
 40
43.0
 40
43.0
 40
43.0
 40
44.0
 40
44.0
 40
44.0
 40
45.0
 40
45.0
 40
45.0
 40
46.0
 40
46.0
 40
46.0
 40
47.0
 40
47.0
 40
47.0
 40
48.0
 40
48.0
 40
48.0
 40
49.0
 40
49.0
 40
49.0
 40
50.0
 40
50.0
 40
50.0
 40
51.0
 40
51.0
 40
51.0
 40
52.0
 40
52.0
 40
52.0
 40
53.0
 40
53.0
 40
53.0
 40
54.0
 40
54.0
 40
54.0
 40
55.0
 40
55.0
 40
55.0
 40
56.0
 40
56.0
 40
56.0
 40
57.0
 40
57.0
 40
57.0
 40
58.0
 40
58.0
 40
58.0
 40
59.0
 40
59.0
 40
59.0
 40
60.0
 40
60.0
 40
60.0
 40
61.0
 40
61.0
 40
61.0
 40
62.0
 40
62.0
 40
62.0
 40
63.0
 40
63.0
 40
63.0
 40
64.0
 40
64.0
 40
64.0
 40
65.0
 40
65.0
 40
65.0
 40
66.0
 40
66.0
 40
66.0
 40
67.0
 40
67.0
 40
67.0
 40
68.0
 40
68.0
 40
68.0
 40
69.0
 40
69.0
 40
69.0
 40
70.0
 40
70.0
 40
70.0
 40
71.0
 40
71.0
 40
71.0
 40
72.0
 40
72.0
 40
72.0
 40
73.0
 40
73.0
 40
73.0
 40
74.0
 40
74.0
 40
74.0
 40
75.0
 40
75.0
 40
75.0
 40
76.0
 40
76.0
 40
76.0
 40
77.0
 40
77.0
 40
77.0
 40
78.0
 40
78.0
 40
78.0
 40
79.0
 40
79.0
 40
79.0
 40
80.0
 40
80.0
 40
80.0
 40
81.0
 40
81.0
 40
81.0
 40
81.0
 10
159.2670144012051
 20
137.4747949849907
 30
0.0
 10
159.2808252991953
 20
138.0763229610635
 30
0.0
 10
159.5796928269437
 20
138.6365606252468
 30
0.0
 10
159.9044754911336
 20
139.1283762223703
 30
0.0
 10
159.9044754911336
 20
139.1283762223703
 30
0.0
 10
160.4501032545335
 20
139.1065429297325
 30
0.0
 10
160.4501032545335
 20
139.1065429297325
 30
0.0
 10
160.8469226721171
 20
138.5154097836504
 30
0.0
 10
161.1787197469945
 20
137.8034146472147
 30
0.0
 10
161.0345744695295
 20
137.0766173083596
 30
0.0
 10
161.4020491063412
 20
137.0414082380286
 30
0.0
 10
161.7679885691266
 20
136.9836548264007
 30
0.0
 10
162.1284353497899
 20
136.9039318971614
 30
0.0
 10
162.2359410868238
 20
137.6451069636872
 30
0.0
 10
162.7688666408102
 20
138.226378205995
 30
0.0
 10
163.3414750019931
 20
138.6680791677707
 30
0.0
 10
163.3414750019931
 20
138.6680791677707
 30
0.0
 10
163.8536422754925
 20
138.4786958093925
 30
0.0
 10
163.8536422754925
 20
138.4786958093925
 30
0.0
 10
164.0483957634177
 20
137.7938737164647
 30
0.0
 10
164.143895445593
 20
137.0141956028841
 30
0.0
 10
163.7822319056373
 20
136.3675089982613
 30
0.0
 10
164.1208493328248
 20
136.220485025118
 30
0.0
 10
164.4510272890377
 20
136.0524604415478
 30
0.0
 10
164.7691979325444
 20
135.8652571402054
 30
0.0
 10
165.1004643265681
 20
136.5369417513857
 30
0.0
 10
165.786940821961
 20
136.9250842744498
 30
0.0
 10
166.4680175800147
 20
137.1682137845737
 30
0.0
 10
166.4680175800147
 20
137.1682137845737
 30
0.0
 10
166.8965982243031
 20
136.8298300464584
 30
0.0
 10
166.8965982243031
 20
136.8298300464584
 30
0.0
 10
166.8701740360336
 20
136.1183482347609
 30
0.0
 10
166.7200933916742
 20
135.3473121329401
 30
0.0
 10
166.1762825879543
 20
134.8440447109902
 30
0.0
 10
166.45288699106
 20
134.5995763847813
 30
0.0
 10
166.7149803841843
 20
134.3377501022934
 30
0.0
 10
166.9597295990703
 20
134.0613943782052
 30
0.0
 10
167.4823695740151
 20
134.5977948892481
 30
0.0
 10
168.2551695013422
 20
134.7548674706239
 30
0.0
 10
168.9780495550274
 20
134.7755949700677
 30
0.0
 10
168.9780495550274
 20
134.7755949700677
 30
0.0
 10
169.2810887666487
 20
134.3213483644141
 30
0.0
 10
169.2810887666487
 20
134.3213483644141
 30
0.0
 10
169.0360925466485
 20
133.6528558735875
 30
0.0
 10
168.6551043160619
 20
132.9659268316356
 30
0.0
 10
167.98238466202
 20
132.6553432514408
 30
0.0
 10
168.1699066238413
 20
132.3373612660232
 30
0.0
 10
168.3382604893173
 20
132.00735633413
 30
0.0
 10
168.4856377509512
 20
131.6688939888565
 30
0.0
 10
169.1484574818001
 20
132.017552928013
 30
0.0
 10
169.9319562811517
 20
131.928092081403
 30
0.0
 10
170.6258710233925
 20
131.7244569194795
 30
0.0
 10
170.6258710233925
 20
131.7244569194795
 30
0.0
 10
170.7736979174799
 20
131.1987891780473
 30
0.0
 10
170.7736979174799
 20
131.1987891780473
 30
0.0
 10
170.3341348661851
 20
130.638708879454
 30
0.0
 10
169.7595040594509
 20
130.1031494700091
 30
0.0
 10
169.0237401339005
 20
130.015646495102
 30
0.0
 10
169.1038276592889
 20
129.6552795659053
 30
0.0
 10
169.1619599020599
 20
129.2893982666977
 30
0.0
 10
169.1975344352079
 20
128.9219578696159
 30
0.0
 10
169.9356548371689
 20
129.0487435355612
 30
0.0
 10
170.653160857246
 20
128.7215311608749
 30
0.0
 10
171.2501869208601
 20
128.3134355817635
 30
0.0
 10
171.2501869208601
 20
128.3134355817635
 30
0.0
 10
171.2283320963756
 20
127.767818584287
 30
0.0
 10
171.2283320963756
 20
127.767818584287
 30
0.0
 10
170.6372246545008
 20
127.3709581538312
 30
0.0
 10
169.9252050047722
 20
127.0392169533537
 30
0.0
 10
169.198417240926
 20
127.1833366033676
 30
0.0
 10
169.1632164554654
 20
126.8158619087844
 30
0.0
 10
169.1054650780723
 20
126.4499195473636
 30
0.0
 10
169.0257318297279
 20
126.0894757231072
 30
0.0
 10
169.7669038523851
 20
125.9819716050999
 30
0.0
 10
170.3481903497708
 20
125.4490545841296
 30
0.0
 10
170.7898791003372
 20
124.876436070904
 30
0.0
 10
170.7898791003372
 20
124.876436070904
 30
0.0
 10
170.6005065078824
 20
124.3642687974046
 30
0.0
 10
170.6005065078824
 20
124.3642687974046
 30
0.0
 10
169.915679857384
 20
124.1695253996739
 30
0.0
 10
169.1360107826221
 20
124.0740186272279
 30
0.0
 10
168.4893196967511
 20
124.4356791672598
 30
0.0
 10
168.3422753739568
 20
124.0970727315863
 30
0.0
 10
168.1742839527423
 20
123.7668801987017
 30
0.0
 10
167.9870570727718
 20
123.4487239062761
 30
0.0
 10
168.658729071355
 20
123.1174407408403
 30
0.0
 10
169.0469071408054
 20
122.4309860855119
 30
0.0
 10
169.2900137171401
 20
121.7498934928824
 30
0.0
 10
169.2900137171401
 20
121.7498934928824
 30
0.0
 10
168.9516407449482
 20
121.3213236145174
 30
0.0
 10
168.9516407449482
 20
121.3213236145174
 30
0.0
 10
168.2401501398659
 20
121.3477190294217
 30
0.0
 10
167.4691278054048
 20
121.4978363641621
 30
0.0
 10
166.9658446435567
 20
122.0416284849428
 30
0.0
 10
166.7213772911786
 20
121.765024361018
 30
0.0
 10
166.459556587087
 20
121.5029225271007
 30
0.0
 10
166.1831943107716
 20
121.2581814738268
 30
0.0
 10
166.7196294811719
 20
120.7355563382069
 30
0.0
 10
166.8766342872937
 20
119.9627466320442
 30
0.0
 10
166.8974164344809
 20
119.2398722837932
 30
0.0
 10
166.8974164344809
 20
119.2398722837932
 30
0.0
 10
166.4431482969805
 20
118.9368330721719
 30
0.0
 10
166.4431482969805
 20
118.9368330721719
 30
0.0
 10
165.7746531320913
 20
119.1818161935218
 30
0.0
 10
165.0877228150514
 20
119.562820090416
 30
0.0
 10
164.7771431840073
 20
120.2355371768005
 30
0.0
 10
164.4591739979303
 20
120.0480019610789
 30
0.0
 10
164.1291663402843
 20
119.8796516131718
 30
0.0
 10
163.7907046873463
 20
119.7322840878693
 30
0.0
 10
164.1393511951587
 20
119.0694578191256
 30
0.0
 10
164.0499080338493
 20
118.2859546856469
 30
0.0
 10
163.846256852046
 20
117.5920400495046
 30
0.0
 10
163.846256852046
 20
117.5920400495046
 30
0.0
 10
163.3205891106138
 20
117.4442131554172
 30
0.0
 10
163.3205891106138
 20
117.4442131554172
 30
0.0
 10
162.7605190908295
 20
117.88378742772
 30
0.0
 10
162.2249540940597
 20
118.4584056552523
 30
0.0
 10
162.1374464276685
 20
119.1941709389966
 30
0.0
 10
161.7770814152935
 20
119.1140896129568
 30
0.0
 10
161.4112050736622
 20
119.0559576504125
 30
0.0
 10
161.0437685681057
 20
119.0203766376892
 30
0.0
 10
161.170544259134
 20
118.2822588664575
 30
0.0
 10
160.8433420730403
 20
117.5647417032708
 30
0.0
 10
160.4352355143299
 20
116.967724152037
 30
0.0
 10
160.4352355143299
 20
116.967724152037
 30
0.0
 10
159.8896185168535
 20
116.9895682105981
 30
0.0
 10
159.8896185168535
 20
116.9895682105981
 30
0.0
 10
159.4927828526206
 20
117.580696763351
 30
0.0
 10
159.1610173640123
 20
118.2926963320188
 30
0.0
 10
159.3051473018575
 20
119.0194938319711
 30
0.0
 10
158.9376726556513
 20
119.0546978019068
 30
0.0
 10
158.571731004796
 20
119.1124479408747
 30
0.0
 10
158.2112864215971
 20
119.1921792431692
 30
0.0
 10
158.1037643863573
 20
118.451010429914
 30
0.0
 10
157.5708691301147
 20
117.8697118152932
 30
0.0
 10
156.9982360034704
 20
117.4280319725599
 30
0.0
 10
156.9982360034704
 20
117.4280319725599
 30
0.0
 10
156.4860794958945
 20
117.6174153309381
 30
0.0
 10
156.4860794958945
 20
117.6174153309381
 30
0.0
 10
156.2913266672714
 20
118.3022313061005
 30
0.0
 10
156.1958204480862
 20
119.0819242674174
 30
0.0
 10
156.5574898657497
 20
119.7286021420694
 30
0.0
 10
156.2188748601162
 20
119.8756197669495
 30
0.0
 10
155.8887027490705
 20
120.0436454268306
 30
0.0
 10
155.570534604766
 20
120.2308432342019
 30
0.0
 10
155.2392371294416
 20
119.5591797644759
 30
0.0
 10
154.5527913092726
 20
119.1710132085335
 30
0.0
 10
153.8717041913723
 20
118.927897355757
 30
0.0
 10
153.8717041913723
 20
118.927897355757
 30
0.0
 10
153.4431343130072
 20
119.2662703279489
 30
0.0
 10
153.4431343130072
 20
119.2662703279489
 30
0.0
 10
153.4695218319069
 20
119.977758461863
 30
0.0
 10
153.6196428685583
 20
120.7487913638521
 30
0.0
 10
154.1634391834326
 20
121.2520664293405
 30
0.0
 10
153.8868316091646
 20
121.4965305121201
 30
0.0
 10
153.624736638907
 20
121.7583573931649
 30
0.0
 10
153.3799921723166
 20
122.0347167621255
 30
0.0
 10
152.8573520570893
 20
121.498299501555
 30
0.0
 10
152.0845556155286
 20
121.3412588026802
 30
0.0
 10
151.3616722163596
 20
121.3205054043396
 30
0.0
 10
151.3616722163596
 20
121.3205054043396
 30
0.0
 10
151.0586330047383
 20
121.7747627759166
 30
0.0
 10
151.0586330047383
 20
121.7747627759166
 30
0.0
 10
151.3036287328164
 20
122.4432588248591
 30
0.0
 10
151.6846228651631
 20
123.1301873666246
 30
0.0
 10
152.3573478752904
 20
123.4407678888899
 30
0.0
 10
152.1698104082151
 20
123.758739619129
 30
0.0
 10
152.0014544848501
 20
124.0887481776697
 30
0.0
 10
151.8540947863591
 20
124.4272171514742
 30
0.0
 10
151.1912690151548
 20
124.0785622096875
 30
0.0
 10
150.4077691550663
 20
124.1680088735821
 30
0.0
 10
149.7138507479944
 20
124.3716542208511
 30
0.0
 10
149.7138507479944
 20
124.3716542208511
 30
0.0
 10
149.5660130879837
 20
124.8973219622833
 30
0.0
 10
149.5660130879837
 20
124.8973219622833
 30
0.0
 10
150.0055935636437
 20
125.4573911754764
 30
0.0
 10
150.5802125503278
 20
125.9929585964657
 30
0.0
 10
151.3159816374865
 20
126.0804646452286
 30
0.0
 10
151.2359010377652
 20
126.4408325819185
 30
0.0
 10
151.1777468620047
 20
126.8067111483615
 30
0.0
 10
151.142187336179
 20
127.1741532707148
 30
0.0
 10
150.4040669229986
 20
127.0473667102719
 30
0.0
 10
149.6865567317724
 20
127.3745706545227
 30
0.0
 10
149.0895348505268
 20
127.7826755585672
 30
0.0
 10
149.0895348505268
 20
127.7826755585672
 30
0.0
 10
149.111378909088
 20
128.3282925560436
 30
0.0
 10
149.111378909088
 20
128.3282925560436
 30
0.0
 10
149.7025005521039
 20
128.725136550207
 30
0.0
 10
150.4145097031434
 20
129.0568968401875
 30
0.0
 10
151.1413045304609
 20
128.912774536963
 30
0.0
 10
151.1764782761486
 20
129.2802490518821
 30
0.0
 10
151.2342805755838
 20
129.6461781102491
 30
0.0
 10
151.3139791757357
 20
130.0066246513
 30
0.0
 10
150.5728187579323
 20
130.1141549927275
 30
0.0
 10
149.9915190455178
 20
130.6470447195091
 30
0.0
 10
149.5498426710498
 20
131.2196750694267
 30
0.0
 10
149.5498426710498
 20
131.2196750694267
 30
0.0
 10
149.739226029428
 20
131.731842342926
 30
0.0
 10
149.739226029428
 20
131.731842342926
 30
0.0
 10
150.4240516730916
 20
131.9265854274095
 30
0.0
 10
151.203726785424
 20
132.0220899571057
 30
0.0
 10
151.8504128405593
 20
131.6604212071474
 30
0.0
 10
151.9974169850784
 20
131.9990456755849
 30
0.0
 10
152.1654579569233
 20
132.3292149121391
 30
0.0
 10
152.3526539326917
 20
132.6473872340546
 30
0.0
 10
151.6809839399154
 20
132.9786637377977
 30
0.0
 10
151.2928226590528
 20
133.6651280698231
 30
0.0
 10
151.0497080542468
 20
134.3462068815248
 30
0.0
 10
151.0497080542468
 20
134.3462068815248
 30
0.0
 10
151.3880917923621
 20
134.7747875258133
 30
0.0
 10
151.3880917923621
 20
134.7747875258133
 30
0.0
 10
152.0995713675665
 20
134.7483775277067
 30
0.0
 10
152.8706060883297
 20
134.5982805036238
 30
0.0
 10
153.3738663619069
 20
134.0544718894645
 30
0.0
 10
153.6183355502648
 20
134.3310834400681
 30
0.0
 10
153.8801677596608
 20
134.5931763028596
 30
0.0
 10
154.1565274606153
 20
134.8379296665039
 30
0.0
 10
153.6201082459602
 20
135.3605600773256
 30
0.0
 10
153.4630618793371
 20
136.1333605688113
 30
0.0
 10
153.4423161028295
 20
136.8562388565375
 30
0.0
 10
153.4423161028295
 20
136.8562388565375
 30
0.0
 10
153.8965627084831
 20
137.1592780681588
 30
0.0
 10
153.8965627084831
 20
137.1592780681588
 30
0.0
 10
154.5650703264976
 20
136.9143042117225
 30
0.0
 10
155.251980081194
 20
136.5332838723781
 30
0.0
 10
155.5625785873797
 20
135.8605739635301
 30
0.0
 10
155.880552218298
 20
136.048108285639
 30
0.0
 10
156.2105613529722
 20
136.2164617869354
 30
0.0
 10
156.549027849964
 20
136.3638270524614
 30
0.0
 10
156.2003553868263
 20
137.026634666072
 30
0.0
 10
156.2898173929185
 20
137.8101554926845
 30
0.0
 10
156.493464919341
 20
138.5040603249027
 30
0.0
 10
156.493464919341
 20
138.5040603249027
 30
0.0
 10
157.0191218948498
 20
138.6518979849135
 30
0.0
 10
157.0191218948498
 20
138.6518979849135
 30
0.0
 10
157.5792117492627
 20
138.2123352722908
 30
0.0
 10
158.1147554126054
 20
137.6376940321969
 30
0.0
 10
158.2022753437185
 20
136.9019294354106
 30
0.0
 10
158.5626356492201
 20
136.9820258315118
 30
0.0
 10
158.9285157600947
 20
137.0401639107846
 30
0.0
 10
159.2959532032812
 20
137.0757237367181
 30
0.0
 10
159.2959532032812
 20
137.0757237367181
 30
0.0
 10
159.2670144012051
 20
137.4747949849907
 30
0.0
 10
159.2670144012051
 20
137.4747949849907
 30
0.0
  0
SPLINE
  5
43
330
1F
100
AcDbEntity
  8
Layer 1
 62
   143
420
  5095150
370
    18
100
AcDbSpline
210
0.0
220
0.0
230
1.0
 70
     8
 71
     3
 72
    14
 73
    10
 74
     0
 42
0.0000000001
 43
0.0000000001
 12
1.0
 22
0.0
 32
0.0
 13
1.0
 23
0.0
 33
0.0
 40
0.0
 40
0.0
 40
0.0
 40
0.0
 40
1.0
 40
1.0
 40
1.0
 40
2.0
 40
2.0
 40
2.0
 40
3.0
 40
3.0
 40
3.0
 40
3.0
 10
122.6663414977576
 20
128.0480555701653
 30
0.0
 10
122.6795409059862
 20
128.6097075586958
 30
0.0
 10
122.0507148146297
 20
129.0136018701642
 30
0.0
 10
121.5454597820817
 20
128.7677416068057
 30
0.0
 10
120.9400138655411
 20
128.4979533038448
 30
0.0
 10
120.9326655656462
 20
127.6136050196827
 30
0.0
 10
121.5336416145406
 20
127.3338879260327
 30
0.0
 10
122.0347212589906
 20
127.0798455968069
 30
0.0
 10
122.6702413718711
 20
127.4731100730684
 30
0.0
 10
122.6662338385237
 20
128.0349857391682
 30
0.0
  0
SPLINE
  5
44
330
1F
100
AcDbEntity
  8
Layer 1
 62
   244
420
 10621999
370
    18
100
AcDbSpline
210
0.0
220
0.0
230
1.0
 70
     8
 71
     3
 72
    14
 73
    10
 74
     0
 42
0.0000000001
 43
0.0000000001
 12
1.0
 22
0.0
 32
0.0
 13
1.0
 23
0.0
 33
0.0
 40
0.0
 40
0.0
 40
0.0
 40
0.0
 40
1.0
 40
1.0
 40
1.0
 40
2.0
 40
2.0
 40
2.0
 40
3.0
 40
3.0
 40
3.0
 40
3.0
 10
160.9613554245445
 20
128.0480555701653
 30
0.0
 10
160.9745545852262
 20
128.6097057733524
 30
0.0
 10
160.3457275351475
 20
129.0136037235752
 30
0.0
 10
159.8404737088263
 20
128.7677416076046
 30
0.0
 10
159.2350270921035
 20
128.4979445568375
 30
0.0
 10
159.2276790447204
 20
127.6136301841178
 30
0.0
 10
159.8286447792492
 20
127.3338879343465
 30
0.0
 10
160.3297349405754
 20
127.0798508420426
 30
0.0
 10
160.9652491179098
 20
127.4730991111637
 30
0.0
 10
160.9612477653106
 20
128.0349857391682
 30
0.0
  0
ENDSEC
  0
SECTION
  2
OBJECTS
  0
DICTIONARY
  5
C
330
0
100
AcDbDictionary
281
     1
  3
ACAD_GROUP
350
D
  3
ACAD_LAYOUT
350
1A
  3
ACAD_MATERIAL
350
3B
  3
ACAD_MLEADERSTYLE
350
46
  3
ACAD_MLINESTYLE
350
17
  3
ACAD_PLOTSETTINGS
350
19
  3
ACAD_PLOTSTYLENAME
350
E
  3
ACAD_TABLESTYLE
350
45
  3
ACAD_VISUALSTYLE
350
2A
  0
SUN
  5
3F
330
29
100
AcDbSun
 90
        1
290
     0
 63
     7
421
 16777215
 40
1.0
291
     1
 91
  2455826
 92
 54000000
292
     0
 70
     2
 71
   256
280
     1
  0
DICTIONARY
  5
D
102
{ACAD_REACTORS
330
C
102
}
330
C
100
AcDbDictionary
281
     1
  0
DICTIONARY
  5
1A
102
{ACAD_REACTORS
330
C
102
}
330
C
100
AcDbDictionary
281
     1
  3
Layout1
350
1E
  3
Layout2
350
26
  3
Model
350
22
  0
DICTIONARY
  5
3B
102
{ACAD_REACTORS
330
C
102
}
330
C
100
AcDbDictionary
281
     1
  3
ByBlock
350
3D
  3
ByLayer
350
3C
  3
Global
350
3E
  0
DICTIONARY
  5
46
102
{ACAD_REACTORS
330
C
102
}
330
C
100
AcDbDictionary
281
     1
  0
DICTIONARY
  5
17
102
{ACAD_REACTORS
330
C
102
}
330
C
100
AcDbDictionary
281
     1
  3
Standard
350
18
  0
DICTIONARY
  5
19
102
{ACAD_REACTORS
330
C
102
}
330
C
100
AcDbDictionary
281
     1
  0
ACDBDICTIONARYWDFLT
  5
E
102
{ACAD_REACTORS
330
C
102
}
330
C
100
AcDbDictionary
281
     1
  3
Normal
350
F
100
AcDbDictionaryWithDefault
340
F
  0
DICTIONARY
  5
45
102
{ACAD_REACTORS
330
C
102
}
330
C
100
AcDbDictionary
281
     1
  0
DICTIONARY
  5
2A
102
{ACAD_REACTORS
330
C
102
}
330
C
100
AcDbDictionary
281
     1
  3
2dWireframe
350
2F
  3
3D Hidden
350
31
  3
3dWireframe
350
30
  3
Basic
350
32
  3
Brighten
350
36
  3
ColorChange
350
3A
  3
Conceptual
350
34
  3
Dim
350
35
  3
Facepattern
350
39
  3
Flat
350
2B
  3
FlatWithEdges
350
2C
  3
Gouraud
350
2D
  3
GouraudWithEdges
350
2E
  3
Linepattern
350
38
  3
Realistic
350
33
  3
Thicken
350
37
  0
LAYOUT
  5
1E
102
{ACAD_REACTORS
330
1A
102
}
330
1A
100
AcDbPlotSettings
  1

  2
none_device
  4

  6

 40
0.0
 41
0.0
 42
0.0
 43
0.0
 44
0.0
 45
0.0
 46
0.0
 47
0.0
 48
0.0
 49
0.0
140
0.0
141
0.0
142
1.0
143
1.0
 70
   688
 72
     0
 73
     0
 74
     5
  7

 75
    16
 76
     0
 77
     2
 78
   300
147
1.0
148
0.0
149
0.0
100
AcDbLayout
  1
Layout1
 70
     1
 71
     1
 10
0.0
 20
0.0
 11
12.0
 21
9.0
 12
0.0
 22
0.0
 32
0.0
 14
1.000000000000000E+20
 24
1.000000000000000E+20
 34
1.000000000000000E+20
 15
-1.000000000000000E+20
 25
-1.000000000000000E+20
 35
-1.000000000000000E+20
146
0.0
 13
0.0
 23
0.0
 33
0.0
 16
1.0
 26
0.0
 36
0.0
 17
0.0
 27
1.0
 37
0.0
 76
     0
330
1B
  0
LAYOUT
  5
26
102
{ACAD_REACTORS
330
1A
102
}
330
1A
100
AcDbPlotSettings
  1

  2
none_device
  4

  6

 40
0.0
 41
0.0
 42
0.0
 43
0.0
 44
0.0
 45
0.0
 46
0.0
 47
0.0
 48
0.0
 49
0.0
140
0.0
141
0.0
142
1.0
143
1.0
 70
   688
 72
     0
 73
     0
 74
     5
  7

 75
    16
 76
     0
 77
     2
 78
   300
147
1.0
148
0.0
149
0.0
100
AcDbLayout
  1
Layout2
 70
     1
 71
     2
 10
0.0
 20
0.0
 11
0.0
 21
0.0
 12
0.0
 22
0.0
 32
0.0
 14
0.0
 24
0.0
 34
0.0
 15
0.0
 25
0.0
 35
0.0
146
0.0
 13
0.0
 23
0.0
 33
0.0
 16
1.0
 26
0.0
 36
0.0
 17
0.0
 27
1.0
 37
0.0
 76
     0
330
23
  0
LAYOUT
  5
22
102
{ACAD_REACTORS
330
1A
102
}
330
1A
100
AcDbPlotSettings
  1

  2
none_device
  4

  6

 40
0.0
 41
0.0
 42
0.0
 43
0.0
 44
0.0
 45
0.0
 46
0.0
 47
0.0
 48
0.0
 49
0.0
140
0.0
141
0.0
142
1.0
143
1.0
 70
  1712
 72
     0
 73
     0
 74
     0
  7

 75
     0
 76
     0
 77
     2
 78
   300
147
1.0
148
0.0
149
0.0
100
AcDbLayout
  1
Model
 70
     1
 71
     0
 10
0.0
 20
0.0
 11
12.0
 21
9.0
 12
0.0
 22
0.0
 32
0.0
 14
1.000000000000000E+20
 24
1.000000000000000E+20
 34
1.000000000000000E+20
 15
-1.000000000000000E+20
 25
-1.000000000000000E+20
 35
-1.000000000000000E+20
146
0.0
 13
0.0
 23
0.0
 33
0.0
 16
1.0
 26
0.0
 36
0.0
 17
0.0
 27
1.0
 37
0.0
 76
     0
330
1F
331
29
  0
MATERIAL
  5
3D
102
{ACAD_REACTORS
330
3B
102
}
330
3B
100
AcDbMaterial
  1
ByBlock
 72
     1
 94
      127
  0
MATERIAL
  5
3C
102
{ACAD_REACTORS
330
3B
102
}
330
3B
100
AcDbMaterial
  1
ByLayer
 72
     1
 94
      127
  0
MATERIAL
  5
3E
102
{ACAD_REACTORS
330
3B
102
}
330
3B
100
AcDbMaterial
  1
Global
 72
     1
 94
      127
  0
MLINESTYLE
  5
18
102
{ACAD_REACTORS
330
17
102
}
330
17
100
AcDbMlineStyle
  2
Standard
 70
     0
  3

 62
   256
 51
90.0
 52
90.0
 71
     2
 49
0.5
 62
   256
  6
BYLAYER
 49
-0.5
 62
   256
  6
BYLAYER
  0
ACDBPLACEHOLDER
  5
F
102
{ACAD_REACTORS
330
E
102
}
330
E
  0
VISUALSTYLE
  5
2F
102
{ACAD_REACTORS
330
2A
102
}
330
2A
100
AcDbVisualStyle
  2
2dWireframe
 70
     4
177
     2
291
     0
 71
     0
176
     1
 72
     2
176
     1
 73
     0
176
     1
 90
        0
176
     1
 40
-0.6
176
     1
 41
-30.0
176
     1
 62
     5
 63
     7
421
 16777215
176
     1
 74
     1
176
     1
 91
        4
176
     1
 64
     7
176
     1
 65
   257
176
     1
 75
     1
176
     1
175
     1
176
     1
 42
1.0
176
     1
 92
        0
176
     1
 66
   257
176
     1
 43
1.0
176
     1
 76
     1
176
     1
 77
     6
176
     1
 78
     2
176
     1
 67
     7
176
     1
 79
     5
176
     1
170
     0
176
     1
171
     0
176
     1
290
     0
176
     1
 93
        1
176
     1
 44
0.0
176
     1
173
     0
176
     1
  0
VISUALSTYLE
  5
31
102
{ACAD_REACTORS
330
2A
102
}
330
2A
100
AcDbVisualStyle
  2
3D Hidden
 70
     6
177
     2
291
     0
 71
     1
176
     1
 72
     2
176
     1
 73
     2
176
     1
 90
        0
176
     1
 40
-0.6
176
     1
 41
-30.0
176
     1
 62
     5
 63
     7
421
 16777215
176
     1
 74
     2
176
     1
 91
        2
176
     1
 64
     7
176
     1
 65
   257
176
     1
 75
     2
176
     1
175
     1
176
     1
 42
40.0
176
     1
 92
        0
176
     1
 66
   257
176
     1
 43
1.0
176
     1
 76
     1
176
     1
 77
     6
176
     1
 78
     2
176
     1
 67
     7
176
     1
 79
     3
176
     1
170
     0
176
     1
171
     0
176
     1
290
     0
176
     1
 93
        1
176
     1
 44
0.0
176
     1
173
     0
176
     1
  0
VISUALSTYLE
  5
30
102
{ACAD_REACTORS
330
2A
102
}
330
2A
100
AcDbVisualStyle
  2
3dWireframe
 70
     5
177
     2
291
     0
 71
     0
176
     1
 72
     2
176
     1
 73
     0
176
     1
 90
        0
176
     1
 40
-0.6
176
     1
 41
-30.0
176
     1
 62
     5
 63
     7
421
 16777215
176
     1
 74
     1
176
     1
 91
        4
176
     1
 64
     7
176
     1
 65
   257
176
     1
 75
     1
176
     1
175
     1
176
     1
 42
1.0
176
     1
 92
        0
176
     1
 66
   257
176
     1
 43
1.0
176
     1
 76
     1
176
     1
 77
     6
176
     1
 78
     2
176
     1
 67
     7
176
     1
 79
     5
176
     1
170
     0
176
     1
171
     0
176
     1
290
     0
176
     1
 93
        1
176
     1
 44
0.0
176
     1
173
     0
176
     1
  0
VISUALSTYLE
  5
32
102
{ACAD_REACTORS
330
2A
102
}
330
2A
100
AcDbVisualStyle
  2
Basic
 70
     7
177
     2
291
     1
 71
     1
176
     1
 72
     0
176
     1
 73
     1
176
     1
 90
        0
176
     1
 40
-0.6
176
     1
 41
-30.0
176
     1
 62
     5
 63
     7
421
 16777215
176
     1
 74
     0
176
     1
 91
        4
176
     1
 64
     7
176
     1
 65
   257
176
     1
 75
     1
176
     1
175
     1
176
     1
 42
1.0
176
     1
 92
        8
176
     1
 66
     7
176
     1
 43
1.0
176
     1
 76
     1
176
     1
 77
     6
176
     1
 78
     2
176
     1
 67
     7
176
     1
 79
     5
176
     1
170
     0
176
     1
171
     0
176
     1
290
     0
176
     1
 93
        1
176
     1
 44
0.0
176
     1
173
     0
176
     1
  0
VISUALSTYLE
  5
36
102
{ACAD_REACTORS
330
2A
102
}
330
2A
100
AcDbVisualStyle
  2
Brighten
 70
    12
177
     2
291
     1
 71
     2
176
     1
 72
     2
176
     1
 73
     0
176
     1
 90
        0
176
     1
 40
-0.6
176
     1
 41
-30.0
176
     1
 62
     5
 63
     7
421
 16777215
176
     1
 74
     1
176
     1
 91
        4
176
     1
 64
     7
176
     1
 65
   257
176
     1
 75
     1
176
     1
175
     1
176
     1
 42
1.0
176
     1
 92
        8
176
     1
 66
     7
176
     1
 43
1.0
176
     1
 76
     1
176
     1
 77
     6
176
     1
 78
     2
176
     1
 67
     7
176
     1
 79
     5
176
     1
170
     0
176
     1
171
     0
176
     1
290
     0
176
     1
 93
        1
176
     1
 44
50.0
176
     1
173
     0
176
     1
  0
VISUALSTYLE
  5
3A
102
{ACAD_REACTORS
330
2A
102
}
330
2A
100
AcDbVisualStyle
  2
ColorChange
 70
    16
177
     2
291
     1
 71
     2
176
     1
 72
     2
176
     1
 73
     3
176
     1
 90
        0
176
     1
 40
-0.6
176
     1
 41
-30.0
176
     1
 62
     5
 63
     8
421
  8421504
176
     1
 74
     1
176
     1
 91
        4
176
     1
 64
     7
176
     1
 65
   257
176
     1
 75
     1
176
     1
175
     1
176
     1
 42
1.0
176
     1
 92
        8
176
     1
 66
     8
424
  8421504
176
     1
 43
1.0
176
     1
 76
     1
176
     1
 77
     6
176
     1
 78
     2
176
     1
 67
     7
176
     1
 79
     5
176
     1
170
     0
176
     1
171
     0
176
     1
290
     0
176
     1
 93
        1
176
     1
 44
0.0
176
     1
173
     0
176
     1
  0
VISUALSTYLE
  5
34
102
{ACAD_REACTORS
330
2A
102
}
330
2A
100
AcDbVisualStyle
  2
Conceptual
 70
     9
177
     2
291
     0
 71
     3
176
     1
 72
     2
176
     1
 73
     0
176
     1
 90
        0
176
     1
 40
-0.6
176
     1
 41
-30.0
176
     1
 62
     5
 63
     7
421
 16777215
176
     1
 74
     2
176
     1
 91
        2
176
     1
 64
     7
176
     1
 65
   257
176
     1
 75
     1
176
     1
175
     1
176
     1
 42
40.0
176
     1
 92
        8
176
     1
 66
     7
176
     1
 43
1.0
176
     1
 76
     1
176
     1
 77
     6
176
     1
 78
     2
176
     1
 67
     7
176
     1
 79
     3
176
     1
170
     0
176
     1
171
     0
176
     1
290
     0
176
     1
 93
        1
176
     1
 44
0.0
176
     1
173
     0
176
     1
  0
VISUALSTYLE
  5
35
102
{ACAD_REACTORS
330
2A
102
}
330
2A
100
AcDbVisualStyle
  2
Dim
 70
    11
177
     2
291
     1
 71
     2
176
     1
 72
     2
176
     1
 73
     0
176
     1
 90
        0
176
     1
 40
-0.6
176
     1
 41
-30.0
176
     1
 62
     5
 63
     7
421
 16777215
176
     1
 74
     1
176
     1
 91
        4
176
     1
 64
     7
176
     1
 65
   257
176
     1
 75
     1
176
     1
175
     1
176
     1
 42
1.0
176
     1
 92
        8
176
     1
 66
     7
176
     1
 43
1.0
176
     1
 76
     1
176
     1
 77
     6
176
     1
 78
     2
176
     1
 67
     7
176
     1
 79
     5
176
     1
170
     0
176
     1
171
     0
176
     1
290
     0
176
     1
 93
        1
176
     1
 44
-50.0
176
     1
173
     0
176
     1
  0
VISUALSTYLE
  5
39
102
{ACAD_REACTORS
330
2A
102
}
330
2A
100
AcDbVisualStyle
  2
Facepattern
 70
    15
177
     2
291
     1
 71
     2
176
     1
 72
     2
176
     1
 73
     0
176
     1
 90
        0
176
     1
 40
-0.6
176
     1
 41
-30.0
176
     1
 62
     5
 63
     7
421
 16777215
176
     1
 74
     1
176
     1
 91
        4
176
     1
 64
     7
176
     1
 65
   257
176
     1
 75
     1
176
     1
175
     1
176
     1
 42
1.0
176
     1
 92
        8
176
     1
 66
     7
176
     1
 43
1.0
176
     1
 76
     1
176
     1
 77
     6
176
     1
 78
     2
176
     1
 67
     7
176
     1
 79
     5
176
     1
170
     0
176
     1
171
     0
176
     1
290
     0
176
     1
 93
        1
176
     1
 44
0.0
176
     1
173
     0
176
     1
  0
VISUALSTYLE
  5
2B
102
{ACAD_REACTORS
330
2A
102
}
330
2A
100
AcDbVisualStyle
  2
Flat
 70
     0
177
     2
291
     1
 71
     2
176
     1
 72
     1
176
     1
 73
     1
176
     1
 90
        2
176
     1
 40
-0.6
176
     1
 41
30.0
176
     1
 62
     5
 63
     7
421
 16777215
176
     1
 74
     0
176
     1
 91
        4
176
     1
 64
     7
176
     1
 65
   257
176
     1
 75
     1
176
     1
175
     1
176
     1
 42
1.0
176
     1
 92
        8
176
     1
 66
     7
176
     1
 43
1.0
176
     1
 76
     1
176
     1
 77
     6
176
     1
 78
     2
176
     1
 67
     7
176
     1
 79
     5
176
     1
170
     0
176
     1
171
     0
176
     1
290
     0
176
     1
 93
       13
176
     1
 44
0.0
176
     1
173
     0
176
     1
  0
VISUALSTYLE
  5
2C
102
{ACAD_REACTORS
330
2A
102
}
330
2A
100
AcDbVisualStyle
  2
FlatWithEdges
 70
     1
177
     2
291
     1
 71
     2
176
     1
 72
     1
176
     1
 73
     1
176
     1
 90
        2
176
     1
 40
-0.6
176
     1
 41
30.0
176
     1
 62
     5
 63
     7
421
 16777215
176
     1
 74
     1
176
     1
 91
        4
176
     1
 64
     7
176
     1
 65
   257
176
     1
 75
     1
176
     1
175
     1
176
     1
 42
1.0
176
     1
 92
        0
176
     1
 66
   257
176
     1
 43
1.0
176
     1
 76
     1
176
     1
 77
     6
176
     1
 78
     2
176
     1
 67
     7
176
     1
 79
     5
176
     1
170
     0
176
     1
171
     0
176
     1
290
     0
176
     1
 93
       13
176
     1
 44
0.0
176
     1
173
     0
176
     1
  0
VISUALSTYLE
  5
2D
102
{ACAD_REACTORS
330
2A
102
}
330
2A
100
AcDbVisualStyle
  2
Gouraud
 70
     2
177
     2
291
     1
 71
     2
176
     1
 72
     2
176
     1
 73
     1
176
     1
 90
        2
176
     1
 40
-0.6
176
     1
 41
30.0
176
     1
 62
     5
 63
     7
421
 16777215
176
     1
 74
     0
176
     1
 91
        4
176
     1
 64
     7
176
     1
 65
   257
176
     1
 75
     1
176
     1
175
     1
176
     1
 42
1.0
176
     1
 92
        0
176
     1
 66
     7
176
     1
 43
1.0
176
     1
 76
     1
176
     1
 77
     6
176
     1
 78
     2
176
     1
 67
     7
176
     1
 79
     5
176
     1
170
     0
176
     1
171
     0
176
     1
290
     0
176
     1
 93
       13
176
     1
 44
0.0
176
     1
173
     0
176
     1
  0
VISUALSTYLE
  5
2E
102
{ACAD_REACTORS
330
2A
102
}
330
2A
100
AcDbVisualStyle
  2
GouraudWithEdges
 70
     3
177
     2
291
     1
 71
     2
176
     1
 72
     2
176
     1
 73
     1
176
     1
 90
        2
176
     1
 40
-0.6
176
     1
 41
30.0
176
     1
 62
     5
 63
     7
421
 16777215
176
     1
 74
     1
176
     1
 91
        4
176
     1
 64
     7
176
     1
 65
   257
176
     1
 75
     1
176
     1
175
     1
176
     1
 42
1.0
176
     1
 92
        0
176
     1
 66
   257
176
     1
 43
1.0
176
     1
 76
     1
176
     1
 77
     6
176
     1
 78
     2
176
     1
 67
     7
176
     1
 79
     5
176
     1
170
     0
176
     1
171
     0
176
     1
290
     0
176
     1
 93
       13
176
     1
 44
0.0
176
     1
173
     0
176
     1
  0
VISUALSTYLE
  5
38
102
{ACAD_REACTORS
330
2A
102
}
330
2A
100
AcDbVisualStyle
  2
Linepattern
 70
    14
177
     2
291
     1
 71
     2
176
     1
 72
     2
176
     1
 73
     0
176
     1
 90
        0
176
     1
 40
-0.6
176
     1
 41
-30.0
176
     1
 62
     5
 63
     7
421
 16777215
176
     1
 74
     1
176
     1
 91
        4
176
     1
 64
     7
176
     1
 65
   257
176
     1
 75
     7
176
     1
175
     7
176
     1
 42
1.0
176
     1
 92
        8
176
     1
 66
     7
176
     1
 43
1.0
176
     1
 76
     1
176
     1
 77
     6
176
     1
 78
     2
176
     1
 67
     7
176
     1
 79
     5
176
     1
170
     0
176
     1
171
     0
176
     1
290
     0
176
     1
 93
        1
176
     1
 44
0.0
176
     1
173
     0
176
     1
  0
VISUALSTYLE
  5
33
102
{ACAD_REACTORS
330
2A
102
}
330
2A
100
AcDbVisualStyle
  2
Realistic
 70
     8
177
     2
291
     0
 71
     2
176
     1
 72
     2
176
     1
 73
     0
176
     1
 90
        0
176
     1
 40
-0.6
176
     1
 41
-30.0
176
     1
 62
     5
 63
     7
421
 16777215
176
     1
 74
     1
176
     1
 91
        0
176
     1
 64
     7
176
     1
 65
   257
176
     1
 75
     1
176
     1
175
     1
176
     1
 42
1.0
176
     1
 92
        8
176
     1
 66
     8
424
  7895160
176
     1
 43
1.0
176
     1
 76
     1
176
     1
 77
     6
176
     1
 78
     2
176
     1
 67
     7
176
     1
 79
     5
176
     1
170
     0
176
     1
171
     0
176
     1
290
     0
176
     1
 93
       13
176
     1
 44
0.0
176
     1
173
     0
176
     1
  0
VISUALSTYLE
  5
37
102
{ACAD_REACTORS
330
2A
102
}
330
2A
100
AcDbVisualStyle
  2
Thicken
 70
    13
177
     2
291
     1
 71
     2
176
     1
 72
     2
176
     1
 73
     0
176
     1
 90
        0
176
     1
 40
-0.6
176
     1
 41
-30.0
176
     1
 62
     5
 63
     7
421
 16777215
176
     1
 74
     1
176
     1
 91
        4
176
     1
 64
     7
176
     1
 65
   257
176
     1
 75
     1
176
     1
175
     1
176
     1
 42
1.0
176
     1
 92
       12
176
     1
 66
     7
176
     1
 43
1.0
176
     1
 76
     1
176
     1
 77
     6
176
     1
 78
     2
176
     1
 67
     7
176
     1
 79
     5
176
     1
170
     0
176
     1
171
     0
176
     1
290
     0
176
     1
 93
        1
176
     1
 44
0.0
176
     1
173
     0
176
     1
  0
ENDSEC
  0
EOF
